<svg width="60" height="32" viewBox="0 0 60 32" fill="none" xmlns="http://www.w3.org/2000/svg">
<g clip-path="url(#clip0_2479_110487)">
<path d="M31.6213 11.4094C31.6213 12.0896 31.0778 12.6376 30.403 12.6376C29.7282 12.6376 29.1846 12.0896 29.1846 11.4094C29.1846 10.7292 29.7094 10.1812 30.403 10.1812C31.0965 10.2001 31.6213 10.7481 31.6213 11.4094ZM26.5979 13.8847C26.5979 13.998 26.5979 14.187 26.5979 14.187C26.5979 14.187 26.0168 13.4312 24.7797 13.4312C22.7366 13.4312 21.1434 14.9995 21.1434 17.1725C21.1434 19.3265 22.7179 20.9137 24.7797 20.9137C26.0356 20.9137 26.5979 20.139 26.5979 20.139V20.4602C26.5979 20.6114 26.7104 20.7248 26.8603 20.7248H28.3786V13.6201C28.3786 13.6201 26.9915 13.6201 26.8603 13.6201C26.7104 13.6201 26.5979 13.7524 26.5979 13.8847ZM26.5979 18.4384C26.3167 18.8541 25.7544 19.2131 25.0796 19.2131C23.88 19.2131 22.9615 18.4573 22.9615 17.1725C22.9615 15.8876 23.88 15.1318 25.0796 15.1318C25.7357 15.1318 26.3355 15.5097 26.5979 15.9065V18.4384ZM29.5033 13.6201H31.3027V20.7248H29.5033V13.6201ZM56.3824 13.4312C55.1452 13.4312 54.5642 14.187 54.5642 14.187V10.2001H52.7647V20.7248C52.7647 20.7248 54.1518 20.7248 54.283 20.7248C54.433 20.7248 54.5454 20.5925 54.5454 20.4602V20.139C54.5454 20.139 55.1265 20.9137 56.3636 20.9137C58.4067 20.9137 60 19.3265 60 17.1725C60 15.0184 58.4067 13.4312 56.3824 13.4312ZM56.0825 19.1943C55.3889 19.1943 54.8453 18.8352 54.5642 18.4195V15.8876C54.8453 15.5097 55.4452 15.1129 56.0825 15.1129C57.2821 15.1129 58.2005 15.8687 58.2005 17.1536C58.2005 18.4384 57.2821 19.1943 56.0825 19.1943ZM51.8275 16.5111V20.7437H50.0281V16.719C50.0281 15.5475 49.6532 15.0751 48.641 15.0751C48.0974 15.0751 47.5351 15.3585 47.179 15.7742V20.7248H45.3795V13.6201H46.8041C46.9541 13.6201 47.0665 13.7524 47.0665 13.8847V14.187C47.5914 13.639 48.2849 13.4312 48.9784 13.4312C49.7657 13.4312 50.4217 13.6579 50.9466 14.1114C51.5839 14.6405 51.8275 15.3207 51.8275 16.5111ZM41.0122 13.4312C39.775 13.4312 39.194 14.187 39.194 14.187V10.2001H37.3945V20.7248C37.3945 20.7248 38.7816 20.7248 38.9128 20.7248C39.0628 20.7248 39.1752 20.5925 39.1752 20.4602V20.139C39.1752 20.139 39.7563 20.9137 40.9934 20.9137C43.0365 20.9137 44.6298 19.3265 44.6298 17.1725C44.6485 15.0184 43.0553 13.4312 41.0122 13.4312ZM40.7123 19.1943C40.0187 19.1943 39.4751 18.8352 39.194 18.4195V15.8876C39.4751 15.5097 40.075 15.1129 40.7123 15.1129C41.9119 15.1129 42.8303 15.8687 42.8303 17.1536C42.8303 18.4384 41.9119 19.1943 40.7123 19.1943ZM35.8388 13.4312C36.3824 13.4312 36.6635 13.5257 36.6635 13.5257V15.2073C36.6635 15.2073 35.164 14.6972 34.2268 15.7742V20.7437H32.4273V13.6201C32.4273 13.6201 33.8144 13.6201 33.9456 13.6201C34.0956 13.6201 34.208 13.7524 34.208 13.8847V14.187C34.5454 13.7902 35.2765 13.4312 35.8388 13.4312ZM17.1509 20.0823C17.0571 19.8556 16.9634 19.6099 16.8697 19.4021C16.7197 19.062 16.5698 18.7408 16.4386 18.4384L16.4198 18.4195C15.1265 15.5852 13.7394 12.7132 12.2774 9.87887L12.2212 9.7655C12.0712 9.48207 11.9212 9.17974 11.7713 8.87742C11.5839 8.5373 11.3964 8.17829 11.0965 7.83817C10.4967 7.08236 9.63446 6.66667 8.716 6.66667C7.77879 6.66667 6.93531 7.08236 6.31675 7.80038C6.03559 8.1405 5.8294 8.49951 5.64196 8.83963C5.49201 9.14195 5.34206 9.44428 5.1921 9.7277L5.13587 9.84108C3.69257 12.6754 2.28676 15.5475 0.993415 18.3818L0.97467 18.4195C0.843461 18.7219 0.693508 19.0431 0.543555 19.3832C0.449835 19.5911 0.356114 19.8178 0.262393 20.0634C0.0187192 20.7626 -0.0562573 21.4239 0.0374634 22.1041C0.243649 23.5213 1.18086 24.7117 2.4742 25.2407C2.96155 25.4486 3.46764 25.5431 3.99248 25.5431C4.14243 25.5431 4.32987 25.5242 4.47983 25.5053C5.09838 25.4297 5.73568 25.2219 6.35424 24.8628C7.12275 24.4282 7.85377 23.8047 8.67851 22.8977C9.50326 23.8047 10.253 24.4282 11.0028 24.8628C11.6213 25.2219 12.2586 25.4297 12.8772 25.5053C13.0272 25.5242 13.2146 25.5431 13.3645 25.5431C13.8894 25.5431 14.4142 25.4486 14.8828 25.2407C16.1949 24.7117 17.1134 23.5024 17.3196 22.1041C17.4695 21.4428 17.3945 20.7815 17.1509 20.0823ZM8.69726 21.0649C7.68507 19.78 7.02903 18.5707 6.8041 17.5504C6.71038 17.1158 6.69163 16.7379 6.74787 16.3977C6.78535 16.0954 6.89782 15.8309 7.04777 15.6041C7.40391 15.094 8.00372 14.7728 8.69726 14.7728C9.39079 14.7728 10.0093 15.0751 10.3467 15.6041C10.4967 15.8309 10.6092 16.0954 10.6466 16.3977C10.7029 16.7379 10.6841 17.1347 10.5904 17.5504C10.3655 18.5518 9.70944 19.7611 8.69726 21.0649ZM16.1762 21.953C16.045 22.9355 15.3889 23.7858 14.4705 24.1637C14.0206 24.3527 13.5332 24.4094 13.0459 24.3527C12.5773 24.296 12.1087 24.1448 11.6213 23.8614C10.9466 23.4835 10.2718 22.8977 9.48451 22.0285C10.7216 20.498 11.4714 19.0998 11.7526 17.8527C11.8838 17.2669 11.9025 16.7379 11.8463 16.2466C11.7713 15.7742 11.6026 15.3396 11.3402 14.9617C10.7591 14.1114 9.78442 13.6201 8.69726 13.6201C7.6101 13.6201 6.6354 14.1303 6.05433 14.9617C5.79192 15.3396 5.62322 15.7742 5.54824 16.2466C5.47326 16.7379 5.49201 17.2858 5.64196 17.8527C5.92312 19.0998 6.69163 20.5169 7.91 22.0474C7.14149 22.9166 6.44796 23.5024 5.77317 23.8803C5.28582 24.1637 4.81722 24.3149 4.34862 24.3716C3.84252 24.4282 3.35518 24.3527 2.92406 24.1826C2.0056 23.8047 1.34955 22.9544 1.21834 21.9719C1.16211 21.4995 1.1996 21.0271 1.38704 20.498C1.44327 20.3091 1.53699 20.1201 1.63072 19.8934C1.76192 19.5911 1.91188 19.2698 2.06183 18.9486L2.08057 18.9108C3.37392 16.0954 4.76099 13.2233 6.20429 10.4268L6.26052 10.3135C6.41047 10.03 6.56043 9.7277 6.71038 9.44428C6.86033 9.14195 7.02903 8.85852 7.23521 8.61288C7.62884 8.15939 8.15368 7.91376 8.73475 7.91376C9.31581 7.91376 9.84065 8.15939 10.2343 8.61288C10.4405 8.85852 10.6092 9.14195 10.7591 9.44428C10.9091 9.7277 11.059 10.03 11.209 10.3135L11.2652 10.4268C12.6898 13.2422 14.0768 16.1143 15.3702 18.9297V18.9486C15.5201 19.2509 15.6513 19.5911 15.8013 19.8934C15.895 20.1201 15.9887 20.3091 16.045 20.498C16.1949 20.9893 16.2511 21.4617 16.1762 21.953Z" fill="#FF5A5F"/>
</g>
<defs>
<clipPath id="clip0_2479_110487">
<rect width="60" height="18.8764" fill="white" transform="translate(0 6.66667)"/>
</clipPath>
</defs>
</svg>
