<svg width="61" height="32" viewBox="0 0 61 32" fill="none" xmlns="http://www.w3.org/2000/svg">
<g clip-path="url(#clip0_2479_110497)">
<path d="M37.7463 20.4997C34.6507 22.7676 30.1639 23.9776 26.3007 23.9776C20.884 23.9776 16.0076 21.9863 12.3184 18.6743C12.0286 18.4139 12.2883 18.0589 12.6361 18.2618C16.6175 20.5642 21.5403 21.9494 26.6254 21.9494C30.0549 21.9494 33.8275 21.2441 37.2965 19.7806C37.8205 19.5593 38.2588 20.1217 37.7463 20.4997Z" fill="#FF9900"/>
<path d="M39.0334 19.0362C38.6392 18.5337 36.4178 18.7988 35.4207 18.9163C35.1169 18.9532 35.0705 18.6904 35.3442 18.5015C37.1134 17.2638 40.0165 17.621 40.3551 18.0359C40.6936 18.4531 40.267 21.3455 38.6044 22.7261C38.3493 22.9381 38.1058 22.8252 38.2195 22.544C38.5928 21.6175 39.4299 19.5409 39.0334 19.0362" fill="#FF9900"/>
<path d="M35.4902 9.76404V8.56095C35.4902 8.37887 35.6293 8.25672 35.7962 8.25672H41.2153C41.3892 8.25672 41.5283 8.38118 41.5283 8.56095V9.59118C41.526 9.76404 41.3799 9.98991 41.1202 10.3472L38.3121 14.3321C39.3556 14.3068 40.457 14.4612 41.4031 14.9913C41.6164 15.1111 41.6744 15.2863 41.6906 15.4591V16.7429C41.6906 16.9181 41.4958 17.1232 41.2918 17.0172C39.6246 16.1483 37.4101 16.0538 35.5667 17.0264C35.3789 17.1278 35.1818 16.925 35.1818 16.7498V15.5306C35.1818 15.3347 35.1841 15.0005 35.3812 14.7032L38.6344 10.066H35.8032C35.6293 10.066 35.4902 9.94382 35.4902 9.76404" fill="#221F1F"/>
<path d="M15.7224 17.2707H14.0738C13.9161 17.2592 13.7909 17.1416 13.7793 16.9918V8.58169C13.7793 8.41345 13.9207 8.27977 14.097 8.27977H15.6343C15.7943 8.28668 15.9219 8.40883 15.9335 8.56095V9.66033H15.9636C16.3648 8.59783 17.1184 8.1023 18.134 8.1023C19.1659 8.1023 19.8105 8.59783 20.2742 9.66033C20.6731 8.59783 21.5797 8.1023 22.5513 8.1023C23.2423 8.1023 23.9982 8.38579 24.4597 9.0219C24.9814 9.72947 24.8747 10.7574 24.8747 11.6586L24.8724 16.9665C24.8724 17.1347 24.731 17.2707 24.5547 17.2707H22.9084C22.7437 17.2592 22.6116 17.1278 22.6116 16.9665V12.509C22.6116 12.1541 22.644 11.2691 22.5652 10.9326C22.4423 10.3679 22.0736 10.2089 21.5959 10.2089C21.1971 10.2089 20.7797 10.4739 20.6105 10.898C20.4412 11.3221 20.4574 12.0319 20.4574 12.509V16.9665C20.4574 17.1347 20.316 17.2707 20.1397 17.2707H18.4934C18.3264 17.2592 18.1966 17.1278 18.1966 16.9665L18.1943 12.509C18.1943 11.571 18.3496 10.1904 17.1786 10.1904C15.9937 10.1904 16.0401 11.5364 16.0401 12.509V16.9665C16.0401 17.1347 15.8987 17.2707 15.7224 17.2707Z" fill="#221F1F"/>
<path d="M46.1937 8.1023C48.64 8.1023 49.9641 10.1904 49.9641 12.8455C49.9641 15.4107 48.5009 17.4459 46.1937 17.4459C43.7914 17.4459 42.4836 15.3577 42.4836 12.7556C42.4836 10.1374 43.8077 8.1023 46.1937 8.1023M46.2076 9.81936C44.9926 9.81936 44.9161 11.465 44.9161 12.4906C44.9161 13.5185 44.8998 15.7127 46.1937 15.7127C47.4714 15.7127 47.5317 13.9426 47.5317 12.864C47.5317 12.1541 47.5015 11.3059 47.2859 10.6329C47.1004 10.0475 46.7317 9.81936 46.2076 9.81936" fill="#221F1F"/>
<path d="M53.1361 17.2707H51.4944C51.3298 17.2592 51.1976 17.1278 51.1976 16.9665L51.1953 8.55403C51.2092 8.39961 51.346 8.27977 51.513 8.27977H53.0411C53.1848 8.28668 53.3031 8.38348 53.3356 8.51485V9.80092H53.3657C53.8271 8.65084 54.4741 8.1023 55.6126 8.1023C56.3523 8.1023 57.0735 8.36735 57.5372 9.09335C57.9685 9.76635 57.9685 10.898 57.9685 11.7116V17.0057C57.95 17.1532 57.8131 17.2707 57.6508 17.2707H55.9975C55.8468 17.2592 55.7216 17.1486 55.7054 17.0057V12.4376C55.7054 11.518 55.812 10.172 54.6735 10.172C54.2724 10.172 53.9037 10.4393 53.7205 10.845C53.4886 11.3589 53.4585 11.8706 53.4585 12.4376V16.9665C53.4561 17.1347 53.3124 17.2707 53.1361 17.2707" fill="#221F1F"/>
<path d="M31.1702 13.2535V12.8985C29.9784 12.8985 28.7193 13.1521 28.7193 14.5488C28.7193 15.2563 29.088 15.7357 29.721 15.7357C30.1848 15.7357 30.5998 15.4522 30.8618 14.9913C31.1865 14.4243 31.1702 13.8919 31.1702 13.2535M32.8328 17.2477C32.7238 17.3445 32.5662 17.3514 32.4433 17.2868C31.896 16.8351 31.7986 16.6254 31.4972 16.1944C30.5929 17.1117 29.9529 17.3859 28.7796 17.3859C27.3929 17.3859 26.3124 16.5355 26.3124 14.8323C26.3124 13.5024 27.0382 12.5966 28.07 12.1541C28.9651 11.7623 30.2149 11.6931 31.1702 11.5848V11.3728C31.1702 10.9833 31.2004 10.5223 30.9708 10.1858C30.7691 9.88389 30.3842 9.75943 30.0456 9.75943C29.4172 9.75943 28.8561 10.0798 28.7193 10.7436C28.6915 10.8911 28.5825 11.0363 28.4341 11.0432L26.8341 10.8726C26.6996 10.8427 26.5512 10.7344 26.5883 10.5292C26.957 8.60244 28.7077 8.02163 30.2752 8.02163C31.0775 8.02163 32.1256 8.23367 32.7586 8.83752C33.5609 9.58197 33.4844 10.5753 33.4844 11.6563V14.21C33.4844 14.9775 33.8044 15.3139 34.1058 15.7288C34.2125 15.8763 34.2357 16.0538 34.1012 16.1644C33.765 16.4433 33.1667 16.9619 32.8375 17.2523L32.8328 17.2477" fill="#221F1F"/>
<path d="M9.55684 13.2535V12.8985C8.36498 12.8985 7.10588 13.1521 7.10588 14.5488C7.10588 15.2563 7.47457 15.7357 8.1076 15.7357C8.57136 15.7357 8.98642 15.4522 9.24844 14.9913C9.57307 14.4243 9.55684 13.8919 9.55684 13.2535M11.2194 17.2477C11.1104 17.3445 10.9528 17.3514 10.8299 17.2868C10.2826 16.8351 10.1852 16.6254 9.88379 16.1944C8.97946 17.1117 8.33948 17.3859 7.16617 17.3859C5.77953 17.3859 4.69897 16.5355 4.69897 14.8323C4.69897 13.5024 5.42476 12.5966 6.45662 12.1541C7.35167 11.7623 8.6015 11.6931 9.55684 11.5848V11.3728C9.55684 10.9833 9.58699 10.5223 9.35743 10.1858C9.15569 9.88389 8.77077 9.75943 8.43223 9.75943C7.80384 9.75943 7.24269 10.0798 7.10588 10.7436C7.07805 10.8911 6.96907 11.0363 6.82067 11.0432L5.2207 10.8726C5.08621 10.8427 4.93781 10.7344 4.97491 10.5292C5.3436 8.60244 7.09429 8.02163 8.66179 8.02163C9.46409 8.02163 10.5122 8.23367 11.1452 8.83752C11.9475 9.58197 11.871 10.5753 11.871 11.6563V14.21C11.871 14.9775 12.191 15.3139 12.4924 15.7288C12.5991 15.8763 12.6223 16.0538 12.4878 16.1644C12.1516 16.4433 11.5533 16.9619 11.2241 17.2523L11.2194 17.2477" fill="#221F1F"/>
</g>
<defs>
<clipPath id="clip0_2479_110497">
<rect width="53.3333" height="16" fill="white" transform="translate(4.66675 8)"/>
</clipPath>
</defs>
</svg>
