<svg width="64" height="64" viewBox="0 0 64 64" fill="none" xmlns="http://www.w3.org/2000/svg">
<path d="M47.2731 43.6646V37.6556L37.3561 37.4308L33.4394 35.1136C32.7477 34.7073 31.5286 34.7419 30.7246 35.2001L27.171 37.1973L17.7642 36.9812V43.0075C17.7642 43.2582 17.9198 43.5003 18.2224 43.6819L31.5892 51.5843C32.2808 51.9907 33.4999 51.9561 34.304 51.4979L46.59 44.5724C47.0569 44.313 47.2817 43.9672 47.2644 43.6473L47.2731 43.6646Z" fill="#6CE9A6"/>
<path d="M34.6488 36.0566L32.2106 37.4314L27.3775 37.319L27.1872 37.4314L22.8037 37.3363V43.2501C22.8037 43.5009 22.9593 43.743 23.2619 43.9245L35.4269 51.118L46.6062 44.8237C47.0731 44.5643 47.2979 44.2185 47.2806 43.8986V37.8896L37.3636 37.6648L34.6488 36.0566V36.0566Z" fill="white"/>
<path d="M32.8173 52.2682C32.2899 52.2682 31.7884 52.1558 31.3994 51.931L18.0326 44.0286C17.6176 43.7778 17.3841 43.4233 17.3755 43.0256V37.0166C17.3755 36.7832 17.5657 36.6016 17.7991 36.6016L27.0763 36.8091L30.5348 34.8638C31.4685 34.3364 32.8346 34.3018 33.6473 34.7859L37.4775 37.0512L47.3686 37.276C47.5415 37.276 47.6712 37.423 47.6712 37.5873V43.6654C47.6971 44.1496 47.3772 44.6165 46.7979 44.9364L34.5119 51.8619C34.0191 52.1385 33.4052 52.2769 32.8173 52.2769V52.2682ZM18.1623 37.3884V43.017C18.1623 43.1726 18.3352 43.2936 18.4303 43.3542L31.7971 51.2566C32.0565 51.4123 32.4196 51.4901 32.8 51.4901L32.7827 44.0804L43.5384 39.5067L46.8757 38.0369L37.2441 37.8207L33.241 35.4517C32.6703 35.1145 31.5982 35.1491 30.9152 35.5382L27.2752 37.5959L18.1623 37.3884V37.3884Z" fill="#140F0C"/>
<path d="M31.5982 45.5529L18.2314 37.6505C17.5398 37.2441 17.6349 36.5438 18.4389 36.0855L30.725 29.1601C31.5377 28.7018 32.7481 28.6672 33.4398 29.0736L46.8066 36.9761C47.4983 37.3824 47.4032 38.0828 46.5991 38.541L34.3131 45.4665C33.5003 45.9247 32.2899 45.9593 31.5982 45.5529V45.5529Z" fill="#6CE9A6"/>
<path d="M30.7931 30.8886L18.5071 37.814C18.4034 37.8746 18.3083 37.9351 18.2305 38.0043L31.5367 45.8722C32.2284 46.2785 33.4475 46.2439 34.2516 45.7857L46.5376 38.8602C46.6413 38.7997 46.7364 38.7392 46.8142 38.67L33.508 30.8021C32.8163 30.3958 31.5972 30.4303 30.7931 30.8886V30.8886Z" fill="white"/>
<path d="M32.817 46.2261C32.2895 46.2261 31.7881 46.1137 31.4077 45.8889L18.0409 37.9864C17.6172 37.7357 17.3838 37.3725 17.3838 36.9575C17.3838 36.4907 17.7037 36.0497 18.257 35.7384L30.5431 28.813C31.4768 28.2856 32.8429 28.251 33.6556 28.7352L47.0224 36.6376C47.446 36.8884 47.6795 37.2515 47.6795 37.6665C47.6795 38.1334 47.3596 38.5743 46.8062 38.8856L34.5202 45.8111C34.0274 46.0877 33.4135 46.2261 32.8256 46.2261H32.817ZM31.8054 45.2145C32.376 45.5517 33.4481 45.5085 34.1312 45.128L46.4172 38.2026C46.763 38.0037 46.8927 37.7962 46.8927 37.6579C46.8927 37.4936 46.7198 37.3725 46.6247 37.312L33.2579 29.4096C32.6873 29.0724 31.6238 29.1069 30.9321 29.496L18.6461 36.4215C18.3003 36.6203 18.1706 36.8278 18.1706 36.9662C18.1706 37.1305 18.3435 37.2515 18.4386 37.312L31.8054 45.2145Z" fill="#140F0C"/>
<path d="M32.0314 42.214L23.8436 37.3722C23.4199 37.1215 23.4804 36.6892 23.9733 36.4125L31.4953 32.176C31.9881 31.8993 32.7403 31.8734 33.164 32.1241L41.3518 36.9659C41.7754 37.2166 41.7149 37.6489 41.2221 37.9256L33.7 42.1708C33.2072 42.4474 32.455 42.4734 32.0314 42.2227V42.214Z" fill="#6CE9A6"/>
<path d="M31.4954 36.6369L26.8179 39.2739L32.0314 42.3519C32.4551 42.6027 33.1986 42.5767 33.7001 42.3001L38.3776 39.663L33.1641 36.585C32.7404 36.3343 31.9968 36.3602 31.4954 36.6369V36.6369Z" fill="white"/>
<path d="M32.7747 42.777C32.4288 42.777 32.0916 42.6992 31.8323 42.5435L23.6445 37.7018C23.3419 37.5202 23.1689 37.2435 23.1689 36.9409C23.1689 36.6037 23.3937 36.2838 23.7828 36.0677L31.3135 31.8225C31.936 31.468 32.8179 31.4507 33.3713 31.7706L41.5591 36.6124C41.8617 36.7939 42.0346 37.0706 42.0346 37.3732C42.0346 37.7104 41.8098 38.0303 41.4207 38.2465L33.89 42.483C33.5615 42.6646 33.1638 42.7597 32.7747 42.7597V42.777ZM32.4202 32.3326C32.1608 32.3326 31.8928 32.3931 31.6853 32.5055L24.1546 36.7507C23.9817 36.8458 23.9384 36.9409 23.9384 36.9496C23.9384 36.9496 23.9644 36.9928 24.0335 37.0274L32.2213 41.8692C32.524 42.0507 33.1205 42.0248 33.4923 41.8173L41.023 37.5807C41.1959 37.4856 41.2392 37.3905 41.2392 37.3732C41.2392 37.3732 41.2132 37.33 41.144 37.2954L32.9563 32.4536C32.8179 32.3758 32.6277 32.3326 32.4202 32.3326V32.3326Z" fill="#140F0C"/>
<path d="M23.8348 37.3838L25.2008 38.1879L31.4865 34.643C31.9793 34.3663 32.7315 34.3404 33.1552 34.5911L39.9769 38.6288L41.2133 37.9285C41.7061 37.6518 41.7666 37.2195 41.343 36.9688L33.1552 32.127C32.7315 31.8763 31.988 31.9022 31.4865 32.1789L23.9645 36.4241C23.4716 36.7008 23.4111 37.1331 23.8348 37.3838V37.3838Z" fill="#6CE9A6"/>
<path d="M39.9768 39.0864L32.9563 34.9363C32.6536 34.7547 32.0571 34.7807 31.6853 34.9882L25.2008 38.6455L23.6445 37.7203C23.3419 37.5388 23.1689 37.2621 23.1689 36.9595C23.1689 36.6223 23.3937 36.3024 23.7828 36.0862L31.3135 31.841C31.936 31.4865 32.8179 31.4692 33.3713 31.7891L41.5591 36.6309C41.8617 36.8125 42.0346 37.0892 42.0346 37.3918C42.0346 37.729 41.8098 38.0489 41.4207 38.265L39.9855 39.0691L39.9768 39.0864ZM32.4202 34.0285C32.766 34.0285 33.0946 34.1063 33.354 34.2619L39.9855 38.1872L41.023 37.5993C41.1959 37.5042 41.2392 37.4091 41.2392 37.3918C41.2392 37.3918 41.2132 37.3485 41.144 37.314L32.9563 32.4722C32.8179 32.3944 32.6277 32.3511 32.4202 32.3511V34.0285V34.0285Z" fill="#140F0C"/>
<path d="M37.7982 16.5707L32.6451 6.82659C32.6451 6.82659 32.5933 6.8093 32.5933 6.84388V19.5881C32.5933 19.5881 32.6192 19.6227 32.6365 19.6141L37.7895 16.6139C37.7895 16.6139 37.8068 16.588 37.7982 16.5793V16.5707Z" fill="#15100C"/>
<path d="M32.6367 20.0643L32.2131 19.8395L32.1958 19.5888L32.3341 6.74078L32.8097 6.36035L32.9826 6.64567L38.2307 16.6232L37.98 16.9431L32.6281 20.0643H32.6367ZM32.9826 8.29706V18.9576L37.2883 16.4503L32.9826 8.30571V8.29706Z" fill="#16110D"/>
<path d="M27.3896 16.5707L32.5427 6.82659C32.5427 6.82659 32.5945 6.8093 32.5945 6.84388V19.5881C32.5945 19.5881 32.5686 19.6227 32.5513 19.6141L27.3983 16.6139C27.3983 16.6139 27.381 16.588 27.3896 16.5793V16.5707Z" fill="#6CE9A6"/>
<path d="M28.7983 17.4645L32.4815 19.6173C32.4815 19.6173 32.5248 19.6173 32.5248 19.5914V10.418L28.7983 17.4645V17.4645Z" fill="white"/>
<path d="M32.5772 20.0654L32.3524 19.953L26.9399 16.6588L27.0437 16.3908L32.5944 5.89453L33.044 6.74184L32.9835 6.83695V19.8146L32.5772 20.0654ZM27.891 16.4513L32.1967 18.9587V8.29813L27.891 16.4427V16.4513Z" fill="#16110D"/>
<path d="M37.7566 16.7034L32.6554 24.5453C32.6554 24.5453 32.6035 24.554 32.6035 24.528V19.6603C32.6035 19.6603 32.6035 19.643 32.6208 19.6344L37.722 16.6602C37.722 16.6602 37.7738 16.6774 37.7566 16.7034V16.7034Z" fill="#15100C"/>
<path d="M32.5951 25.2877L32.4568 24.3799L32.2061 24.5269V19.4517L32.3963 19.3133L37.7827 16.1748L38.241 16.633L38.0767 16.927L32.5951 25.305V25.2877ZM32.9842 19.8667V23.2991L36.5896 17.7657L32.9842 19.8667Z" fill="#16110D"/>
<path d="M27.442 16.7034L32.5432 24.5453C32.5432 24.5453 32.595 24.554 32.595 24.528V19.6603C32.595 19.6603 32.595 19.643 32.5777 19.6344L27.4766 16.6602C27.4766 16.6602 27.4247 16.6774 27.442 16.7034V16.7034Z" fill="#6CE9A6"/>
<path d="M32.5944 25.2877L32.214 24.7517L26.9399 16.659L27.3636 16.1748L27.6662 16.3218L32.9662 19.4084L32.9835 19.6592L32.8279 24.1292L32.5944 25.2877V25.2877ZM28.6 17.7657L32.2054 23.2991V19.8667L28.6 17.7657V17.7657Z" fill="#16110D"/>
<path d="M32.8281 19.8216V19.1559L37.3327 16.5361V17.2019L32.8281 19.8216Z" fill="#6CE9A6"/>
<path d="M37.2451 56.5242C37.5477 56.6971 37.5477 56.9825 37.2451 57.1554C36.9425 57.3283 36.4583 57.3283 36.1557 57.1554C35.8531 56.9825 35.8531 56.6971 36.1557 56.5242C36.4583 56.3513 36.9425 56.3513 37.2451 56.5242Z" fill="#16110D"/>
<path d="M40.0893 54.8807C40.3919 55.0536 40.3919 55.3389 40.0893 55.5118C39.7867 55.6847 39.3025 55.6847 38.9999 55.5118C38.6973 55.3389 38.6973 55.0536 38.9999 54.8807C39.3025 54.7077 39.7867 54.7077 40.0893 54.8807Z" fill="#16110D"/>
<path d="M42.934 53.2381C43.2366 53.411 43.2366 53.6963 42.934 53.8693C42.6314 54.0422 42.1472 54.0422 41.8446 53.8693C41.542 53.6963 41.542 53.411 41.8446 53.2381C42.1472 53.0652 42.6314 53.0652 42.934 53.2381Z" fill="#16110D"/>
<path d="M48.6152 49.9539C48.9178 50.1268 48.9178 50.4121 48.6152 50.5851C48.3126 50.758 47.8284 50.758 47.5258 50.5851C47.2232 50.4121 47.2232 50.1268 47.5258 49.9539C47.8284 49.781 48.3126 49.781 48.6152 49.9539Z" fill="#16110D"/>
<path d="M31.5566 56.5242C31.8592 56.6971 31.8592 56.9825 31.5566 57.1554C31.254 57.3283 30.7698 57.3283 30.4672 57.1554C30.1646 56.9825 30.1646 56.6971 30.4672 56.5242C30.7698 56.3513 31.254 56.3513 31.5566 56.5242Z" fill="#16110D"/>
<path d="M34.4008 54.8807C34.7034 55.0536 34.7034 55.3389 34.4008 55.5118C34.0982 55.6847 33.614 55.6847 33.3114 55.5118C33.0088 55.3389 33.0088 55.0536 33.3114 54.8807C33.614 54.7077 34.0982 54.7077 34.4008 54.8807Z" fill="#16110D"/>
<path d="M37.2451 53.2381C37.5477 53.411 37.5477 53.6963 37.2451 53.8693C36.9425 54.0422 36.4583 54.0422 36.1557 53.8693C35.8531 53.6963 35.8531 53.411 36.1557 53.2381C36.4583 53.0652 36.9425 53.0652 37.2451 53.2381Z" fill="#16110D"/>
<path d="M40.0893 51.5945C40.3919 51.7675 40.3919 52.0528 40.0893 52.2257C39.7867 52.3986 39.3025 52.3986 38.9999 52.2257C38.6973 52.0528 38.6973 51.7675 38.9999 51.5945C39.3025 51.4216 39.7867 51.4216 40.0893 51.5945Z" fill="#16110D"/>
<path d="M45.7802 48.3104C46.0828 48.4833 46.0828 48.7686 45.7802 48.9415C45.4776 49.1144 44.9934 49.1144 44.6908 48.9415C44.3882 48.7686 44.3882 48.4833 44.6908 48.3104C44.9934 48.1374 45.4776 48.1374 45.7802 48.3104Z" fill="#16110D"/>
<path d="M46.0219 51.6844C46.3245 51.8573 46.3245 52.1426 46.0219 52.3155C45.7193 52.4885 45.2351 52.4885 44.9325 52.3155C44.6299 52.1426 44.6299 51.8573 44.9325 51.6844C45.2351 51.5115 45.7193 51.5115 46.0219 51.6844Z" fill="#16110D"/>
<path d="M43.185 50.0398C43.4876 50.2128 43.4876 50.4981 43.185 50.671C42.8824 50.8439 42.3982 50.8439 42.0956 50.671C41.793 50.4981 41.793 50.2128 42.0956 50.0398C42.3982 49.8669 42.8824 49.8669 43.185 50.0398Z" fill="#16110D"/>
<path d="M48.6152 46.6678C48.9178 46.8407 48.9178 47.126 48.6152 47.2989C48.3126 47.4719 47.8284 47.4719 47.5258 47.2989C47.2232 47.126 47.2232 46.8407 47.5258 46.6678C47.8284 46.4949 48.3126 46.4949 48.6152 46.6678Z" fill="#16110D"/>
<path d="M28.7119 54.8807C29.0145 55.0536 29.0145 55.3389 28.7119 55.5118C28.4093 55.6847 27.9251 55.6847 27.6225 55.5118C27.3199 55.3389 27.3199 55.0536 27.6225 54.8807C27.9251 54.7077 28.4093 54.7077 28.7119 54.8807Z" fill="#16110D"/>
<path d="M31.5566 53.2381C31.8592 53.411 31.8592 53.6963 31.5566 53.8693C31.254 54.0422 30.7698 54.0422 30.4672 53.8693C30.1646 53.6963 30.1646 53.411 30.4672 53.2381C30.7698 53.0652 31.254 53.0652 31.5566 53.2381Z" fill="#16110D"/>
<path d="M25.8676 53.2381C26.1702 53.411 26.1702 53.6963 25.8676 53.8693C25.565 54.0422 25.0808 54.0422 24.7782 53.8693C24.4756 53.6963 24.4756 53.411 24.7782 53.2381C25.0808 53.0652 25.565 53.0652 25.8676 53.2381Z" fill="#16110D"/>
<path d="M28.7119 51.5945C29.0145 51.7675 29.0145 52.0528 28.7119 52.2257C28.4093 52.3986 27.9251 52.3986 27.6225 52.2257C27.3199 52.0528 27.3199 51.7675 27.6225 51.5945C27.9251 51.4216 28.4093 51.4216 28.7119 51.5945Z" fill="#16110D"/>
<path d="M22.9975 51.5779C23.3001 51.7509 23.3001 52.0362 22.9975 52.2091C22.6949 52.382 22.2107 52.382 21.9081 52.2091C21.6055 52.0362 21.6055 51.7509 21.9081 51.5779C22.2107 51.405 22.6949 51.405 22.9975 51.5779Z" fill="#16110D"/>
<path d="M25.8422 49.9344C26.1448 50.1073 26.1448 50.3926 25.8422 50.5655C25.5396 50.7385 25.0554 50.7385 24.7528 50.5655C24.4502 50.3926 24.4502 50.1073 24.7528 49.9344C25.0554 49.7615 25.5396 49.7615 25.8422 49.9344Z" fill="#16110D"/>
<path d="M20.1513 49.9344C20.4539 50.1073 20.4539 50.3926 20.1513 50.5655C19.8487 50.7385 19.3645 50.7385 19.0619 50.5655C18.7593 50.3926 18.7593 50.1073 19.0619 49.9344C19.3645 49.7615 19.8487 49.7615 20.1513 49.9344Z" fill="#16110D"/>
<path d="M22.9975 48.2938C23.3001 48.4667 23.3001 48.752 22.9975 48.9249C22.6949 49.0978 22.2107 49.0978 21.9081 48.9249C21.6055 48.752 21.6055 48.4667 21.9081 48.2938C22.2107 48.1208 22.6949 48.1208 22.9975 48.2938Z" fill="#16110D"/>
<path d="M17.3164 48.2938C17.619 48.4667 17.619 48.752 17.3164 48.9249C17.0137 49.0978 16.5296 49.0978 16.227 48.9249C15.9243 48.752 15.9243 48.4667 16.227 48.2938C16.5296 48.1208 17.0137 48.1208 17.3164 48.2938Z" fill="#16110D"/>
<path d="M20.1513 46.6502C20.4539 46.8231 20.4539 47.1084 20.1513 47.2814C19.8487 47.4543 19.3645 47.4543 19.0619 47.2814C18.7593 47.1084 18.7593 46.8231 19.0619 46.6502C19.3645 46.4773 19.8487 46.4773 20.1513 46.6502Z" fill="#16110D"/>
<path d="M17.3164 45.0076C17.619 45.1805 17.619 45.4659 17.3164 45.6388C17.0137 45.8117 16.5296 45.8117 16.227 45.6388C15.9243 45.4659 15.9243 45.1805 16.227 45.0076C16.5296 44.8347 17.0137 44.8347 17.3164 45.0076Z" fill="#16110D"/>
</svg>
