<svg width="94" height="88" viewBox="0 0 94 88" fill="none" xmlns="http://www.w3.org/2000/svg">
<path d="M79.6035 10.6954C66.9717 5.77403 47.6243 10.4953 30.9951 23.819C14.366 37.1027 5.49173 54.9477 7.49043 68.3514L5.21191 70.1919L11.6077 78.1941C22.041 91.2778 47.7043 88.1969 68.8505 71.2722C90.0367 54.3475 98.7111 30.0208 88.2379 16.8971L81.842 8.8949L79.5635 10.7354L79.6035 10.6954Z" fill="#1BF3A4"/>
<path d="M69.3303 71.8332C47.8643 88.9979 21.6813 92.0788 10.9683 78.635L4.09277 70.0326L6.65112 67.9921C4.81232 54.0282 14.3661 36.0632 30.5156 23.1796C46.6651 10.2561 66.2523 4.93457 79.4437 9.77592L82.0021 7.73535L88.8776 16.3377C99.5906 29.7415 90.8363 54.6284 69.3303 71.7931V71.8332ZM6.29135 70.2727L12.1675 77.6348C22.3209 90.3583 47.5445 87.1974 68.331 70.5928C89.1175 53.9882 97.7918 30.0616 87.5984 17.338L81.7223 9.97597L79.6836 11.5764L79.2439 11.4164C66.5322 6.455 47.3047 11.6965 31.435 24.42C15.5253 37.1435 6.21141 54.7484 8.2101 68.2321L8.29005 68.6723L6.25137 70.2727H6.29135Z" fill="#17273F"/>
<path d="M81.8824 8.85676C92.3156 21.9404 83.6412 46.3072 62.495 63.2319C41.3088 80.1566 15.6854 83.2774 5.25224 70.1538C-5.18097 57.0301 3.49339 32.7034 24.6396 15.7787C45.8258 -1.14602 71.4492 -4.26688 81.8824 8.85676Z" fill="#1BF3A4"/>
<path d="M83.3614 10.7353C93.7946 23.8189 85.1202 48.1857 63.974 65.1104C42.7878 82.0351 17.1645 85.1559 6.73124 72.0323C-3.70197 58.9486 4.97238 34.5819 26.1186 17.6572C47.2649 0.732478 72.9282 -2.34838 83.3614 10.7353Z" fill="#C5FFE9"/>
<path d="M62.9345 63.8305C41.4685 80.9953 15.2856 84.0761 4.57252 70.6324C-6.14051 57.2287 2.6138 32.3418 24.1198 15.177C45.5858 -1.98776 71.7688 -5.06862 82.4818 8.37512C93.1949 21.7788 84.4406 46.6658 62.9345 63.8305ZM25.0792 16.4174C4.2927 33.062 -4.38166 56.9486 5.81171 69.6721C15.9651 82.3957 41.1887 79.2348 61.9752 62.6302C82.7617 46.0256 91.436 22.0989 81.2426 9.3754C71.0892 -3.34814 45.8656 -0.18726 25.0792 16.4174Z" fill="#17273F"/>
<path d="M73.2871 13.978C81.162 23.8208 73.8068 42.786 56.8978 56.3098C39.9888 69.8335 19.9219 72.7944 12.047 62.9516C4.17212 53.1089 11.5273 34.1436 28.4363 20.6199C45.3453 7.09612 65.4123 4.13529 73.2871 13.978Z" fill="#1BF3A4"/>
<path d="M57.4178 56.9094C40.189 70.6732 19.6024 73.594 11.4477 63.4312C3.33298 53.2683 10.7282 33.7829 27.957 20.0191C45.1857 6.25529 65.7724 3.33448 73.927 13.4973C82.0418 23.6601 74.6466 43.1455 57.4178 56.9094ZM28.9563 21.2194C12.4071 34.4631 5.13182 52.9483 12.6869 62.4309C20.282 71.9135 39.9092 68.9127 56.4184 55.669C72.9677 42.4253 80.2429 23.9402 72.6879 14.4576C65.0928 4.97494 45.4656 7.97577 28.9563 21.2194Z" fill="#17273F"/>
<path d="M28.4366 20.6189C11.5276 34.1427 4.21238 53.0679 12.0473 62.9506C12.7668 63.8309 13.6063 64.5911 14.4857 65.2713C9.76876 54.9084 17.164 38.1438 32.5539 25.8203C47.9439 13.4969 65.9322 9.97594 74.9663 16.8579C74.4866 15.8176 73.967 14.8573 73.2475 13.9771C65.3726 4.13432 45.3056 7.09514 28.3966 20.6189H28.4366Z" fill="#1BF3A4"/>
<path d="M75.646 18.4177L74.5267 17.4574C65.6925 10.7355 47.8641 14.5766 33.0737 26.3799C18.2833 38.2232 10.6083 54.7478 15.2053 64.8706L15.9648 66.511L14.0461 65.8308C12.9668 64.9906 12.1673 64.2304 11.4877 63.3902C3.37302 53.2273 10.7682 33.7419 27.997 19.9781C45.2258 6.21427 65.8124 3.29346 73.9671 13.4563C74.6466 14.2965 75.2063 15.2568 75.7659 16.4971L75.686 18.3777L75.646 18.4177ZM28.9164 21.2184C12.3672 34.4621 5.09191 52.9473 12.647 62.4299C12.647 62.4299 12.687 62.5099 12.7269 62.5499C10.2086 51.7069 17.8436 36.5827 32.0743 25.2196C46.3051 13.8564 62.7344 9.73525 72.7279 14.5766C72.7279 14.5766 72.6879 14.4966 72.6479 14.4566C65.0529 4.97393 45.4257 7.97477 28.9164 21.2184Z" fill="#17273F"/>
<path d="M23.6801 25.0596L27.7175 30.101L20.4422 38.5833L14.9258 48.8662L13.127 59.069L14.526 65.2307L10.6086 61.0696L8.92969 53.7075L10.0889 45.7053L14.6859 35.8226L22.241 26.2199L23.6801 25.0596Z" fill="#191410"/>
<path d="M66.1725 34.3818C66.4124 32.3012 66.0926 30.6208 65.2132 29.3804H65.2931L62.5749 25.9795L59.4569 26.8997C58.6974 26.8997 57.8579 26.9798 56.9785 27.1398C53.8605 27.66 51.0224 28.8603 48.4641 30.7808C45.9057 32.7014 43.1475 35.9423 40.2694 40.5035L29.0367 42.3841C30.5157 40.5035 32.4345 39.1431 34.8729 38.3429L36.5118 31.6211L33.9935 28.4602L30.036 34.7019H30.076C29.5164 35.142 28.9568 35.5421 28.3971 36.0223C26.0387 38.0228 24.1599 40.5035 22.6808 43.4243L21.2418 43.6644L21.4017 43.0642L20.2424 41.5838L15.8853 44.7047L19.8427 49.6661L20.3624 47.5455L21.2418 47.3854C20.962 48.3457 20.842 49.226 20.842 50.0662C19.9226 50.3863 19.2431 50.6664 19.2431 50.6664L22.1612 54.3074C23.6002 55.8278 25.8788 56.3479 29.0367 55.7878C32.1547 55.2676 35.1127 53.9873 37.9109 51.9867C40.7091 49.9461 43.3074 47.0653 45.7059 43.3443L57.738 41.3438C56.8586 42.4241 55.7393 43.4243 54.3402 44.4246C53.4608 45.0648 52.5014 45.5449 51.5021 45.9851L51.1423 45.1448L45.3861 50.5463L47.9044 53.7072C51.9018 52.5469 55.2596 50.7864 58.0978 48.5058C60.896 46.1851 63.0945 43.4243 64.6935 40.2235L69.9301 39.3432L71.4091 35.3821L68.8908 32.2212L66.2924 34.5019L66.1725 34.3818ZM34.3133 47.5855C33.234 48.3057 32.1547 48.7458 31.1553 48.9459C30.036 49.1459 29.1566 48.9459 28.4771 48.5058C27.7975 48.0256 27.4777 47.2654 27.4777 46.2651L37.4312 44.6247C36.4319 45.905 35.4325 46.9053 34.3133 47.6255V47.5855ZM59.5369 37.2226L48.3441 39.1031C49.4634 37.3827 50.6227 36.1023 51.8219 35.2221C53.0211 34.3418 54.2603 33.8217 55.5395 33.5816C56.9785 33.3415 58.0578 33.5816 58.8173 34.2218C59.5768 34.902 59.8167 35.9023 59.5768 37.2226H59.5369Z" fill="#1BF3A4"/>
<path d="M70.3698 39.9037L65.0932 40.7839C63.4943 43.9448 61.2557 46.6655 58.4975 48.9462C55.6594 51.3068 52.1017 53.1073 48.0643 54.3077L47.5447 54.4677L44.2268 50.3466L51.3422 43.7047L51.8219 44.825C52.5814 44.4649 53.221 44.0648 53.8206 43.6647C54.4202 43.2646 54.9398 42.8245 55.4595 42.3844L46.1056 43.9448C43.7071 47.6258 41.0689 50.5066 38.2707 52.5072C35.3926 54.5877 32.3146 55.9081 29.0767 56.4683C25.6789 57.0284 23.1205 56.4683 21.5216 54.7478L18.4836 50.9867L18.9633 49.8264L14.686 44.5049L20.3224 40.5038L22.1212 42.7044C23.6002 39.8236 25.519 37.383 27.8375 35.4224C28.3172 35.0223 28.7969 34.6622 29.3165 34.3021L33.8735 27.1001L37.3113 31.4213L35.4725 38.9434L35.0728 39.0634C33.5937 39.5436 32.3146 40.2638 31.1953 41.184L39.7897 39.7436C42.6278 35.2624 45.3861 32.0215 47.9844 30.1009C50.6626 28.1404 53.6207 26.86 56.8586 26.2999C57.738 26.1398 58.5775 26.0598 59.337 26.0598L62.8547 25.0195L65.8927 28.8606L66.3724 29.8609C66.7322 30.6611 66.932 31.5814 67.012 32.5816L68.8508 30.9412L72.1686 35.1023L70.3698 39.9037ZM64.0539 39.3835L69.2505 38.5033L70.4098 35.3824L68.6909 33.2218L65.2132 36.3027L65.453 34.3021C65.6529 32.4216 65.3731 30.9412 64.6135 29.8209L64.0139 28.9406L62.335 26.86L59.5368 27.6603C58.8173 27.6603 58.0178 27.7403 57.1784 27.8603C54.2203 28.3405 51.4621 29.5408 48.9837 31.3413C46.5053 33.1818 43.8271 36.3827 40.9889 40.8239L40.789 41.104L27.2379 43.3446L28.4771 41.7442C29.9561 39.8236 31.8749 38.4633 34.2733 37.583L35.7124 31.6614L34.1134 29.6608L31.1953 34.2621L31.595 34.4622L30.5557 35.2624C29.9961 35.6625 29.4364 36.0626 28.9168 36.5027C26.6383 38.4233 24.7995 40.8239 23.4004 43.6647L23.2405 44.0248L20.2424 44.545L20.5622 43.1446L20.0825 42.5444L17.6841 45.0651L19.4429 47.7859L19.6828 46.7056L22.2811 46.2654L21.9613 47.4658C21.7215 48.306 21.6015 49.0662 21.5616 49.9865V50.5066L20.4423 50.9067L22.6808 53.6675C23.8801 54.9478 25.9587 55.348 28.7968 54.8678C31.7549 54.3877 34.6331 53.1473 37.3113 51.1868C39.9896 49.2263 42.5879 46.3855 44.9064 42.7445L45.1062 42.4644L59.5368 40.0637L58.2177 41.6642C57.2983 42.7845 56.0991 43.8648 54.66 44.9051C53.8206 45.5052 52.8612 46.0254 51.702 46.5455L50.9824 46.8656L50.7426 46.3054L46.3454 50.4266L48.0643 52.5872C51.7019 51.4669 54.9398 49.7864 57.4582 47.6658C60.1764 45.4252 62.2951 42.7445 63.8141 39.6636L63.974 39.3035L64.0539 39.3835ZM60.2164 37.9031L46.7052 40.1437L47.6646 38.6633C48.8238 36.8628 50.063 35.5024 51.3422 34.5822C52.6214 33.6219 54.0204 33.0618 55.3796 32.8217C57.0585 32.5416 58.3776 32.8217 59.297 33.6619C60.2564 34.5422 60.5762 35.7825 60.2963 37.383L60.2164 37.9431V37.9031ZM50.063 37.9831L58.8173 36.5027C58.8573 35.7425 58.6574 35.1824 58.2577 34.7822C57.698 34.2621 56.8186 34.1421 55.6594 34.3021C54.5001 34.5022 53.3809 34.9823 52.2616 35.7825C51.5421 36.3027 50.7825 37.0629 50.063 37.9431V37.9831ZM35.5525 47.6658C35.3126 47.8659 35.0328 48.0659 34.753 48.226C33.5937 49.0262 32.3945 49.5063 31.2752 49.7064C29.9561 49.9064 28.8368 49.7064 27.9974 49.1462C27.3578 48.7061 26.6383 47.8659 26.6782 46.2654V45.6253L39.2301 43.5447L38.0308 45.1451C37.2314 46.1854 36.3919 47.0256 35.5125 47.7458L35.5525 47.6658ZM33.9135 46.9456C34.4332 46.6255 34.9129 46.2254 35.3926 45.7453L28.3571 46.9056C28.4771 47.4258 28.7569 47.7058 28.9567 47.8259C29.4764 48.186 30.156 48.306 31.0754 48.146C31.9948 47.9859 32.9542 47.5858 33.9135 46.9056V46.9456Z" fill="#17273F"/>
<path d="M55.1797 38.0644L43.1476 40.0649C40.7491 43.786 38.1508 46.6668 35.3527 48.7073C32.5545 50.7479 29.5964 51.9882 26.5184 52.5084C23.3604 53.0285 21.0819 52.5084 19.6429 50.988C18.2038 49.4675 17.924 47.1869 18.7634 44.106L15.9253 44.5862L17.4043 40.6251L20.2425 40.1449C21.6815 37.1841 23.6003 34.7434 25.9588 32.7429C28.3172 30.7423 31.0354 29.2619 34.0735 28.3417L32.4345 35.0635C30.0361 35.8638 28.0774 37.1841 26.5983 39.1047L37.831 37.2241C40.7092 32.6629 43.4274 29.422 46.0257 27.5014C48.584 25.5809 51.4222 24.3806 54.5402 23.8604C58.0179 23.3003 60.5762 23.7804 62.1752 25.3808C63.8141 26.9813 64.2139 29.502 63.4544 32.9429L68.8109 32.0627L67.3318 36.0238L62.0952 36.904C60.4963 40.1049 58.3377 42.8657 55.4995 45.1863C52.7014 47.507 49.3036 49.2275 45.3062 50.3878L47.145 43.4259C48.7839 42.8657 50.3029 42.1055 51.742 41.1452C53.1411 40.1449 54.3003 39.1447 55.1398 38.0644H55.1797ZM24.9994 43.1058C24.9994 44.106 25.3192 44.8663 25.9987 45.3464C26.6783 45.8265 27.5577 45.9866 28.677 45.7865C29.6763 45.6265 30.7556 45.1863 31.8349 44.4261C32.9142 43.7059 33.9536 42.7057 34.9529 41.4253L24.9994 43.0658V43.1058ZM57.0585 34.0633C57.2984 32.7429 57.0585 31.7426 56.299 31.0624C55.5395 30.3822 54.4602 30.1822 53.0211 30.4222C51.742 30.6223 50.5028 31.1825 49.3036 32.0627C48.1043 32.9429 46.9451 34.2233 45.8258 35.9438L57.0185 34.0633H57.0585Z" fill="#1BF3A4"/>
<path d="M56.1791 39.7031L44.1469 41.7037C41.7485 45.4247 39.1502 48.3055 36.352 50.3461C33.5538 52.3866 30.5957 53.627 27.5177 54.1471C24.3598 54.6673 22.6409 53.867 21.2019 52.3466C19.7628 50.8262 18.9233 48.8256 19.7628 45.7848L17.7241 45.1446L18.4037 42.3438L21.2418 41.8637C22.6809 38.9029 24.5996 36.4622 26.9581 34.4616C29.3166 32.4611 31.755 31.7009 34.833 30.7406L33.4339 36.7823C31.0354 37.5825 29.0767 38.9029 27.5977 40.8234L38.8304 38.9429C41.7085 34.3816 44.4267 31.1407 47.025 29.2202C49.5834 27.2997 52.4215 26.0993 55.5395 25.5792C59.0172 25.019 61.5756 25.4991 63.1745 27.0996C64.8135 28.7 65.2132 31.2207 64.4537 34.6617L69.5704 34.3016L68.3712 37.7025L63.1346 38.5828C61.5356 41.7837 59.377 44.5444 56.5389 46.8651C53.7407 49.1857 51.2223 50.3861 47.2649 51.5864L48.2243 45.1446C49.8632 44.5845 51.3822 43.8242 52.8213 42.864C54.2204 41.8637 55.3796 40.8634 56.2191 39.7831L56.1791 39.7031ZM25.9987 44.7445C25.9987 45.7448 26.3185 46.505 26.9981 46.9851C27.6776 47.4653 28.5571 47.6253 29.6763 47.4252C30.6757 47.2652 31.755 46.8251 32.8343 46.0649C33.9136 45.3447 34.9529 44.3444 35.9522 43.064L25.9987 44.7045V44.7445ZM58.0579 35.702C58.2977 34.3816 58.0579 33.3813 57.2984 32.7012C56.5389 32.021 55.4596 31.8209 54.0205 32.061C52.7413 32.261 51.5021 32.8212 50.3029 33.7014C49.1037 34.5817 47.9445 35.862 46.8252 37.5825L58.0179 35.702H58.0579Z" fill="#C5FFE9"/>
<path d="M67.8514 36.7432L62.5748 37.6234C60.9758 40.7843 58.7373 43.505 55.9791 45.7857C53.101 48.1063 49.5833 49.9468 45.5459 51.1472L45.0262 51.3072L44.2667 50.3069L45.1861 47.9063L46.5452 42.7848L46.945 42.6648C48.504 42.1447 49.983 41.4245 51.3421 40.4642C51.9417 40.0641 52.4614 39.624 52.981 39.1838L43.6271 40.7443C41.2287 44.4253 38.5904 47.2661 35.7922 49.3067C32.9141 51.3872 29.8361 52.7076 26.5982 53.2678C23.2004 53.8279 20.6421 53.2678 19.0431 51.5473C17.6041 50.0269 17.1644 47.8663 17.684 45.1055L14.646 45.6256L16.7646 39.9841L19.6427 39.5039C21.1218 36.6231 23.0405 34.1825 25.359 32.2219C27.7974 30.1813 30.7555 28.0207 33.9135 27.0605L34.8329 28.2208L32.9941 35.7429L32.5943 35.8629C31.1153 36.3431 29.7961 37.0633 28.7168 37.9835L37.3112 36.5431C40.1494 32.0619 42.9076 28.821 45.5059 26.9004C48.1842 24.9399 51.1422 23.6595 54.3801 23.0994C58.0977 22.4992 60.8959 23.0994 62.6947 24.8199C64.3337 26.4203 64.8933 28.821 64.4136 31.9818L68.8907 30.9015L69.6902 31.9018L67.8913 36.7032L67.8514 36.7432ZM61.5355 36.223L66.7321 35.3428L67.7314 32.7421L62.4149 33.9424L62.6947 32.8221C63.4143 29.6612 63.0545 27.3806 61.6554 25.9802C60.2163 24.5798 57.8579 24.1397 54.6999 24.6598C51.7419 25.1399 48.9836 26.3403 46.5053 28.1408C44.0269 29.9813 41.3486 33.1822 38.5105 37.6234L38.3106 37.9035L24.7594 40.1441L25.9986 38.5437C27.4776 36.6631 29.3964 35.2628 31.7948 34.3825L33.114 29.021C30.7155 29.9413 28.437 31.6217 26.4783 33.2622C24.1998 35.1827 22.361 37.5834 20.9619 40.4242L20.802 40.7843L18.0038 41.2644L17.1643 43.505L19.8826 43.0649L19.5628 44.2653C18.8033 47.026 19.0431 49.1066 20.2423 50.427C21.4815 51.7473 23.5602 52.1474 26.3983 51.7073C29.3564 51.2272 32.2345 49.9868 34.9128 48.0263C37.631 46.0658 40.1894 43.225 42.5079 39.584L42.7077 39.3039L57.1383 36.9032L55.8192 38.5037C54.8998 39.624 53.7006 40.7043 52.2615 41.7045C50.9024 42.6648 49.4234 43.425 47.9044 43.9452L46.5053 49.1466C49.7831 48.0263 52.7012 46.4659 55.0597 44.5053C57.7779 42.2647 59.8965 39.584 61.4155 36.5031L61.5754 36.143L61.5355 36.223ZM57.698 34.7426L44.1868 36.9832L45.1461 35.5028C46.3054 33.7023 47.5446 32.3419 48.8237 31.4217C50.1029 30.4614 51.502 29.9013 52.8611 29.6612C54.54 29.3811 55.8592 29.6612 56.7786 30.5014C57.7379 31.3817 58.0577 32.622 57.7779 34.2225L57.698 34.7826V34.7426ZM47.5446 34.8226L56.2989 33.3822C56.3389 32.622 56.139 32.0619 55.7392 31.6618C55.1796 31.1416 54.3002 31.0216 53.1409 31.1816C51.9817 31.3817 50.8624 31.8618 49.7431 32.662C49.0236 33.1822 48.2641 33.9424 47.5446 34.8226ZM33.034 44.5053C32.7942 44.7054 32.5144 44.9054 32.2345 45.0655C31.0753 45.8657 29.8761 46.3458 28.7568 46.5459C27.4377 46.7459 26.3184 46.5459 25.4789 45.9857C24.8394 45.5456 24.1198 44.7054 24.1598 43.1049V42.4648L36.7116 40.3842L35.5124 41.9846C34.7129 43.0249 33.8735 43.8651 32.9941 44.5853L33.034 44.5053ZM25.7987 43.7451C25.9186 44.2653 26.1985 44.5453 26.3983 44.6654C26.918 45.0255 27.5976 45.1455 28.517 44.9855C29.4364 44.8254 30.3957 44.4253 31.3551 43.7451C31.8748 43.425 32.3545 43.0249 32.8342 42.5448L25.7987 43.7051V43.7451Z" fill="#17273F"/>
<path d="M66.6523 59.6294L73.1681 67.7917L81.043 59.0292L87.7586 49.4266L92.1957 36.423L92.2357 24.9798L89.9972 19.0581L84.8005 12.8164L86.9991 24.2996L83.0817 36.9831L73.9676 51.9073L66.6523 59.6294Z" fill="#17273F"/>
<path d="M61.1357 64.3906L67.5315 72.3928L63.5741 75.0736L56.8984 66.6713L61.1357 64.3906Z" fill="#17273F"/>
</svg>
