<svg width="25" height="24" viewBox="0 0 25 24" fill="none" xmlns="http://www.w3.org/2000/svg">
<path d="M12.5 24C19.1274 24 24.5 18.6274 24.5 12C24.5 5.37258 19.1274 0 12.5 0C5.87258 0 0.5 5.37258 0.5 12C0.5 18.6274 5.87258 24 12.5 24Z" fill="#5A7CFF"/>
<path d="M12.875 2.99854V9.65135L18.4977 12.1642L12.875 2.99854Z" fill="white" fill-opacity="0.602"/>
<path d="M12.8727 2.99854L7.25 12.1642L12.8727 9.65135V2.99854Z" fill="white"/>
<path d="M12.875 16.474V20.9945L18.501 13.21L12.875 16.474Z" fill="white" fill-opacity="0.602"/>
<path d="M12.8727 20.9945V16.474L7.25 13.21L12.8727 20.9945Z" fill="white"/>
<path d="M12.875 15.4283L18.4977 12.1642L12.875 9.65137V15.4283Z" fill="white" fill-opacity="0.2"/>
<path d="M7.25 12.1642L12.8727 15.4283V9.65137L7.25 12.1642Z" fill="white" fill-opacity="0.602"/>
</svg>
