<svg width="130" height="120" viewBox="0 0 130 120" fill="none" xmlns="http://www.w3.org/2000/svg">
<path d="M87.5111 101.838C90.4434 87.9763 82.2686 68.7832 65.7412 53.8552C49.2138 38.9273 29.2654 32.7962 15.7591 37.1502L13.4932 35.1064L6.34026 43.0591C-5.38886 56.0767 2.164 82.0229 23.2231 101.038C44.2822 120.054 70.8949 124.896 82.624 111.879L89.777 103.926L87.5111 101.882V101.838Z" fill="#1BF3A4"/>
<path d="M22.6456 101.616C1.2755 82.3342 -6.32183 55.8105 5.71829 42.4819L13.4489 33.9072L15.9813 36.1731C30.0651 31.9079 50.2356 38.7055 66.2743 53.1892C82.3574 67.6729 91.1987 86.9992 88.3997 101.483L90.9321 103.749L83.2015 112.323C71.1614 125.652 44.0157 120.809 22.6456 101.572V101.616ZM13.5377 36.2619L6.91787 43.5926C-4.50024 56.2547 3.05263 81.7567 23.7563 100.417C44.46 119.077 70.5839 123.964 82.002 111.302L88.6218 103.971L86.6225 102.149L86.7114 101.705C89.6437 87.7545 81.0245 68.7836 65.208 54.522C49.3915 40.2605 29.6208 33.5962 16.0257 37.9502L15.5814 38.0835L13.5821 36.2619H13.5377Z" fill="#17273F"/>
<path d="M89.7773 103.882C78.0482 116.899 51.4355 112.057 30.3764 93.0413C9.31732 74.0259 1.76446 48.0797 13.4936 35.0621C25.2227 22.0446 51.8354 26.8873 72.8945 45.9027C93.9536 64.9181 101.506 90.8643 89.7773 103.882Z" fill="#1BF3A4"/>
<path d="M88.0888 105.75C76.3597 118.768 49.747 113.925 28.6879 94.9094C7.62884 75.8941 0.0759873 49.9479 11.8051 36.9303C23.5342 23.9128 50.1469 28.7555 71.2059 47.7709C92.265 66.7862 99.8179 92.7325 88.0888 105.75Z" fill="#C5FFE9"/>
<path d="M29.7984 93.6644C8.42833 74.3825 0.831004 47.8587 12.8711 34.5302C24.9112 21.2016 52.057 26.0443 73.4271 45.2818C94.7972 64.5638 102.394 91.0876 90.3544 104.416C78.3143 117.745 51.1685 112.902 29.7984 93.6644ZM72.3164 46.5258C51.6128 27.8659 25.4888 22.9788 14.0707 35.6409C2.65259 48.303 10.2055 73.8049 30.9091 92.4649C51.6128 111.125 77.7367 116.012 89.1548 103.35C100.573 90.6877 93.0201 65.1858 72.3164 46.5258Z" fill="#17273F"/>
<path d="M83.024 95.8861C74.1827 105.66 53.3901 101.306 36.5518 86.1563C19.7134 71.0062 13.2713 50.7468 22.0681 40.9726C30.9094 31.1983 51.7019 35.5523 68.5402 50.7024C85.3786 65.8525 91.8208 86.1119 83.024 95.8861Z" fill="#1BF3A4"/>
<path d="M36.0185 86.7775C18.8691 71.3164 12.3826 50.5239 21.4904 40.3942C30.5982 30.2645 51.9683 34.6185 69.1177 50.0796C86.2671 65.5407 92.7537 86.3332 83.6458 96.4629C74.538 106.593 53.1679 102.239 36.0185 86.7775ZM68.007 51.3236C51.5685 36.4845 31.2202 32.0861 22.7344 41.5049C14.2041 50.9682 20.6907 70.6944 37.1292 85.5335C53.5678 100.373 73.916 104.771 82.4463 95.3522C90.9765 85.889 84.4899 66.1627 68.0514 51.3236H68.007Z" fill="#17273F"/>
<path d="M68.5848 50.7025C51.7464 35.5524 30.9538 31.154 22.1126 40.9727C21.3129 41.8613 20.6909 42.8387 20.1577 43.8605C30.0208 37.2407 48.592 42.039 63.9198 55.8562C79.2476 69.6735 85.9119 87.667 80.3583 98.1521C81.3357 97.4857 82.2688 96.7748 83.024 95.8863C91.8653 86.112 85.3787 65.8526 68.5403 50.7025H68.5848Z" fill="#1BF3A4"/>
<path d="M78.8476 99.0842L79.6473 97.7513C85.112 87.4883 78.0923 69.717 63.3865 56.4329C48.6807 43.1488 30.2872 38.0395 20.6463 44.526L19.0913 45.5923L19.4911 43.4598C20.1576 42.2158 20.824 41.2383 21.5793 40.3942C30.6871 30.2645 52.0572 34.6185 69.2066 50.0796C86.356 65.5407 92.8426 86.3332 83.7347 96.4629C82.9795 97.3071 82.0909 98.0623 80.8913 98.862L78.9365 99.1286L78.8476 99.0842ZM68.007 51.2792C51.5685 36.4401 31.2202 32.0416 22.7344 41.5049C22.7344 41.5049 22.69 41.5938 22.6456 41.5938C33.4417 37.1509 50.3245 42.4823 64.4527 55.2333C78.581 67.9843 85.6451 84.2451 82.313 95.4411C82.313 95.4411 82.3574 95.3522 82.4019 95.3522C90.9321 85.889 84.4456 66.1627 68.007 51.3236V51.2792Z" fill="#17273F"/>
<path d="M63.1645 46.5257L58.6328 51.5461L48.6809 45.5038L37.085 41.5497L26.2889 41.372L20.1577 43.8599L23.8009 39.1061L31.1316 36.1294L39.573 35.9961L50.5024 39.0617L61.6984 45.2372L63.1645 46.5257Z" fill="#191410"/>
<path d="M60.7652 92.0216C62.9422 91.8883 64.6305 91.2663 65.7412 90.2V90.2889L68.8068 86.9123L67.3406 83.8467C67.2073 83.047 66.9852 82.2029 66.6742 81.3143C65.6079 78.2043 63.8752 75.4497 61.476 73.1395C59.0769 70.7847 55.2561 68.5189 50.058 66.3419L46.2371 55.0571C48.4585 56.2566 50.1468 58.0338 51.3908 60.3885L58.6326 60.9216L61.476 57.7672L54.323 54.7461C53.7899 54.3018 53.3012 53.7686 52.7236 53.2799C50.2801 51.1918 47.3922 49.6368 44.1045 48.6594L43.6158 47.1932H44.2822L45.6151 45.7715L41.661 41.8174L37.2181 46.7489L39.484 46.9267L39.795 47.8152C38.7287 47.6819 37.8401 47.7264 36.9515 47.8152C36.4628 46.9267 36.0629 46.2602 36.0629 46.2602L32.8197 49.9034C31.4868 51.6361 31.3536 54.0796 32.4198 57.2341C33.4861 60.3441 35.3077 63.1875 37.8401 65.7199C40.417 68.2523 43.838 70.4737 48.1031 72.3397L52.2349 84.4243C50.9909 83.7134 49.7469 82.6916 48.5029 81.4032C47.7032 80.6035 47.0368 79.6704 46.4148 78.7374L47.2145 78.2487L40.6835 73.2283L37.8401 76.3827C39.7061 80.2924 42.1052 83.4913 44.9486 86.0237C47.7921 88.5117 51.0353 90.3333 54.5896 91.3996L56.3668 96.6421L60.6764 97.4862L63.5198 94.3318L60.7208 92.0216H60.7652ZM41.7054 61.3659C40.7724 60.3441 40.1504 59.3666 39.795 58.3448C39.3951 57.2341 39.3951 56.2566 39.795 55.5014C40.1948 54.7016 40.9057 54.2573 41.9275 54.0796L45.3041 64.076C43.8379 63.2763 42.6384 62.3878 41.7054 61.3659ZM56.6777 85.6683L52.8569 74.3835C54.8118 75.2276 56.3667 76.205 57.433 77.3157C58.5437 78.4264 59.299 79.5816 59.7433 80.87C60.232 82.3362 60.1876 83.4913 59.61 84.3799C59.0325 85.2684 58.0551 85.7127 56.6333 85.6683H56.6777Z" fill="#1BF3A4"/>
<path d="M55.7893 97.3079L53.9677 91.9765C50.4579 90.8658 47.2591 89.0442 44.4156 86.5562C41.5278 84.0238 39.0398 80.6472 37.085 76.6487L36.8628 76.16L40.5504 72.0281L48.6363 78.2481L47.5701 78.9145C48.1032 79.6254 48.5919 80.2474 49.0806 80.7805C49.6138 81.3136 50.1469 81.8024 50.6356 82.2467L47.4367 72.8723C43.2605 71.0063 39.8395 68.7848 37.2627 66.2524C34.6414 63.6311 32.7309 60.6544 31.6202 57.4556C30.4651 54.0346 30.6428 51.3245 32.1089 49.3696L35.4855 45.5932L36.7739 45.9042L41.5722 40.6172L46.6815 45.7709L44.7266 48.0367C47.9255 49.0586 50.8133 50.6136 53.2125 52.7017C53.7012 53.146 54.1899 53.5903 54.6342 54.0346L62.809 57.5444L58.9438 61.854L50.8578 61.232L50.6356 60.8321C49.8803 59.366 48.9029 58.1664 47.7922 57.189L50.7245 65.8081C55.8337 67.9851 59.6546 70.2954 62.0537 72.6501C64.5417 75.0492 66.3633 77.9371 67.474 81.1804C67.785 82.0689 68.0071 82.9131 68.1404 83.7128L69.7843 87.1338L66.3633 90.9546L65.4303 91.6211C64.675 92.1098 63.742 92.5096 62.7201 92.7318L64.7194 94.3756L60.9874 98.5075L55.7449 97.4856L55.7893 97.3079ZM55.2562 90.6881L57.0333 95.8862L60.4543 96.5526L62.4092 94.42L58.6327 91.3545L60.7653 91.2212C62.7201 91.1324 64.2307 90.5992 65.2526 89.6218L66.0523 88.8221L67.9183 86.7339L66.6299 83.9794C66.4966 83.2241 66.2744 82.4244 66.0079 81.5802C64.986 78.6035 63.2978 75.9378 61.0319 73.7164C58.7216 71.495 54.9452 69.2291 49.8803 67.0965L49.5249 66.9633L44.9044 53.3237L46.7259 54.3012C48.9474 55.5007 50.7245 57.2779 52.0129 59.5881L58.4106 60.0769L60.1878 58.0776L54.9452 55.8562L54.8119 56.3004L53.8344 55.3674C53.3457 54.8787 52.8126 54.3456 52.2795 53.9013C49.9248 51.902 47.1257 50.3914 43.9713 49.414L43.5715 49.2807L42.5497 46.2596L44.0158 46.3485L44.5489 45.7709L41.5278 43.7272L38.9954 45.993L40.1505 46.0819L41.0391 48.7032L39.7506 48.5699C38.8621 48.481 38.018 48.481 37.085 48.5699H36.5518L35.9743 47.5925L33.4862 50.347C32.3755 51.8132 32.2867 54.0346 33.2641 56.878C34.286 59.8547 36.0186 62.6093 38.5066 65.0528C40.9946 67.4964 44.3268 69.6734 48.503 71.495L48.8585 71.6283L53.79 86.1119L51.9241 85.0457C50.6356 84.2904 49.3028 83.2241 48.0143 81.8912C47.259 81.1359 46.5482 80.2474 45.7929 79.0922L45.3042 78.3814L45.8373 78.0704L40.8613 74.2051L38.9065 76.3821C40.6836 79.9364 42.9495 83.0019 45.5708 85.2678C48.3253 87.6669 51.4798 89.4441 54.9008 90.5103L55.3006 90.6436L55.2562 90.6881ZM56.1448 86.5118L51.5242 72.9611L53.2125 73.7164C55.2562 74.605 56.9 75.6268 58.0551 76.782C59.2547 77.9815 60.0989 79.27 60.5876 80.6917C61.1652 82.3799 61.0763 83.8016 60.3654 84.9124C59.6102 86.0675 58.4106 86.6006 56.7223 86.5562H56.1448V86.5118ZM54.3232 76.0267L57.2999 84.8235C58.0996 84.7347 58.6327 84.4681 58.9882 83.935C59.4325 83.2685 59.4325 82.3355 58.9882 81.1359C58.5883 79.9808 57.8775 78.8701 56.8556 77.8927C56.1892 77.2263 55.3006 76.6042 54.2344 75.9822L54.3232 76.0267ZM41.8832 62.6537C41.6166 62.4316 41.3945 62.165 41.1724 61.9428C40.1505 60.8766 39.4397 59.7214 39.0842 58.6107C38.64 57.2779 38.64 56.1227 39.0842 55.1453C39.4397 54.4344 40.1949 53.5459 41.8388 53.2793L42.5052 53.1905L46.8147 65.8081L44.9932 64.8307C43.7937 64.2087 42.7718 63.4534 41.8832 62.6981V62.6537ZM42.3719 60.8321C42.8162 61.2764 43.3049 61.7207 43.8825 62.165L41.4833 55.1009C40.9502 55.323 40.728 55.634 40.6392 55.9006C40.3726 56.4781 40.3726 57.2334 40.6392 58.122C40.9502 59.0106 41.5278 59.9436 42.3719 60.8766V60.8321Z" fill="#17273F"/>
<path d="M55.0787 81.2689L50.9468 69.1843C46.6817 67.3183 43.2607 65.1413 40.6839 62.5645C38.107 60.0321 36.3299 57.1886 35.2636 54.0787C34.1973 50.9242 34.3306 48.4807 35.6634 46.748C36.9963 45.0153 39.3066 44.3044 42.6387 44.6598L41.6613 41.8164L45.9709 42.6605L46.9482 45.504C50.2359 46.4814 53.1238 48.0364 55.5674 50.1245C58.0109 52.2127 60.0103 54.7451 61.5208 57.7662L54.279 57.2331C53.035 54.8784 51.3467 53.1012 49.1253 51.9017L52.9461 63.1865C58.1442 65.4079 61.9651 67.6738 64.3643 69.9841C66.7634 72.3388 68.4961 75.0489 69.5624 78.1589C70.7619 81.6243 70.6731 84.3789 69.2958 86.3337C67.9185 88.2886 65.3861 89.1327 61.6985 88.9106L63.5201 94.3308L59.2105 93.4867L57.4334 88.2441C53.8347 87.1779 50.6358 85.3563 47.7924 82.8683C44.949 80.3803 42.5499 77.137 40.6839 73.2273L48.1923 73.9826C49.0364 75.582 50.1027 77.0482 51.3467 78.3366C52.5907 79.625 53.8347 80.6469 55.0787 81.3577V81.2689ZM44.7713 50.9242C43.7494 51.0575 42.9942 51.5462 42.6387 52.3459C42.2389 53.1457 42.2389 54.0787 42.6387 55.1894C42.9942 56.2112 43.6161 57.2331 44.5491 58.2105C45.4821 59.2324 46.6817 60.1209 48.1478 60.9206L44.7713 50.9242ZM59.566 82.5129C60.9877 82.5129 61.9651 82.113 62.5427 81.2245C63.1202 80.3359 63.1647 79.1808 62.676 77.7146C62.2317 76.4262 61.4764 75.2266 60.3657 74.1603C59.2549 73.0496 57.7444 72.1166 55.7895 71.228L59.6104 82.5129H59.566Z" fill="#1BF3A4"/>
<path d="M53.5678 82.558L49.436 70.4735C45.1709 68.6075 41.7499 66.4305 39.173 63.8536C36.5961 61.3212 34.8191 58.4778 33.7528 55.3678C32.6865 52.2134 33.2196 50.303 34.5525 48.5702C35.8853 46.8375 37.7958 45.5935 41.0835 45.949L41.4389 43.7275L44.46 43.9497L45.4374 46.7931C48.7251 47.7705 51.613 49.3255 54.0566 51.4137C56.5001 53.5018 57.6997 55.8565 59.1658 58.8332L52.7682 58.5222C51.5242 56.1675 49.8359 54.3904 47.6145 53.1908L51.4353 64.4756C56.6334 66.697 60.4542 68.9629 62.8534 71.2732C65.2525 73.6279 66.9852 76.338 68.0515 79.448C69.2511 82.9135 69.1622 85.668 67.7849 87.6229C66.4077 89.5777 63.8753 90.4219 60.1877 90.1997L61.3872 95.4423L57.6553 94.7758L55.8781 89.5333C52.2794 88.467 49.0806 86.6454 46.2372 84.1574C43.3938 81.6694 41.5277 79.448 39.6173 75.5383L46.637 75.2273C47.4812 76.8267 48.5475 78.2929 49.7915 79.5813C51.0355 80.8697 52.2794 81.8916 53.5234 82.6024L53.5678 82.558ZM43.2605 52.2134C42.2386 52.3467 41.4833 52.8354 41.1279 53.6351C40.728 54.4348 40.728 55.3678 41.1279 56.4785C41.4833 57.5004 42.1053 58.5222 43.0383 59.4996C43.9713 60.5215 45.1709 61.4101 46.637 62.2098L43.2605 52.2134ZM58.0551 83.802C59.4768 83.802 60.4543 83.4022 61.0319 82.5136C61.6094 81.625 61.6539 80.4699 61.1651 79.0038C60.7209 77.7153 59.9656 76.5157 58.8548 75.4495C57.7441 74.3388 56.2336 73.4058 54.2787 72.5172L58.0996 83.802H58.0551Z" fill="#C5FFE9"/>
<path d="M58.5882 94.1535L56.7666 88.8221C53.2567 87.7114 50.0579 85.8898 47.2145 83.4018C44.3266 80.825 41.8386 77.4928 39.8838 73.4943L39.6616 73.0056L40.5502 72.0281L43.1715 72.5613L48.6806 73.0944L48.9027 73.4943C49.7024 75.0048 50.7243 76.4265 51.9239 77.6261C52.457 78.1592 52.9901 78.648 53.4789 79.0922L50.28 69.7178C46.1037 67.8518 42.6828 65.6304 40.1059 63.098C37.4846 60.4767 35.5742 57.5 34.4635 54.3012C33.3083 50.8802 33.4861 48.17 34.9522 46.2152C36.285 44.4825 38.462 43.6383 41.3943 43.7272L40.3725 40.7061L46.548 41.95L47.5255 44.8823C50.7243 45.9042 53.6122 47.4592 56.0113 49.5473C58.5437 51.6799 61.2539 54.4344 62.8089 57.5L61.787 58.6552L53.701 58.0332L53.4789 57.6333C52.7236 56.1672 51.7906 54.9676 50.6354 53.9902L53.5677 62.6093C58.677 64.7863 62.4979 67.0966 64.897 69.4513C67.385 71.8504 69.2066 74.7383 70.3173 77.9815C71.6057 81.7135 71.4724 84.6902 69.9618 86.8672C68.5846 88.8221 66.1854 89.8439 62.8533 89.8439L64.7193 94.2868L63.8307 95.2642L58.5882 94.2424V94.1535ZM58.055 87.5337L59.8322 92.7318L62.6756 93.3093L60.543 88.0224L61.7426 88.1112C65.1191 88.3334 67.4294 87.5781 68.629 85.8898C69.8285 84.1571 69.873 81.6691 68.8067 78.4703C67.7849 75.4935 66.0965 72.8278 63.8307 70.6064C61.5204 68.385 57.744 66.1191 52.6792 63.9866L52.3237 63.8533L47.7032 50.2137L49.5247 51.1912C51.7462 52.3907 53.5233 54.1679 54.8117 56.4782L60.543 56.9225C59.2102 54.6122 57.0776 52.524 55.0783 50.7913C52.7236 48.792 49.9246 47.2815 46.7702 46.304L46.3703 46.1708L45.3929 43.3718L42.9049 42.8831L43.8379 45.5932L42.5495 45.4599C39.5728 45.1489 37.4846 45.7265 36.3295 47.237C35.1743 48.7476 35.0855 50.969 36.0629 53.8125C37.0848 56.7892 38.8175 59.5437 41.3055 61.9873C43.7935 64.4753 47.1256 66.6079 51.3019 68.4294L51.6129 68.5627L56.5444 83.0464L54.6784 81.9801C53.39 81.2248 52.0571 80.1585 50.7687 78.8257C49.5691 77.5817 48.5474 76.2044 47.7032 74.6938L42.1052 74.1607C43.8379 77.3595 45.926 80.1141 48.3696 82.2022C51.1242 84.6014 54.2786 86.3785 57.6996 87.4448L58.0995 87.5781L58.055 87.5337ZM58.9436 83.3574L54.323 69.8067L56.0113 70.562C58.055 71.4506 59.6989 72.4724 60.854 73.6275C62.0536 74.8271 62.8977 76.1155 63.3865 77.5373C63.964 79.2255 63.8752 80.6472 63.1643 81.7579C62.409 82.9131 61.2094 83.4462 59.5211 83.4018H58.9436V83.3574ZM57.122 72.8723L60.0987 81.6691C60.8984 81.5802 61.4316 81.3137 61.787 80.7805C62.2313 80.1141 62.2313 79.1811 61.787 77.9815C61.3872 76.8264 60.6763 75.7157 59.6544 74.7383C58.988 74.0718 58.0994 73.4498 57.0331 72.8278L57.122 72.8723ZM44.682 59.4993C44.4155 59.2772 44.1933 59.0106 43.9712 58.7884C42.9493 57.7222 42.2385 56.567 41.883 55.4563C41.4387 54.1235 41.4387 52.9683 41.883 51.9909C42.2385 51.28 42.9938 50.3915 44.6376 50.1249L45.304 50.036L49.6136 62.6537L47.792 61.6763C46.5925 61.0543 45.5706 60.299 44.682 59.5437V59.4993ZM44.2378 51.902C43.7047 52.1242 43.4825 52.4352 43.3936 52.7017C43.1271 53.2793 43.1271 54.0346 43.3936 54.9232C43.7046 55.8117 44.2822 56.7447 45.1264 57.6777C45.5706 58.122 46.0593 58.5663 46.6369 59.0106L44.2378 51.9465V51.902Z" fill="#17273F"/>
<path d="M34.7745 96.7744L27.4883 104.86L37.8845 111.569L48.9028 116.856L63.0755 119.255L74.8934 117.345L80.6247 114.013L86.1782 107.571L74.6713 111.791L60.9429 109.925L44.0157 103.039L34.7745 96.7744Z" fill="#17273F"/>
<path d="M28.9543 91.9326L21.7569 99.8409L18.3359 96.2422L25.8443 87.8896L28.9543 91.9326Z" fill="#17273F"/>
<path d="M117.415 37.0829L114.421 7.97336C114.421 7.97336 114.311 7.87921 114.276 7.96434L101.602 39.334C101.602 39.334 101.632 39.4449 101.683 39.4409L117.351 37.1807C117.351 37.1807 117.419 37.134 117.406 37.1042L117.415 37.0829Z" fill="#1BF3A4"/>
<path d="M101.236 40.5475L100.416 39.5728L100.623 38.9384L113.741 7.45094L115.29 6.98745L115.432 7.86172L118.427 37.6404L117.492 38.1785L101.214 40.5389L101.236 40.5475ZM113.789 11.9266L103.187 38.1673L116.279 36.2776L113.781 11.9479L113.789 11.9266Z" fill="#16110D"/>
<path d="M91.7911 26.7303L114.166 7.87017C114.166 7.87017 114.311 7.8792 114.276 7.96433L101.602 39.334C101.602 39.334 101.504 39.3933 101.47 39.3549L91.7694 26.8453C91.7694 26.8453 91.7527 26.7643 91.7825 26.7516L91.7911 26.7303Z" fill="#1BF3A4"/>
<path d="M94.3746 30.3243L101.3 39.2865C101.3 39.2865 101.406 39.3295 101.432 39.2657L110.555 16.6854L94.3746 30.3243Z" fill="#C5FFE9"/>
<path d="M101.087 40.4874L100.645 39.9872L90.5986 26.4961L91.1205 25.9395L115.222 5.62341L115.486 8.15617L115.243 8.33009L102.336 40.2744L101.087 40.4874ZM93.146 26.9312L101.251 37.385L111.853 11.1443L93.1546 26.9099L93.146 26.9312Z" fill="#16110D"/>
<path d="M117.179 37.359L96.824 51.5887C96.824 51.5887 96.6877 51.5584 96.7135 51.4946L101.554 39.5128C101.554 39.5128 101.572 39.4702 101.623 39.4661L117.137 37.2182C117.137 37.2182 117.248 37.3124 117.179 37.359Z" fill="#1BF3A4"/>
<path d="M95.9354 53.3592L96.4977 50.987L95.7344 51.0994L100.782 38.6069L101.387 38.4556L117.767 36.087L118.44 37.6707L117.743 38.2309L95.9182 53.4018L95.9354 53.3592ZM102.284 40.4023L98.8708 48.8513L113.248 38.8163L102.284 40.4023Z" fill="#16110D"/>
<path d="M91.7899 27.1011L96.5475 51.477C96.5475 51.477 96.6666 51.5499 96.6924 51.486L101.533 39.5043C101.533 39.5043 101.55 39.4617 101.517 39.4232L91.918 27.0291C91.918 27.0291 91.7731 27.0201 91.7899 27.1011Z" fill="#1BF3A4"/>
<path d="M95.9357 53.3593L95.5324 51.6615L90.5986 26.4965L92.1229 25.726L92.7216 26.3888L102.698 39.2573L102.491 39.8917L97.6625 50.7397L95.9357 53.3593ZM93.5841 30.8715L96.9557 48.0775L100.369 39.6286L93.5841 30.8715Z" fill="#16110D"/>
<path d="M101.944 40.1409L102.607 38.5022L116.3 36.5335L115.638 38.1722L101.944 40.1409Z" fill="#16110D"/>
</svg>
