<svg width="76" height="70" viewBox="0 0 76 70" fill="none" xmlns="http://www.w3.org/2000/svg">
<path d="M52.94 24.5511C52.55 24.3211 52.55 23.9611 52.94 23.7311C53.33 23.5011 53.97 23.5011 54.36 23.7311C54.75 23.9611 54.75 24.3211 54.36 24.5511C53.97 24.7811 53.33 24.7811 52.94 24.5511Z" fill="#16110D"/>
<path d="M58.0699 21.5787C58.4599 21.8088 58.4599 22.1687 58.0699 22.3987C57.6799 22.6287 57.0399 22.6287 56.6499 22.3987C56.2599 22.1687 56.2599 21.8088 56.6499 21.5787C57.0399 21.3487 57.6799 21.3487 58.0699 21.5787Z" fill="#16110D"/>
<path d="M43.2203 25.8698C43.6103 26.0998 43.6103 26.4598 43.2203 26.6898C42.8303 26.9198 42.1903 26.9198 41.8003 26.6898C41.4103 26.4598 41.4103 26.0998 41.8003 25.8698C42.1903 25.6398 42.8303 25.6398 43.2203 25.8698Z" fill="#16110D"/>
<path d="M46.9303 23.7311C47.3203 23.9611 47.3203 24.3211 46.9303 24.5511C46.5403 24.7811 45.9003 24.7811 45.5103 24.5511C45.1203 24.3211 45.1203 23.9611 45.5103 23.7311C45.9003 23.5011 46.5403 23.5011 46.9303 23.7311Z" fill="#16110D"/>
<path d="M50.65 21.5787C51.04 21.8088 51.04 22.1687 50.65 22.3987C50.26 22.6287 49.62 22.6287 49.23 22.3987C48.84 22.1687 48.84 21.8088 49.23 21.5787C49.62 21.3487 50.26 21.3487 50.65 21.5787Z" fill="#16110D"/>
<path d="M54.36 19.4401C54.75 19.6701 54.75 20.0301 54.36 20.2601C53.97 20.4901 53.33 20.4901 52.94 20.2601C52.55 20.0301 52.55 19.6701 52.94 19.4401C53.33 19.2101 53.97 19.2101 54.36 19.4401Z" fill="#16110D"/>
<path d="M35.8004 25.8698C36.1904 26.0998 36.1904 26.4598 35.8004 26.6898C35.4104 26.9198 34.7704 26.9198 34.3804 26.6898C33.9904 26.4598 33.9904 26.0998 34.3804 25.8698C34.7704 25.6398 35.4104 25.6398 35.8004 25.8698Z" fill="#16110D"/>
<path d="M39.5103 23.7311C39.9003 23.9611 39.9003 24.3211 39.5103 24.5511C39.1203 24.7811 38.4804 24.7811 38.0904 24.5511C37.7004 24.3211 37.7004 23.9611 38.0904 23.7311C38.4804 23.5011 39.1203 23.5011 39.5103 23.7311Z" fill="#16110D"/>
<path d="M43.2203 21.5787C43.6103 21.8088 43.6103 22.1687 43.2203 22.3987C42.8303 22.6287 42.1903 22.6287 41.8003 22.3987C41.4103 22.1687 41.4103 21.8088 41.8003 21.5787C42.1903 21.3487 42.8303 21.3487 43.2203 21.5787Z" fill="#16110D"/>
<path d="M35.8297 64.4694C36.2197 64.6994 36.2197 65.0594 35.8297 65.2894C35.4397 65.5194 34.7997 65.5194 34.4097 65.2894C34.0197 65.0594 34.0197 64.6994 34.4097 64.4694C34.7997 64.2394 35.4397 64.2394 35.8297 64.4694Z" fill="#16110D"/>
<path d="M39.5397 62.3287C39.9297 62.5588 39.9297 62.9187 39.5397 63.1487C39.1497 63.3787 38.5096 63.3787 38.1196 63.1487C37.7296 62.9187 37.7296 62.5588 38.1196 62.3287C38.5096 62.0987 39.1497 62.0987 39.5397 62.3287Z" fill="#16110D"/>
<path d="M43.2496 60.1803C43.6396 60.4103 43.6396 60.7703 43.2496 61.0003C42.8596 61.2303 42.2196 61.2303 41.8296 61.0003C41.4396 60.7703 41.4396 60.4103 41.8296 60.1803C42.2196 59.9503 42.8596 59.9503 43.2496 60.1803Z" fill="#16110D"/>
<path d="M46.9703 58.0397C47.3603 58.2697 47.3603 58.6297 46.9703 58.8597C46.5803 59.0897 45.9403 59.0897 45.5503 58.8597C45.1603 58.6297 45.1603 58.2697 45.5503 58.0397C45.9403 57.8097 46.5803 57.8097 46.9703 58.0397Z" fill="#16110D"/>
<path d="M50.6803 55.8991C51.0703 56.1291 51.0703 56.4891 50.6803 56.7191C50.2903 56.9491 49.6503 56.9491 49.2603 56.7191C48.8703 56.4891 48.8703 56.1291 49.2603 55.8991C49.6503 55.6691 50.2903 55.6691 50.6803 55.8991Z" fill="#16110D"/>
<path d="M54.3902 53.7506C54.7802 53.9806 54.7802 54.3406 54.3902 54.5706C54.0002 54.8006 53.3602 54.8006 52.9702 54.5706C52.5802 54.3406 52.5802 53.9806 52.9702 53.7506C53.3602 53.5206 54.0002 53.5206 54.3902 53.7506Z" fill="#16110D"/>
<path d="M58.1002 51.61C58.4902 51.84 58.4902 52.2 58.1002 52.43C57.7102 52.66 57.0702 52.66 56.6802 52.43C56.2902 52.2 56.2902 51.84 56.6802 51.61C57.0702 51.38 57.7102 51.38 58.1002 51.61Z" fill="#16110D"/>
<path d="M61.8102 49.4694C62.2002 49.6994 62.2002 50.0594 61.8102 50.2894C61.4202 50.5194 60.7802 50.5194 60.3902 50.2894C60.0002 50.0594 60.0002 49.6994 60.3902 49.4694C60.7802 49.2394 61.4202 49.2394 61.8102 49.4694Z" fill="#16110D"/>
<path d="M65.5299 48.1409C65.1399 48.3709 64.4999 48.3709 64.1099 48.1409C63.7199 47.9109 63.7199 47.5509 64.1099 47.3209C64.4999 47.0909 65.1399 47.0909 65.5299 47.3209" fill="#16110D"/>
<path d="M32.1197 62.3287C32.5097 62.5588 32.5097 62.9187 32.1197 63.1487C31.7297 63.3787 31.0897 63.3787 30.6997 63.1487C30.3097 62.9187 30.3097 62.5588 30.6997 62.3287C31.0897 62.0987 31.7297 62.0987 32.1197 62.3287Z" fill="#16110D"/>
<path d="M35.8297 60.1803C36.2197 60.4103 36.2197 60.7703 35.8297 61.0003C35.4397 61.2303 34.7997 61.2303 34.4097 61.0003C34.0197 60.7703 34.0197 60.4103 34.4097 60.1803C34.7997 59.9503 35.4397 59.9503 35.8297 60.1803Z" fill="#16110D"/>
<path d="M39.5397 58.0397C39.9297 58.2697 39.9297 58.6297 39.5397 58.8597C39.1497 59.0897 38.5096 59.0897 38.1196 58.8597C37.7296 58.6297 37.7296 58.2697 38.1196 58.0397C38.5096 57.8097 39.1497 57.8097 39.5397 58.0397Z" fill="#16110D"/>
<path d="M43.2496 55.8991C43.6396 56.1291 43.6396 56.4891 43.2496 56.7191C42.8596 56.9491 42.2196 56.9491 41.8296 56.7191C41.4396 56.4891 41.4396 56.1291 41.8296 55.8991C42.2196 55.6691 42.8596 55.6691 43.2496 55.8991Z" fill="#16110D"/>
<path d="M46.9703 53.7506C47.3603 53.9806 47.3603 54.3406 46.9703 54.5706C46.5803 54.8006 45.9403 54.8006 45.5503 54.5706C45.1603 54.3406 45.1603 53.9806 45.5503 53.7506C45.9403 53.5206 46.5803 53.5206 46.9703 53.7506Z" fill="#16110D"/>
<path d="M50.6803 51.61C51.0703 51.84 51.0703 52.2 50.6803 52.43C50.2903 52.66 49.6503 52.66 49.2603 52.43C48.8703 52.2 48.8703 51.84 49.2603 51.61C49.6503 51.38 50.2903 51.38 50.6803 51.61Z" fill="#16110D"/>
<path d="M54.3902 49.4694C54.7802 49.6994 54.7802 50.0594 54.3902 50.2894C54.0002 50.5194 53.3602 50.5194 52.9702 50.2894C52.5802 50.0594 52.5802 49.6994 52.9702 49.4694C53.3602 49.2394 54.0002 49.2394 54.3902 49.4694Z" fill="#16110D"/>
<path d="M58.1002 47.3209C58.4902 47.5509 58.4902 47.9109 58.1002 48.1409C57.7102 48.3709 57.0702 48.3709 56.6802 48.1409C56.2902 47.9109 56.2902 47.5509 56.6802 47.3209C57.0702 47.0909 57.7102 47.0909 58.1002 47.3209Z" fill="#16110D"/>
<path d="M61.8102 45.1803C62.2002 45.4103 62.2002 45.7703 61.8102 46.0003C61.4202 46.2303 60.7802 46.2303 60.3902 46.0003C60.0002 45.7703 60.0002 45.4103 60.3902 45.1803C60.7802 44.9503 61.4202 44.9503 61.8102 45.1803Z" fill="#16110D"/>
<path d="M65.5299 43.8597C65.1399 44.0897 64.4999 44.0897 64.1099 43.8597C63.7199 43.6297 63.7199 43.2697 64.1099 43.0397C64.4999 42.8097 65.1399 42.8097 65.5299 43.0397" fill="#16110D"/>
<path d="M28.4098 60.1803C28.7998 60.4103 28.7998 60.7703 28.4098 61.0003C28.0198 61.2303 27.3798 61.2303 26.9898 61.0003C26.5998 60.7703 26.5998 60.4103 26.9898 60.1803C27.3798 59.9503 28.0198 59.9503 28.4098 60.1803Z" fill="#16110D"/>
<path d="M32.1197 58.0397C32.5097 58.2697 32.5097 58.6297 32.1197 58.8597C31.7297 59.0897 31.0897 59.0897 30.6997 58.8597C30.3097 58.6297 30.3097 58.2697 30.6997 58.0397C31.0897 57.8097 31.7297 57.8097 32.1197 58.0397Z" fill="#16110D"/>
<path d="M35.8297 55.8991C36.2197 56.1291 36.2197 56.4891 35.8297 56.7191C35.4397 56.9491 34.7997 56.9491 34.4097 56.7191C34.0197 56.4891 34.0197 56.1291 34.4097 55.8991C34.7997 55.6691 35.4397 55.6691 35.8297 55.8991Z" fill="#16110D"/>
<path d="M39.5397 53.7506C39.9297 53.9806 39.9297 54.3406 39.5397 54.5706C39.1497 54.8006 38.5096 54.8006 38.1196 54.5706C37.7296 54.3406 37.7296 53.9806 38.1196 53.7506C38.5096 53.5206 39.1497 53.5206 39.5397 53.7506Z" fill="#16110D"/>
<path d="M43.2496 51.61C43.6396 51.84 43.6396 52.2 43.2496 52.43C42.8596 52.66 42.2196 52.66 41.8296 52.43C41.4396 52.2 41.4396 51.84 41.8296 51.61C42.2196 51.38 42.8596 51.38 43.2496 51.61Z" fill="#16110D"/>
<path d="M46.9703 49.4694C47.3603 49.6994 47.3603 50.0594 46.9703 50.2894C46.5803 50.5194 45.9403 50.5194 45.5503 50.2894C45.1603 50.0594 45.1603 49.6994 45.5503 49.4694C45.9403 49.2394 46.5803 49.2394 46.9703 49.4694Z" fill="#16110D"/>
<path d="M50.6803 47.3209C51.0703 47.5509 51.0703 47.9109 50.6803 48.1409C50.2903 48.3709 49.6503 48.3709 49.2603 48.1409C48.8703 47.9109 48.8703 47.5509 49.2603 47.3209C49.6503 47.0909 50.2903 47.0909 50.6803 47.3209Z" fill="#16110D"/>
<path d="M54.3902 45.1803C54.7802 45.4103 54.7802 45.7703 54.3902 46.0003C54.0002 46.2303 53.3602 46.2303 52.9702 46.0003C52.5802 45.7703 52.5802 45.4103 52.9702 45.1803C53.3602 44.9503 54.0002 44.9503 54.3902 45.1803Z" fill="#16110D"/>
<path d="M58.1002 43.0397C58.4902 43.2697 58.4902 43.6297 58.1002 43.8597C57.7102 44.0897 57.0702 44.0897 56.6802 43.8597C56.2902 43.6297 56.2902 43.2697 56.6802 43.0397C57.0702 42.8097 57.7102 42.8097 58.1002 43.0397Z" fill="#16110D"/>
<path d="M61.8102 40.8912C62.2002 41.1213 62.2002 41.4812 61.8102 41.7112C61.4202 41.9412 60.7802 41.9412 60.3902 41.7112C60.0002 41.4812 60.0002 41.1213 60.3902 40.8912C60.7802 40.6612 61.4202 40.6612 61.8102 40.8912Z" fill="#16110D"/>
<path d="M65.5299 39.5706C65.1399 39.8006 64.4999 39.8006 64.1099 39.5706C63.7199 39.3406 63.7199 38.9806 64.1099 38.7506C64.4999 38.5206 65.1399 38.5206 65.5299 38.7506" fill="#16110D"/>
<path d="M24.69 58.0397C25.08 58.2697 25.08 58.6297 24.69 58.8597C24.3 59.0897 23.66 59.0897 23.27 58.8597C22.88 58.6297 22.88 58.2697 23.27 58.0397C23.66 57.8097 24.3 57.8097 24.69 58.0397Z" fill="#16110D"/>
<path d="M28.4098 55.8991C28.7998 56.1291 28.7998 56.4891 28.4098 56.7191C28.0198 56.9491 27.3798 56.9491 26.9898 56.7191C26.5998 56.4891 26.5998 56.1291 26.9898 55.8991C27.3798 55.6691 28.0198 55.6691 28.4098 55.8991Z" fill="#16110D"/>
<path d="M32.1197 53.7506C32.5097 53.9806 32.5097 54.3406 32.1197 54.5706C31.7297 54.8006 31.0897 54.8006 30.6997 54.5706C30.3097 54.3406 30.3097 53.9806 30.6997 53.7506C31.0897 53.5206 31.7297 53.5206 32.1197 53.7506Z" fill="#16110D"/>
<path d="M35.8297 51.61C36.2197 51.84 36.2197 52.2 35.8297 52.43C35.4397 52.66 34.7997 52.66 34.4097 52.43C34.0197 52.2 34.0197 51.84 34.4097 51.61C34.7997 51.38 35.4397 51.38 35.8297 51.61Z" fill="#16110D"/>
<path d="M39.5397 49.4694C39.9297 49.6994 39.9297 50.0594 39.5397 50.2894C39.1497 50.5194 38.5096 50.5194 38.1196 50.2894C37.7296 50.0594 37.7296 49.6994 38.1196 49.4694C38.5096 49.2394 39.1497 49.2394 39.5397 49.4694Z" fill="#16110D"/>
<path d="M43.2496 47.3209C43.6396 47.5509 43.6396 47.9109 43.2496 48.1409C42.8596 48.3709 42.2196 48.3709 41.8296 48.1409C41.4396 47.9109 41.4396 47.5509 41.8296 47.3209C42.2196 47.0909 42.8596 47.0909 43.2496 47.3209Z" fill="#16110D"/>
<path d="M46.9703 45.1803C47.3603 45.4103 47.3603 45.7703 46.9703 46.0003C46.5803 46.2303 45.9403 46.2303 45.5503 46.0003C45.1603 45.7703 45.1603 45.4103 45.5503 45.1803C45.9403 44.9503 46.5803 44.9503 46.9703 45.1803Z" fill="#16110D"/>
<path d="M50.6803 43.0397C51.0703 43.2697 51.0703 43.6297 50.6803 43.8597C50.2903 44.0897 49.6503 44.0897 49.2603 43.8597C48.8703 43.6297 48.8703 43.2697 49.2603 43.0397C49.6503 42.8097 50.2903 42.8097 50.6803 43.0397Z" fill="#16110D"/>
<path d="M54.3902 40.8912C54.7802 41.1213 54.7802 41.4812 54.3902 41.7112C54.0002 41.9412 53.3602 41.9412 52.9702 41.7112C52.5802 41.4812 52.5802 41.1213 52.9702 40.8912C53.3602 40.6612 54.0002 40.6612 54.3902 40.8912Z" fill="#16110D"/>
<path d="M58.1002 38.7506C58.4902 38.9806 58.4902 39.3406 58.1002 39.5706C57.7102 39.8006 57.0702 39.8006 56.6802 39.5706C56.2902 39.3406 56.2902 38.9806 56.6802 38.7506C57.0702 38.5206 57.7102 38.5206 58.1002 38.7506Z" fill="#16110D"/>
<path d="M61.8102 36.61C62.2002 36.84 62.2002 37.2 61.8102 37.43C61.4202 37.66 60.7802 37.66 60.3902 37.43C60.0002 37.2 60.0002 36.84 60.3902 36.61C60.7802 36.38 61.4202 36.38 61.8102 36.61Z" fill="#16110D"/>
<path d="M65.5299 35.2894C65.1399 35.5194 64.4999 35.5194 64.1099 35.2894C63.7199 35.0594 63.7199 34.6994 64.1099 34.4694C64.4999 34.2394 65.1399 34.2394 65.5299 34.4694" fill="#16110D"/>
<path d="M20.9801 55.8991C21.3701 56.1291 21.3701 56.4891 20.9801 56.7191C20.5901 56.9491 19.9501 56.9491 19.5601 56.7191C19.1701 56.4891 19.1701 56.1291 19.5601 55.8991C19.9501 55.6691 20.5901 55.6691 20.9801 55.8991Z" fill="#16110D"/>
<path d="M24.69 53.7506C25.08 53.9806 25.08 54.3406 24.69 54.5706C24.3 54.8006 23.66 54.8006 23.27 54.5706C22.88 54.3406 22.88 53.9806 23.27 53.7506C23.66 53.5206 24.3 53.5206 24.69 53.7506Z" fill="#16110D"/>
<path d="M28.4098 51.61C28.7998 51.84 28.7998 52.2 28.4098 52.43C28.0198 52.66 27.3798 52.66 26.9898 52.43C26.5998 52.2 26.5998 51.84 26.9898 51.61C27.3798 51.38 28.0198 51.38 28.4098 51.61Z" fill="#16110D"/>
<path d="M32.1197 49.4694C32.5097 49.6994 32.5097 50.0594 32.1197 50.2894C31.7297 50.5194 31.0897 50.5194 30.6997 50.2894C30.3097 50.0594 30.3097 49.6994 30.6997 49.4694C31.0897 49.2394 31.7297 49.2394 32.1197 49.4694Z" fill="#16110D"/>
<path d="M35.8297 47.3209C36.2197 47.5509 36.2197 47.9109 35.8297 48.1409C35.4397 48.3709 34.7997 48.3709 34.4097 48.1409C34.0197 47.9109 34.0197 47.5509 34.4097 47.3209C34.7997 47.0909 35.4397 47.0909 35.8297 47.3209Z" fill="#16110D"/>
<path d="M39.5397 45.1803C39.9297 45.4103 39.9297 45.7703 39.5397 46.0003C39.1497 46.2303 38.5096 46.2303 38.1196 46.0003C37.7296 45.7703 37.7296 45.4103 38.1196 45.1803C38.5096 44.9503 39.1497 44.9503 39.5397 45.1803Z" fill="#16110D"/>
<path d="M43.2496 43.0397C43.6396 43.2697 43.6396 43.6297 43.2496 43.8597C42.8596 44.0897 42.2196 44.0897 41.8296 43.8597C41.4396 43.6297 41.4396 43.2697 41.8296 43.0397C42.2196 42.8097 42.8596 42.8097 43.2496 43.0397Z" fill="#16110D"/>
<path d="M46.9703 40.8912C47.3603 41.1213 47.3603 41.4812 46.9703 41.7112C46.5803 41.9412 45.9403 41.9412 45.5503 41.7112C45.1603 41.4812 45.1603 41.1213 45.5503 40.8912C45.9403 40.6612 46.5803 40.6612 46.9703 40.8912Z" fill="#16110D"/>
<path d="M50.6803 38.7506C51.0703 38.9806 51.0703 39.3406 50.6803 39.5706C50.2903 39.8006 49.6503 39.8006 49.2603 39.5706C48.8703 39.3406 48.8703 38.9806 49.2603 38.7506C49.6503 38.5206 50.2903 38.5206 50.6803 38.7506Z" fill="#16110D"/>
<path d="M54.3902 36.61C54.7802 36.84 54.7802 37.2 54.3902 37.43C54.0002 37.66 53.3602 37.66 52.9702 37.43C52.5802 37.2 52.5802 36.84 52.9702 36.61C53.3602 36.38 54.0002 36.38 54.3902 36.61Z" fill="#16110D"/>
<path d="M58.1002 34.4694C58.4902 34.6994 58.4902 35.0594 58.1002 35.2894C57.7102 35.5194 57.0702 35.5194 56.6802 35.2894C56.2902 35.0594 56.2902 34.6994 56.6802 34.4694C57.0702 34.2394 57.7102 34.2394 58.1002 34.4694Z" fill="#16110D"/>
<path d="M61.8102 32.3209C62.2002 32.5509 62.2002 32.9109 61.8102 33.1409C61.4202 33.3709 60.7802 33.3709 60.3902 33.1409C60.0002 32.9109 60.0002 32.5509 60.3902 32.3209C60.7802 32.0909 61.4202 32.0909 61.8102 32.3209Z" fill="#16110D"/>
<path d="M65.5299 31.0003C65.1399 31.2303 64.4999 31.2303 64.1099 31.0003C63.7199 30.7703 63.7199 30.4103 64.1099 30.1803C64.4999 29.9503 65.1399 29.9503 65.5299 30.1803" fill="#16110D"/>
<path d="M17.2398 53.7311C17.6298 53.9611 17.6298 54.3211 17.2398 54.5511C16.8498 54.7811 16.2098 54.7811 15.8198 54.5511C15.4298 54.3211 15.4298 53.9611 15.8198 53.7311C16.2098 53.5011 16.8498 53.5011 17.2398 53.7311Z" fill="#16110D"/>
<path d="M20.9498 51.5905C21.3398 51.8205 21.3398 52.1805 20.9498 52.4105C20.5598 52.6405 19.9198 52.6405 19.5298 52.4105C19.1398 52.1805 19.1398 51.8205 19.5298 51.5905C19.9198 51.3605 20.5598 51.3605 20.9498 51.5905Z" fill="#16110D"/>
<path d="M24.6598 49.4401C25.0498 49.6701 25.0498 50.0301 24.6598 50.2601C24.2698 50.4901 23.6298 50.4901 23.2398 50.2601C22.8498 50.0301 22.8498 49.6701 23.2398 49.4401C23.6298 49.2101 24.2698 49.2101 24.6598 49.4401Z" fill="#16110D"/>
<path d="M28.3697 47.2995C28.7597 47.5295 28.7597 47.8895 28.3697 48.1195C27.9797 48.3495 27.3397 48.3495 26.9497 48.1195C26.5597 47.8895 26.5597 47.5295 26.9497 47.2995C27.3397 47.0695 27.9797 47.0695 28.3697 47.2995Z" fill="#16110D"/>
<path d="M32.0904 45.1608C32.4804 45.3908 32.4804 45.7508 32.0904 45.9808C31.7004 46.2108 31.0604 46.2108 30.6704 45.9808C30.2804 45.7508 30.2804 45.3908 30.6704 45.1608C31.0604 44.9308 31.7004 44.9308 32.0904 45.1608Z" fill="#16110D"/>
<path d="M35.8004 43.0202C36.1904 43.2502 36.1904 43.6102 35.8004 43.8402C35.4104 44.0702 34.7704 44.0702 34.3804 43.8402C33.9904 43.6102 33.9904 43.2502 34.3804 43.0202C34.7704 42.7902 35.4104 42.7902 35.8004 43.0202Z" fill="#16110D"/>
<path d="M39.5103 40.8698C39.9003 41.0998 39.9003 41.4598 39.5103 41.6898C39.1203 41.9198 38.4804 41.9198 38.0904 41.6898C37.7004 41.4598 37.7004 41.0998 38.0904 40.8698C38.4804 40.6398 39.1203 40.6398 39.5103 40.8698Z" fill="#16110D"/>
<path d="M43.2203 38.7311C43.6103 38.9611 43.6103 39.3211 43.2203 39.5511C42.8303 39.7811 42.1903 39.7811 41.8003 39.5511C41.4103 39.3211 41.4103 38.9611 41.8003 38.7311C42.1903 38.5011 42.8303 38.5011 43.2203 38.7311Z" fill="#16110D"/>
<path d="M46.9303 36.5905C47.3203 36.8205 47.3203 37.1805 46.9303 37.4105C46.5403 37.6405 45.9003 37.6405 45.5103 37.4105C45.1203 37.1805 45.1203 36.8205 45.5103 36.5905C45.9003 36.3605 46.5403 36.3605 46.9303 36.5905Z" fill="#16110D"/>
<path d="M50.65 34.4401C51.04 34.6701 51.04 35.0301 50.65 35.2601C50.26 35.4901 49.62 35.4901 49.23 35.2601C48.84 35.0301 48.84 34.6701 49.23 34.4401C49.62 34.2101 50.26 34.2101 50.65 34.4401Z" fill="#16110D"/>
<path d="M54.36 32.2995C54.75 32.5295 54.75 32.8895 54.36 33.1195C53.97 33.3495 53.33 33.3495 52.94 33.1195C52.55 32.8895 52.55 32.5295 52.94 32.2995C53.33 32.0695 53.97 32.0695 54.36 32.2995Z" fill="#16110D"/>
<path d="M13.5299 51.5905C13.9199 51.8205 13.9199 52.1805 13.5299 52.4105C13.1399 52.6405 12.4999 52.6405 12.1099 52.4105C11.7199 52.1805 11.7199 51.8205 12.1099 51.5905C12.4999 51.3605 13.1399 51.3605 13.5299 51.5905Z" fill="#16110D"/>
<path d="M17.2398 49.4401C17.6298 49.6701 17.6298 50.0301 17.2398 50.2601C16.8498 50.4901 16.2098 50.4901 15.8198 50.2601C15.4298 50.0301 15.4298 49.6701 15.8198 49.4401C16.2098 49.2101 16.8498 49.2101 17.2398 49.4401Z" fill="#16110D"/>
<path d="M20.9498 47.2995C21.3398 47.5295 21.3398 47.8895 20.9498 48.1195C20.5598 48.3495 19.9198 48.3495 19.5298 48.1195C19.1398 47.8895 19.1398 47.5295 19.5298 47.2995C19.9198 47.0695 20.5598 47.0695 20.9498 47.2995Z" fill="#16110D"/>
<path d="M24.6598 45.1608C25.0498 45.3908 25.0498 45.7508 24.6598 45.9808C24.2698 46.2108 23.6298 46.2108 23.2398 45.9808C22.8498 45.7508 22.8498 45.3908 23.2398 45.1608C23.6298 44.9308 24.2698 44.9308 24.6598 45.1608Z" fill="#16110D"/>
<path d="M26.9605 43.0202C27.3505 42.7902 27.9905 42.7902 28.3805 43.0202C28.7705 43.2502 28.7705 43.6102 28.3805 43.8402C27.9905 44.0702 27.3505 44.0702 26.9605 43.8402C26.5705 43.6102 26.5705 43.2502 26.9605 43.0202C27.3505 42.7902 26.5705 43.2502 26.9605 43.0202Z" fill="#16110D"/>
<path d="M30.6704 40.8698C31.0604 40.6398 31.7004 40.6398 32.0904 40.8698C32.4804 41.0998 32.4804 41.4598 32.0904 41.6898C31.7004 41.9198 31.0604 41.9198 30.6704 41.6898C30.2804 41.4598 30.2804 41.0998 30.6704 40.8698C31.0604 40.6398 30.2804 41.0998 30.6704 40.8698Z" fill="#16110D"/>
<path d="M35.8004 38.7311C36.1904 38.9611 36.1904 39.3211 35.8004 39.5511C35.4104 39.7811 34.7704 39.7811 34.3804 39.5511C33.9904 39.3211 33.9904 38.9611 34.3804 38.7311C34.7704 38.5011 35.4104 38.5011 35.8004 38.7311Z" fill="#16110D"/>
<path d="M39.5103 36.5905C39.9003 36.8205 39.9003 37.1805 39.5103 37.4105C39.1203 37.6405 38.4804 37.6405 38.0904 37.4105C37.7004 37.1805 37.7004 36.8205 38.0904 36.5905C38.4804 36.3605 39.1203 36.3605 39.5103 36.5905Z" fill="#16110D"/>
<path d="M13.5299 47.2995C13.9199 47.5295 13.9199 47.8895 13.5299 48.1195C13.1399 48.3495 12.4999 48.3495 12.1099 48.1195C11.7199 47.8895 11.7199 47.5295 12.1099 47.2995C12.4999 47.0695 13.1399 47.0695 13.5299 47.2995Z" fill="#16110D"/>
<path d="M50.7203 68.6491C51.1103 68.8791 51.1103 69.2391 50.7203 69.4691C50.3303 69.6991 49.6903 69.6991 49.3003 69.4691C48.9103 69.2391 48.9103 68.8791 49.3003 68.6491C49.6903 68.4191 50.3303 68.4191 50.7203 68.6491Z" fill="#16110D"/>
<path d="M54.4303 66.5104C54.8203 66.7404 54.8203 67.1004 54.4303 67.3304C54.0403 67.5604 53.4003 67.5604 53.0103 67.3304C52.6203 67.1004 52.6203 66.7404 53.0103 66.5104C53.4003 66.2804 54.0403 66.2804 54.4303 66.5104Z" fill="#16110D"/>
<path d="M58.1402 64.3698C58.5302 64.5998 58.5302 64.9598 58.1402 65.1898C57.7502 65.4198 57.1102 65.4198 56.7202 65.1898C56.3302 64.9598 56.3302 64.5998 56.7202 64.3698C57.1102 64.1398 57.7502 64.1398 58.1402 64.3698Z" fill="#16110D"/>
<path d="M61.8502 62.2194C62.2402 62.4494 62.2402 62.8094 61.8502 63.0394C61.4602 63.2694 60.8202 63.2694 60.4302 63.0394C60.0402 62.8094 60.0402 62.4494 60.4302 62.2194C60.8202 61.9894 61.4602 61.9894 61.8502 62.2194Z" fill="#16110D"/>
<path d="M65.5699 60.8987C65.1799 61.1287 64.5399 61.1287 64.1499 60.8987C63.7599 60.6687 63.7599 60.3088 64.1499 60.0787C64.5399 59.8487 65.1799 59.8487 65.5699 60.0787" fill="#16110D"/>
<path d="M43.2897 68.6491C43.6797 68.8791 43.6797 69.2391 43.2897 69.4691C42.8997 69.6991 42.2596 69.6991 41.8696 69.4691C41.4796 69.2391 41.4796 68.8791 41.8696 68.6491C42.2596 68.4191 42.8997 68.4191 43.2897 68.6491Z" fill="#16110D"/>
<path d="M47.0103 66.5104C47.4003 66.7404 47.4003 67.1004 47.0103 67.3304C46.6203 67.5604 45.9804 67.5604 45.5904 67.3304C45.2004 67.1004 45.2004 66.7404 45.5904 66.5104C45.9804 66.2804 46.6203 66.2804 47.0103 66.5104Z" fill="#16110D"/>
<path d="M50.7203 64.3698C51.1103 64.5998 51.1103 64.9598 50.7203 65.1898C50.3303 65.4198 49.6903 65.4198 49.3003 65.1898C48.9103 64.9598 48.9103 64.5998 49.3003 64.3698C49.6903 64.1398 50.3303 64.1398 50.7203 64.3698Z" fill="#16110D"/>
<path d="M54.4303 62.2194C54.8203 62.4494 54.8203 62.8094 54.4303 63.0394C54.0403 63.2694 53.4003 63.2694 53.0103 63.0394C52.6203 62.8094 52.6203 62.4494 53.0103 62.2194C53.4003 61.9894 54.0403 61.9894 54.4303 62.2194Z" fill="#16110D"/>
<path d="M58.1402 60.0787C58.5302 60.3088 58.5302 60.6687 58.1402 60.8987C57.7502 61.1287 57.1102 61.1287 56.7202 60.8987C56.3302 60.6687 56.3302 60.3088 56.7202 60.0787C57.1102 59.8487 57.7502 59.8487 58.1402 60.0787Z" fill="#16110D"/>
<path d="M61.8502 57.9401C62.2402 58.1701 62.2402 58.5301 61.8502 58.7601C61.4602 58.9901 60.8202 58.9901 60.4302 58.7601C60.0402 58.5301 60.0402 58.1701 60.4302 57.9401C60.8202 57.7101 61.4602 57.7101 61.8502 57.9401Z" fill="#16110D"/>
<path d="M65.5699 56.6097C65.1799 56.8397 64.5399 56.8397 64.1499 56.6097C63.7599 56.3797 63.7599 56.0197 64.1499 55.7897C64.5399 55.5597 65.1799 55.5597 65.5699 55.7897" fill="#16110D"/>
<path d="M39.5797 66.5104C39.9697 66.7404 39.9697 67.1004 39.5797 67.3304C39.1897 67.5604 38.5497 67.5604 38.1597 67.3304C37.7697 67.1004 37.7697 66.7404 38.1597 66.5104C38.5497 66.2804 39.1897 66.2804 39.5797 66.5104Z" fill="#16110D"/>
<path d="M43.2897 64.3698C43.6797 64.5998 43.6797 64.9598 43.2897 65.1898C42.8997 65.4198 42.2596 65.4198 41.8696 65.1898C41.4796 64.9598 41.4796 64.5998 41.8696 64.3698C42.2596 64.1398 42.8997 64.1398 43.2897 64.3698Z" fill="#16110D"/>
<path d="M47.0103 62.2194C47.4003 62.4494 47.4003 62.8094 47.0103 63.0394C46.6203 63.2694 45.9804 63.2694 45.5904 63.0394C45.2004 62.8094 45.2004 62.4494 45.5904 62.2194C45.9804 61.9894 46.6203 61.9894 47.0103 62.2194Z" fill="#16110D"/>
<path d="M50.7203 60.0787C51.1103 60.3088 51.1103 60.6687 50.7203 60.8987C50.3303 61.1287 49.6903 61.1287 49.3003 60.8987C48.9103 60.6687 48.9103 60.3088 49.3003 60.0787C49.6903 59.8487 50.3303 59.8487 50.7203 60.0787Z" fill="#16110D"/>
<path d="M54.4303 57.9401C54.8203 58.1701 54.8203 58.5301 54.4303 58.7601C54.0403 58.9901 53.4003 58.9901 53.0103 58.7601C52.6203 58.5301 52.6203 58.1701 53.0103 57.9401C53.4003 57.7101 54.0403 57.7101 54.4303 57.9401Z" fill="#16110D"/>
<path d="M58.1402 55.7897C58.5302 56.0197 58.5302 56.3797 58.1402 56.6097C57.7502 56.8397 57.1102 56.8397 56.7202 56.6097C56.3302 56.3797 56.3302 56.0197 56.7202 55.7897C57.1102 55.5597 57.7502 55.5597 58.1402 55.7897Z" fill="#16110D"/>
<path d="M61.8502 53.6491C62.2402 53.8791 62.2402 54.2391 61.8502 54.4691C61.4602 54.6991 60.8202 54.6991 60.4302 54.4691C60.0402 54.2391 60.0402 53.8791 60.4302 53.6491C60.8202 53.4191 61.4602 53.4191 61.8502 53.6491Z" fill="#16110D"/>
<path d="M65.5699 52.3304C65.1799 52.5604 64.5399 52.5604 64.1499 52.3304C63.7599 52.1004 63.7599 51.7404 64.1499 51.5104C64.5399 51.2804 65.1799 51.2804 65.5699 51.5104" fill="#16110D"/>
<path d="M12.2305 19.25V35.15L42.6805 52.73V36.83L12.2305 19.25Z" fill="#37F2AD"/>
<path d="M65.5805 23.4589L42.6805 36.8289L12.2305 19.2489L35.1405 5.87891L65.5805 23.4589Z" fill="#37F2AD"/>
<path d="M65.5805 28.9589L42.6805 42.3189L12.2305 24.7389L35.1405 11.3789L65.5805 28.9589Z" fill="#FFEECC"/>
<path d="M66.2104 23.1002L35.1404 5.16016L11.6104 18.8902V35.5202L42.6804 53.4602L66.2104 39.7302" fill="#16110D"/>
<path d="M42.0504 51.6498L12.8604 34.7898V20.3398L42.0504 37.1898V51.6498Z" fill="#37F2AD"/>
<path d="M13.4902 19.2494L35.1402 6.60938L64.3302 23.4594L42.6802 36.0994L13.4902 19.2494Z" fill="#37F2AD"/>
<path d="M42.6799 52.7294L42.8099 61.4594L13.8799 44.7594V36.1094L42.6799 52.7294Z" fill="#37F2AD"/>
<path d="M42.6798 52.0095L13.2598 35.0195V45.1195L42.8198 62.1895L63.3098 50.2195V39.9595L42.6798 52.0095ZM14.5098 44.3995V37.1995L42.0598 53.0995L42.1698 60.3695L14.5098 44.3995Z" fill="#16110D"/>
<path d="M42.3701 52.9898V51.5598L62.9901 39.5098L63.0001 40.9498L42.3701 52.9898Z" fill="#37F2AD"/>
<path d="M51.1804 31.1903L21.6904 14.1503L22.3204 13.0703L52.4504 30.4703L51.1804 31.1903Z" fill="#16110D"/>
<path d="M50.3504 57.8392L48.9004 58.6692L51.2004 46.5192L51.1804 31.1992L52.4504 30.4492V46.6392L50.3504 57.8392Z" fill="#37F2AD"/>
<path d="M51.7696 20.2303C51.5096 19.4103 50.8296 18.3603 49.0096 18.0303C46.6396 17.5903 44.4296 19.9203 43.0196 21.9003C43.0496 21.3103 43.0496 20.6803 42.9896 20.0603C42.8196 18.2403 40.2496 15.3903 38.0696 15.1203C37.3396 15.0303 36.0196 15.1603 35.3796 17.0303C34.0996 20.7403 39.4096 23.9703 41.1996 24.9403L41.0696 25.2003L41.8696 25.2803L42.4896 25.5803L42.5396 25.3503C43.3996 25.4303 44.6796 25.5203 45.9896 25.5203C47.9096 25.5203 49.8896 25.3203 50.6196 24.5803C51.5596 23.6403 52.2396 21.7603 51.7696 20.2303ZM36.5696 17.4403C36.8796 16.5303 37.3596 16.3603 37.7396 16.3603C37.7996 16.3603 37.8696 16.3603 37.9196 16.3703C39.5696 16.5703 41.6296 19.0003 41.7396 20.1803C41.8596 21.4903 41.7096 22.8703 41.5796 23.7203C39.3996 22.5103 35.7296 19.8703 36.5696 17.4403ZM49.7396 23.7003C49.1596 24.2803 46.0096 24.3703 43.0696 24.1403C44.2596 22.1403 46.6896 18.9003 48.7896 19.2703C49.7496 19.4503 50.3496 19.9003 50.5696 20.6103C50.8896 21.6403 50.3996 23.0403 49.7396 23.7003Z" fill="#16110D"/>
<path d="M44.0303 29.7705C43.5303 29.7705 43.0003 29.6605 42.4303 29.4005C40.8103 28.6405 41.2903 27.2505 41.5503 26.5005C41.6803 26.1405 41.8203 25.7305 41.7303 25.5505C41.6703 25.4305 41.4603 25.3105 41.1603 25.2105C39.9903 24.8305 39.0103 24.8605 38.2403 25.2905C37.0903 25.9305 36.7503 27.2905 36.7503 27.3005L35.5303 27.0105C35.5503 26.9305 35.9903 25.1205 37.6203 24.2005C38.7103 23.5905 40.0303 23.5305 41.5503 24.0105C42.2103 24.2205 42.6403 24.5405 42.8603 24.9905C43.1803 25.6405 42.9503 26.3205 42.7403 26.9105C42.4103 27.8405 42.4403 28.0105 42.9603 28.2605C44.7503 29.1005 45.9703 27.5705 46.0203 27.5005L47.0203 28.2705C46.5403 28.8905 45.4403 29.7705 44.0203 29.7705H44.0303Z" fill="#16110D"/>
<path d="M47.58 4.67906C47.58 4.67906 47.7699 8.57906 43.5299 9.03906C40.3999 9.37906 38.37 9.96906 37.82 10.1891C37.73 10.2291 37.16 9.86906 37.13 9.78906L36.95 7.73906C36.95 7.73906 39.85 6.40906 40 6.40906C40.15 6.40906 42.52 6.60906 43.54 5.96906C44.55 5.33906 44.26 4.33906 43.83 3.45906C43.4 2.57906 44.16 2.28906 44.16 2.28906L47.07 3.74906L47.18 3.87906C47.39 4.11906 47.53 4.38906 47.58 4.67906Z" fill="#37F2AD"/>
<path d="M37.7996 10.72C37.6396 10.72 37.5096 10.66 37.4396 10.63C37.2796 10.56 36.7396 10.29 36.6296 9.97L36.5996 9.85L36.3796 7.44L36.7196 7.29C39.7296 5.91 39.8496 5.91 39.9896 5.91H40.1096C42.2296 6.03 43.0096 5.7 43.2396 5.55C43.7096 5.26 43.8896 4.85 43.3396 3.72C43.0796 3.19 43.1396 2.79 43.2396 2.54C43.4396 2.04 43.9096 1.85 43.9596 1.83L44.1796 1.75L47.4496 3.43L47.5596 3.56C47.8296 3.87 48.0196 4.23 48.0896 4.61V4.68C48.0896 4.68 48.2596 9.08 43.5796 9.58C40.4496 9.92 38.4596 10.51 38.0096 10.7C37.9396 10.73 37.8596 10.74 37.7996 10.74V10.72ZM37.6296 9.54C37.6896 9.58 37.7496 9.61 37.7996 9.64C38.5296 9.38 40.5096 8.84 43.4696 8.52C46.9896 8.14 47.0596 5.14 47.0596 4.74C47.0196 4.56 46.9196 4.38 46.7896 4.23L46.7396 4.18L44.2196 2.92C44.1996 2.99 44.2196 3.11 44.2896 3.24C44.5596 3.78 45.3796 5.44 43.8096 6.42C43.1096 6.86 41.8496 7.03 40.0696 6.94C39.7896 7.04 38.6296 7.56 37.4996 8.07L37.6296 9.53V9.54Z" fill="#16110D"/>
<path d="M47.42 4.23961C45.94 1.53961 39.62 7.18961 38.61 9.59961C38.61 9.59961 38.61 9.59961 38.61 9.61961C38.33 10.1796 37.51 10.3996 36.86 10.0996L35.79 9.59961C35.79 9.59961 36.53 2.45961 41.63 1.29961C45.48 0.419613 47.43 4.23961 47.43 4.23961H47.42Z" fill="#ECFFF8"/>
<path d="M37.4497 10.7491C37.1697 10.7491 36.8897 10.6891 36.6297 10.5691L35.2197 9.91911L35.2597 9.54911C35.2897 9.23911 36.0997 2.02911 41.4997 0.78911C45.5797 -0.15089 47.7397 3.72911 47.8797 3.98911V3.99911L46.9497 4.48911C46.8297 4.26911 46.5997 4.02911 46.0697 4.04911C43.9697 4.15911 39.8497 7.97911 39.0797 9.79911C38.7797 10.3991 38.1197 10.7491 37.4397 10.7491H37.4497ZM36.3597 9.28911L37.0797 9.61911C37.4997 9.81911 37.9997 9.64911 38.1397 9.37911C39.0097 7.30911 43.2397 3.33911 45.8497 3.02911C44.9797 2.18911 43.6197 1.38911 41.7497 1.80911C37.7097 2.72911 36.5997 7.86911 36.3697 9.28911H36.3597Z" fill="#16110D"/>
<path d="M25.3196 4.40063C25.3196 4.40063 25.1396 8.49062 29.1396 8.97062C32.0896 9.32062 34.0096 9.95063 34.5296 10.1806C34.6196 10.2206 35.1596 9.85062 35.1796 9.76062L35.3496 7.61063C35.3496 7.61063 32.9396 6.73063 32.8096 6.73063C32.6796 6.73063 30.0996 6.42063 29.1396 5.75063C28.1796 5.09063 28.4596 4.04063 28.8696 3.12063C29.2796 2.20063 28.5596 1.89062 28.5596 1.89062L25.8096 3.42063L25.6996 3.55062C25.4996 3.80062 25.3696 4.08063 25.3196 4.39062V4.40063Z" fill="#37F2AD"/>
<path d="M34.55 10.7203C34.48 10.7203 34.4 10.7103 34.32 10.6703C33.89 10.4803 32.03 9.86031 29.08 9.50031C25.53 9.07031 24.73 5.97031 24.8 4.38031V4.32031C24.87 3.93031 25.04 3.56031 25.3 3.24031L25.56 2.98031L28.53 1.32031L28.77 1.42031C28.77 1.42031 29.24 1.63031 29.44 2.12031C29.54 2.37031 29.61 2.79031 29.36 3.34031C28.82 4.56031 29.01 5.02031 29.45 5.33031C30.22 5.86031 32.51 6.20031 32.84 6.21031C32.92 6.21031 33.05 6.21031 35.55 7.12031L35.92 7.26031L35.69 9.91031C35.58 10.2903 34.88 10.6203 34.88 10.6203C34.83 10.6403 34.71 10.7003 34.56 10.7003L34.55 10.7203ZM25.85 4.46031C25.85 4.85031 25.89 8.06031 29.21 8.46031C31.97 8.79031 33.82 9.35031 34.54 9.63031C34.58 9.60031 34.64 9.57031 34.68 9.54031L34.81 7.99031C33.85 7.64031 32.89 7.31031 32.74 7.27031C32.67 7.25031 29.95 6.97031 28.86 6.21031C27.4 5.20031 28.16 3.50031 28.41 2.93031C28.48 2.78031 28.5 2.65031 28.49 2.56031L26.13 3.90031C25.99 4.07031 25.9 4.26031 25.86 4.46031H25.85Z" fill="#16110D"/>
<path d="M25.4705 3.94761C26.8605 1.11761 32.8305 7.04761 33.7905 9.56761C33.7905 9.56761 33.7905 9.56761 33.7905 9.58761C34.0505 10.1676 34.8305 10.4076 35.4405 10.0976L36.4505 9.57761C36.4505 9.57761 35.7505 2.08761 30.9405 0.867611C27.3105 -0.0523893 25.4705 3.95761 25.4705 3.95761V3.94761Z" fill="#ECFFF8"/>
<path d="M34.86 10.7589C34.66 10.7589 34.46 10.7289 34.27 10.6589C33.84 10.5089 33.5 10.1989 33.32 9.80893C32.57 7.83893 28.69 3.82893 26.72 3.72893C26.34 3.71893 26.11 3.84893 25.94 4.17893L24.99 3.72893C25.69 2.20893 27.87 -0.461074 31.07 0.348926C36.18 1.64893 36.94 9.19893 36.97 9.51893L37 9.86893L35.68 10.5489C35.43 10.6789 35.15 10.7489 34.86 10.7489V10.7589ZM26.96 2.69893C29.58 3.02893 33.53 7.41893 34.28 9.38893C34.34 9.50893 34.46 9.61892 34.62 9.66892C34.81 9.73892 35.03 9.71893 35.21 9.62893L35.89 9.27892C35.68 7.83892 34.65 2.34893 30.82 1.36893C29.07 0.928927 27.78 1.80893 26.96 2.69893Z" fill="#16110D"/>
<path d="M37.9994 9.77751C38.0294 9.67751 38.0394 9.56751 38.0294 9.46751C37.9894 9.05751 37.7594 8.11751 36.4994 8.10751C35.2994 8.09751 34.9694 8.92751 34.8794 9.33751C34.8494 9.46751 34.8594 9.59751 34.8894 9.71751V9.76751C35.0094 10.1775 35.4194 10.4575 35.8894 10.4575H37.0194C37.4794 10.4575 37.8794 10.1775 37.9994 9.77751Z" fill="#15100C"/>
<path d="M37.0198 10.9782H35.8898C35.1798 10.9782 34.5698 10.5382 34.3998 9.89825C34.3298 9.64825 34.3298 9.42825 34.3698 9.21825C34.5998 8.17825 35.3798 7.56825 36.5098 7.57825C37.8798 7.58825 38.4598 8.52825 38.5498 9.40825C38.5698 9.57825 38.5498 9.74824 38.4998 9.91824C38.3198 10.5382 37.7098 10.9682 37.0198 10.9682V10.9782ZM36.4798 8.62825C35.8698 8.62825 35.5098 8.89825 35.3898 9.44825C35.3898 9.48825 35.3898 9.53825 35.3898 9.57825C35.4498 9.79825 35.6498 9.92825 35.8798 9.92825H37.0098C37.2298 9.92825 37.4398 9.79825 37.4898 9.62825C37.4998 9.58825 37.4998 9.54825 37.4998 9.51825C37.4098 8.62825 36.7198 8.62825 36.4898 8.62825H36.4698H36.4798Z" fill="#16110D"/>
</svg>
