<svg width="142" height="57" viewBox="0 0 142 57" fill="none" xmlns="http://www.w3.org/2000/svg">
<path d="M36.8404 7.06688C36.8404 4.79279 37.5109 3.04872 38.8518 1.83467C40.2017 0.611557 42.1632 0 44.7363 0C45.3977 0 46.0138 0.0543606 46.5846 0.163082C47.1553 0.262743 47.7397 0.421295 48.3377 0.638738V4.71578C47.3954 4.3262 46.4124 4.13141 45.3886 4.13141C44.3286 4.13141 43.563 4.3262 43.0919 4.71578C42.6298 5.09631 42.3988 5.71239 42.3988 6.56404V7.13483H48.1067V11.2391H42.3988V21.3773H36.8404V11.2391H33.6875V7.13483H36.8404V7.06688ZM50.5937 21.3773V0.448475H56.152V21.3773H50.5937Z" fill="#0E1A2C"/>
<path d="M79.0045 5.84377L78.026 13.6037L79.0045 21.3773H73.2423L72.8346 18.238C72.0826 19.3796 71.1449 20.2629 70.0214 20.8881C68.898 21.5132 67.6431 21.8258 66.2569 21.8258C64.753 21.8258 63.4166 21.486 62.2478 20.8065C61.0881 20.118 60.1867 19.1531 59.5434 17.9118C58.9001 16.6615 58.5785 15.23 58.5785 13.6173C58.5785 11.9956 58.9001 10.5641 59.5434 9.32284C60.1867 8.07255 61.0881 7.10765 62.2478 6.42814C63.4166 5.73957 64.753 5.39529 66.2569 5.39529C67.6341 5.39529 68.8889 5.70333 70.0214 6.31942C71.1539 6.93551 72.0962 7.80981 72.8482 8.94232L73.2423 5.84377H79.0045ZM67.9285 17.5721C68.6624 17.5721 69.3646 17.4045 70.035 17.0692C70.7145 16.7249 71.3079 16.2538 71.8153 15.6559C72.3317 15.0579 72.7168 14.3784 72.9705 13.6173C72.7168 12.8563 72.3317 12.1768 71.8153 11.5788C71.3079 10.9718 70.7145 10.5007 70.035 10.1654C69.3646 9.82115 68.6624 9.64901 67.9285 9.64901C67.2037 9.64901 66.5559 9.82115 65.9851 10.1654C65.4234 10.5007 64.984 10.9718 64.6669 11.5788C64.3498 12.1768 64.1912 12.8563 64.1912 13.6173C64.1912 14.3784 64.3498 15.0579 64.6669 15.6559C64.984 16.2538 65.4234 16.7249 65.9851 17.0692C66.5559 17.4045 67.2037 17.5721 67.9285 17.5721Z" fill="#0E1A2C"/>
<path d="M99.5866 16.3082C99.5866 17.4951 99.2242 18.5007 98.4994 19.3252C97.7836 20.1497 96.7508 20.7748 95.4008 21.2006C94.0509 21.6174 92.4382 21.8258 90.5627 21.8258C88.642 21.8258 86.9477 21.5902 85.48 21.1191C84.0213 20.648 82.8797 19.9866 82.0553 19.1349C81.2308 18.2742 80.7914 17.2821 80.737 16.1587H86.3769C86.5582 16.7929 87.0247 17.2821 87.7767 17.6264C88.5378 17.9707 89.5435 18.1429 90.7937 18.1429C91.9081 18.1429 92.7462 18.0341 93.3079 17.8167C93.8787 17.5992 94.1641 17.2776 94.1641 16.8518C94.1641 16.6072 94.069 16.4124 93.8787 16.2674C93.6975 16.1134 93.3985 15.9911 92.9818 15.9005C92.5741 15.8008 92.0123 15.7238 91.2966 15.6694L88.5514 15.4656C85.8968 15.2663 84.0032 14.7634 82.8707 13.9571C81.7382 13.1507 81.1719 12.0454 81.1719 10.6411C81.1719 9.49952 81.5298 8.53914 82.2455 7.75998C82.9704 6.97175 83.9896 6.38284 85.3033 5.99326C86.617 5.59461 88.1573 5.39529 89.924 5.39529C91.6454 5.39529 93.1901 5.62179 94.5582 6.0748C95.9354 6.5278 97.0316 7.16201 97.847 7.97742C98.6715 8.79283 99.1426 9.73055 99.2604 10.7906H93.6205C93.4755 10.247 93.0769 9.7985 92.4246 9.44516C91.7722 9.09181 90.8526 8.91514 89.6658 8.91514C88.6782 8.91514 87.9217 9.02386 87.3962 9.2413C86.8798 9.44969 86.6216 9.74867 86.6216 10.1383C86.6216 10.4735 86.7847 10.7272 87.1108 10.8993C87.437 11.0714 88.0304 11.1892 88.8911 11.2526L92.4925 11.5244C94.2502 11.6513 95.65 11.914 96.6919 12.3127C97.7338 12.7113 98.4767 13.2413 98.9207 13.9027C99.3646 14.5551 99.5866 15.3569 99.5866 16.3082Z" fill="#0E1A2C"/>
<path d="M136.088 5.84377H142L134.539 21.6763C133.778 23.298 132.786 24.4759 131.563 25.2097C130.34 25.9436 128.994 26.3105 127.527 26.3105C126.394 26.3105 125.379 26.1701 124.482 25.8892C123.595 25.6174 122.729 25.178 121.887 24.571V20.725C122.747 21.2686 123.549 21.6582 124.292 21.8937C125.035 22.1293 125.851 22.2471 126.738 22.2471C127.545 22.2471 128.224 22.0749 128.777 21.7307C129.33 21.3864 129.783 20.7975 130.136 19.9639L130.15 19.9232H127.717L121.112 5.84377H127.241L131.617 16.4441L136.088 5.84377Z" fill="#0E1A2C"/>
<g clip-path="url(#clip0_1038_76385)">
<path d="M34.4475 10.1082L26.9342 20.2588C26.9342 20.2588 21.8029 25.9591 26.2925 26.9649H22.8719C21.1002 26.9649 19.5122 25.9894 18.7183 24.4046C17.8937 22.8195 18.0765 20.9295 19.1153 19.4967L28.2168 7.24281C28.2168 7.24281 35.8829 6.51124 34.4475 10.1082Z" fill="url(#paint0_linear_1038_76385)"/>
<path d="M36.2192 7.73082L34.4478 10.1087C35.8831 6.51164 28.217 7.24321 28.217 7.24321H16.1528C15.2057 7.24321 14.3504 7.8528 13.9844 8.73692C14.2285 7.82254 16.4585 0.537109 20.5512 0.537109H32.5847C34.2952 0.537109 35.8225 1.48207 36.6165 3.00604C37.3801 4.53002 37.2273 6.35909 36.2195 7.73082H36.2192Z" fill="url(#paint1_linear_1038_76385)"/>
<path d="M20.5512 0.537109C16.4586 0.537109 14.2289 7.82254 13.9851 8.73693C13.9544 8.79807 13.9544 8.82833 13.9544 8.82833L6.74593 29.4648C6.68467 29.6171 6.7153 29.7696 6.80719 29.9222C6.89878 30.0442 7.05163 30.105 7.20418 30.105C7.20418 30.105 0.057234 30.7754 1.4623 24.2219L7.60116 6.60305C8.8837 2.97578 12.3049 0.537109 16.1532 0.537109H20.5509H20.5512Z" fill="url(#paint2_linear_1038_76385)"/>
<path d="M14.5038 36.8119H7.20398C4.88273 36.8119 2.68369 35.6841 1.33959 33.7939C-0.00391155 31.904 -0.37057 29.4656 0.393072 27.2709L1.46211 24.2227C0.0573514 30.7762 7.20398 30.1058 7.20398 30.1058H13.6179C16.7028 30.1058 14.5038 36.8119 14.5038 36.8119Z" fill="url(#paint3_linear_1038_76385)"/>
<path d="M21.7124 36.1411L19.208 44.7066C19.208 44.7066 12.2136 53.9733 11.1445 48.3339L14.5045 36.8116C14.5045 36.8116 16.7035 30.1055 13.6186 30.1055H17.1618C18.6278 30.1055 20.0635 30.8065 20.9491 31.9954C21.8346 33.1843 22.1097 34.7385 21.7127 36.1408L21.7124 36.1411Z" fill="url(#paint4_linear_1038_76385)"/>
<path d="M42.3891 30.0438C42.3891 30.0744 42.3585 30.0744 42.3585 30.105L18.9325 54.7347C17.9859 55.7405 16.7028 56.2586 15.3899 56.2586C14.5347 56.2586 13.7101 56.0453 12.9465 55.5879C10.9612 54.4601 10.045 52.174 10.6558 49.979L11.1441 48.333C12.2134 53.9725 19.2075 44.7058 19.2075 44.7058L36.0668 26.965C36.0668 26.965 44.3744 25.9592 42.3888 30.0438H42.3891Z" fill="url(#paint5_linear_1038_76385)"/>
<path d="M44.4658 27.85L42.3887 30.0447C44.3739 25.9601 36.0667 26.9659 36.0667 26.9659H26.2928C21.8031 25.9601 26.9345 20.2598 26.9345 20.2598H41.1974C42.9998 20.2598 44.6181 21.3267 45.3511 22.9727C46.0538 24.6492 45.7174 26.5697 44.4655 27.85H44.4658Z" fill="url(#paint6_linear_1038_76385)"/>
<path d="M45.6468 4.14508C44.8314 4.14508 44.1882 4.24021 43.717 4.43047C43.2459 4.62073 42.9062 4.91066 42.6978 5.30024C42.4984 5.68983 42.3988 6.20172 42.3988 6.83593V7.1485H48.7182V11.2527H42.3988H37.4964H36.8404H33.6875V7.1485H36.8404V7.13491C36.8404 4.85177 37.5335 3.09411 38.9197 1.86193C40.3059 0.629759 42.3218 0.0136719 44.9673 0.0136719C45.7193 0.0136719 46.4079 0.0680323 47.033 0.176753C47.6582 0.276415 48.3467 0.434967 49.0987 0.65241V4.72945C47.9843 4.33987 46.8337 4.14508 45.6468 4.14508Z" fill="#0E1A2C"/>
</g>
<path d="M57.0055 34.771C56.8515 36.1481 56.3441 37.3667 55.4834 38.4267C54.6227 39.4867 53.4947 40.3112 52.0995 40.9001C50.7042 41.48 49.155 41.7699 47.4517 41.7699C45.5581 41.7699 43.8775 41.4256 42.4097 40.737C40.951 40.0485 39.814 39.0836 38.9986 37.8423C38.1922 36.592 37.7891 35.1651 37.7891 33.5614C37.7891 31.9578 38.1922 30.5354 38.9986 29.2941C39.814 28.0438 40.951 27.0744 42.4097 26.3858C43.8775 25.6882 45.5581 25.3394 47.4517 25.3394C49.155 25.3394 50.7042 25.6338 52.0995 26.2228C53.4947 26.8026 54.6227 27.6271 55.4834 28.6962C56.3441 29.7562 56.8515 30.9748 57.0055 32.3519H51.4879C51.2977 31.4368 50.8401 30.7302 50.1153 30.2318C49.3905 29.7245 48.5026 29.4708 47.4517 29.4708C46.6272 29.4708 45.9069 29.6294 45.2908 29.9465C44.6838 30.2636 44.2127 30.7302 43.8775 31.3462C43.5513 31.9623 43.3882 32.7007 43.3882 33.5614C43.3882 34.857 43.7506 35.8627 44.4754 36.5784C45.2093 37.2851 46.2014 37.6385 47.4517 37.6385C48.4936 37.6385 49.3769 37.3803 50.1017 36.8638C50.8356 36.3384 51.2977 35.6407 51.4879 34.771H57.0055Z" fill="#101828"/>
<path d="M78.9868 25.7879L78.0083 33.5478L78.9868 41.3214H73.2245L72.8168 38.1821C72.0648 39.3237 71.1271 40.207 70.0037 40.8322C68.8802 41.4573 67.6254 41.7699 66.2392 41.7699C64.7352 41.7699 63.3989 41.4301 62.2301 40.7506C61.0704 40.0621 60.1689 39.0972 59.5257 37.8559C58.8824 36.6056 58.5608 35.1741 58.5608 33.5614C58.5608 31.9397 58.8824 30.5082 59.5257 29.2669C60.1689 28.0167 61.0704 27.0518 62.2301 26.3722C63.3989 25.6837 64.7352 25.3394 66.2392 25.3394C67.6163 25.3394 68.8712 25.6474 70.0037 26.2635C71.1362 26.8796 72.0784 27.7539 72.8304 28.8864L73.2245 25.7879H78.9868ZM67.9108 37.5162C68.6447 37.5162 69.3468 37.3486 70.0173 37.0133C70.6968 36.6691 71.2902 36.1979 71.7976 35.6C72.314 35.002 72.699 34.3225 72.9527 33.5614C72.699 32.8004 72.314 32.1209 71.7976 31.5229C71.2902 30.9159 70.6968 30.4448 70.0173 30.1095C69.3468 29.7653 68.6447 29.5931 67.9108 29.5931C67.186 29.5931 66.5382 29.7653 65.9674 30.1095C65.4057 30.4448 64.9662 30.9159 64.6491 31.5229C64.332 32.1209 64.1735 32.8004 64.1735 33.5614C64.1735 34.3225 64.332 35.002 64.6491 35.6C64.9662 36.1979 65.4057 36.6691 65.9674 37.0133C66.5382 37.3486 67.186 37.5162 67.9108 37.5162Z" fill="#101828"/>
<path d="M99.5688 36.2523C99.5688 37.4392 99.2064 38.4448 98.4816 39.2693C97.7659 40.0938 96.733 40.7189 95.3831 41.1447C94.0331 41.5615 92.4204 41.7699 90.545 41.7699C88.6242 41.7699 86.93 41.5343 85.4623 41.0632C84.0036 40.5921 82.862 39.9307 82.0375 39.079C81.2131 38.2183 80.7736 37.2262 80.7193 36.1028H86.3592C86.5404 36.737 87.007 37.2262 87.759 37.5705C88.52 37.9148 89.5257 38.087 90.776 38.087C91.8904 38.087 92.7285 37.9782 93.2902 37.7608C93.861 37.5434 94.1464 37.2217 94.1464 36.7959C94.1464 36.5513 94.0512 36.3565 93.861 36.2115C93.6798 36.0575 93.3808 35.9352 92.964 35.8446C92.5563 35.7449 91.9946 35.6679 91.2788 35.6135L88.5336 35.4097C85.879 35.2104 83.9855 34.7075 82.8529 33.9012C81.7204 33.0948 81.1542 31.9895 81.1542 30.5852C81.1542 29.4436 81.5121 28.4832 82.2278 27.7041C82.9526 26.9159 83.9719 26.3269 85.2856 25.9374C86.5993 25.5387 88.1395 25.3394 89.9062 25.3394C91.6277 25.3394 93.1724 25.5659 94.5405 26.0189C95.9176 26.4719 97.0139 27.1061 97.8293 27.9215C98.6538 28.7369 99.1249 29.6747 99.2427 30.7347H93.6028C93.4578 30.1911 93.0591 29.7426 92.4068 29.3893C91.7545 29.0359 90.8349 28.8592 89.648 28.8592C88.6605 28.8592 87.9039 28.968 87.3785 29.1854C86.862 29.3938 86.6038 29.6928 86.6038 30.0824C86.6038 30.4176 86.7669 30.6713 87.0931 30.8434C87.4192 31.0155 88.0127 31.1333 88.8734 31.1967L92.4748 31.4686C94.2324 31.5954 95.6322 31.8581 96.6741 32.2568C97.716 32.6554 98.459 33.1854 98.9029 33.8468C99.3469 34.4992 99.5688 35.301 99.5688 36.2523Z" fill="#101828"/>
<path d="M113.16 25.3394C114.628 25.3394 115.892 25.6384 116.952 26.2363C118.012 26.8252 118.818 27.6678 119.371 28.7641C119.933 29.8604 120.214 31.1514 120.214 32.6373V41.3214H114.655V33.4527C114.655 32.293 114.361 31.4051 113.772 30.789C113.183 30.173 112.34 29.8649 111.244 29.8649C110.474 29.8649 109.803 30.028 109.233 30.3542C108.671 30.6713 108.236 31.1333 107.928 31.7404C107.629 32.3383 107.48 33.0405 107.48 33.8468V41.3214H101.921V20.3926H107.48V28.2477C108.159 27.2964 108.988 26.5761 109.967 26.0869C110.945 25.5885 112.01 25.3394 113.16 25.3394Z" fill="#101828"/>
<path d="M113.159 5.40971C114.627 5.40971 115.891 5.70869 116.951 6.30666C118.011 6.89556 118.817 7.73815 119.37 8.83442C119.931 9.9307 120.212 11.2218 120.212 12.7076V21.3917H114.654V13.523C114.654 12.3633 114.359 11.4754 113.771 10.8594C113.182 10.2433 112.339 9.93523 111.243 9.93523C110.473 9.93523 109.802 10.0983 109.231 10.4245C108.67 10.7416 108.235 11.2036 107.927 11.8107C107.628 12.4086 107.478 13.1108 107.478 13.9171V21.3917H101.92V0.462891H107.478V8.318C108.158 7.36669 108.987 6.64641 109.965 6.15716C110.944 5.65886 112.008 5.40971 113.159 5.40971Z" fill="#0E1A2C"/>
<defs>
<linearGradient id="paint0_linear_1038_76385" x1="30.6407" y1="8.55928" x2="26.4639" y2="26.3789" gradientUnits="userSpaceOnUse">
<stop stop-color="#13CF61"/>
<stop offset="1" stop-color="#4AFFB3"/>
</linearGradient>
<linearGradient id="paint1_linear_1038_76385" x1="16.6287" y1="3.83314" x2="26.4593" y2="-4.07452" gradientUnits="userSpaceOnUse">
<stop stop-color="#13CF61"/>
<stop offset="1" stop-color="#4AFFB3"/>
</linearGradient>
<linearGradient id="paint2_linear_1038_76385" x1="4.04839" y1="23.5471" x2="13.576" y2="1.15159" gradientUnits="userSpaceOnUse">
<stop stop-color="#13CF61"/>
<stop offset="1" stop-color="#4AFFB3"/>
</linearGradient>
<linearGradient id="paint3_linear_1038_76385" x1="15.3206" y1="33.3118" x2="2.16138" y2="34.9278" gradientUnits="userSpaceOnUse">
<stop stop-color="#13CF61"/>
<stop offset="1" stop-color="#4AFFB3"/>
</linearGradient>
<linearGradient id="paint4_linear_1038_76385" x1="10.0982" y1="37.1495" x2="20.833" y2="34.9052" gradientUnits="userSpaceOnUse">
<stop stop-color="#13CF61"/>
<stop offset="1" stop-color="#4AFFB3"/>
</linearGradient>
<linearGradient id="paint5_linear_1038_76385" x1="40" y1="28.5" x2="23.4437" y2="56.6689" gradientUnits="userSpaceOnUse">
<stop stop-color="#13CF61"/>
<stop offset="1" stop-color="#4AFFB3"/>
</linearGradient>
<linearGradient id="paint6_linear_1038_76385" x1="22.381" y1="23.6977" x2="35.2817" y2="12.7635" gradientUnits="userSpaceOnUse">
<stop stop-color="#13CF61"/>
<stop offset="1" stop-color="#4AFFB3"/>
</linearGradient>
<clipPath id="clip0_1038_76385">
<rect width="45.7126" height="55.7216" fill="white" transform="translate(0 0.537109)"/>
</clipPath>
</defs>
</svg>
