<svg width="64" height="65" viewBox="0 0 64 65" fill="none" xmlns="http://www.w3.org/2000/svg">
<path d="M24.8357 60.454C24.9777 60.5334 24.9777 60.667 24.8357 60.7464C24.6937 60.8257 24.4682 60.8257 24.3262 60.7464C24.1842 60.667 24.1842 60.5334 24.3262 60.454C24.4682 60.3747 24.6937 60.3747 24.8357 60.454Z" fill="#16110D"/>
<path d="M26.1633 59.6855C26.3053 59.7648 26.3053 59.8985 26.1633 59.9778C26.0214 60.0572 25.7958 60.0572 25.6539 59.9778C25.5119 59.8985 25.5119 59.7648 25.6539 59.6855C25.7958 59.6061 26.0214 59.6061 26.1633 59.6855Z" fill="#16110D"/>
<path d="M27.4959 58.9179C27.6379 58.9973 27.6379 59.1309 27.4959 59.2103C27.3539 59.2896 27.1284 59.2896 26.9864 59.2103C26.8444 59.1309 26.8444 58.9973 26.9864 58.9179C27.1284 58.8386 27.3539 58.8386 27.4959 58.9179Z" fill="#16110D"/>
<path d="M28.8279 58.1494C28.9699 58.2287 28.9699 58.3623 28.8279 58.4417C28.6859 58.5211 28.4604 58.5211 28.3184 58.4417C28.1764 58.3623 28.1764 58.2287 28.3184 58.1494C28.4604 58.07 28.6859 58.07 28.8279 58.1494Z" fill="#16110D"/>
<path d="M30.1599 57.3808C30.3019 57.4602 30.3019 57.5938 30.1599 57.6731C30.0179 57.7525 29.7924 57.7525 29.6504 57.6731C29.5084 57.5938 29.5084 57.4602 29.6504 57.3808C29.7924 57.3015 30.0179 57.3015 30.1599 57.3808Z" fill="#16110D"/>
<path d="M31.4924 56.6122C31.6344 56.6916 31.6344 56.8252 31.4924 56.9046C31.3505 56.9839 31.1249 56.9839 30.983 56.9046C30.841 56.8252 30.841 56.6916 30.983 56.6122C31.1249 56.5329 31.3505 56.5329 31.4924 56.6122Z" fill="#16110D"/>
<path d="M32.8245 55.8437C32.9665 55.923 32.9665 56.0567 32.8245 56.136C32.6825 56.2154 32.457 56.2154 32.315 56.136C32.173 56.0567 32.173 55.923 32.315 55.8437C32.457 55.7643 32.6825 55.7643 32.8245 55.8437Z" fill="#16110D"/>
<path d="M34.1565 55.0712C34.2985 55.1506 34.2985 55.2842 34.1565 55.3636C34.0145 55.4429 33.789 55.4429 33.647 55.3636C33.505 55.2842 33.505 55.1506 33.647 55.0712C33.789 54.9919 34.0145 54.9919 34.1565 55.0712Z" fill="#16110D"/>
<path d="M35.489 54.3027C35.631 54.382 35.631 54.5157 35.489 54.595C35.347 54.6744 35.1215 54.6744 34.9795 54.595C34.8375 54.5157 34.8375 54.382 34.9795 54.3027C35.1215 54.2233 35.347 54.2233 35.489 54.3027Z" fill="#16110D"/>
<path d="M36.8167 53.5341C36.9587 53.6135 36.9587 53.7471 36.8167 53.8265C36.6747 53.9058 36.4492 53.9058 36.3072 53.8265C36.1652 53.7471 36.1652 53.6135 36.3072 53.5341C36.4492 53.4548 36.6747 53.4548 36.8167 53.5341Z" fill="#16110D"/>
<path d="M38.1492 52.7656C38.2912 52.8449 38.2912 52.9786 38.1492 53.0579C38.0072 53.1373 37.7817 53.1373 37.6397 53.0579C37.4977 52.9786 37.4977 52.8449 37.6397 52.7656C37.7817 52.6862 38.0072 52.6862 38.1492 52.7656Z" fill="#16110D"/>
<path d="M22.1585 60.4462C22.3004 60.5256 22.3004 60.6592 22.1585 60.7386C22.0165 60.8179 21.791 60.8179 21.649 60.7386C21.507 60.6592 21.507 60.5256 21.649 60.4462C21.791 60.3669 22.0165 60.3669 22.1585 60.4462Z" fill="#16110D"/>
<path d="M23.491 59.6777C23.633 59.757 23.633 59.8907 23.491 59.97C23.349 60.0494 23.1235 60.0494 22.9815 59.97C22.8395 59.8907 22.8395 59.757 22.9815 59.6777C23.1235 59.5983 23.349 59.5983 23.491 59.6777Z" fill="#16110D"/>
<path d="M24.823 58.9091C24.965 58.9885 24.965 59.1221 24.823 59.2015C24.681 59.2808 24.4555 59.2808 24.3135 59.2015C24.1715 59.1221 24.1715 58.9885 24.3135 58.9091C24.4555 58.8298 24.681 58.8298 24.823 58.9091Z" fill="#16110D"/>
<path d="M26.155 58.1406C26.297 58.2199 26.297 58.3536 26.155 58.4329C26.0131 58.5123 25.7875 58.5123 25.6456 58.4329C25.5036 58.3536 25.5036 58.2199 25.6456 58.1406C25.7875 58.0612 26.0131 58.0612 26.155 58.1406Z" fill="#16110D"/>
<path d="M27.4876 57.372C27.6296 57.4514 27.6296 57.585 27.4876 57.6644C27.3456 57.7437 27.1201 57.7437 26.9781 57.6644C26.8361 57.585 26.8361 57.4514 26.9781 57.372C27.1201 57.2927 27.3456 57.2927 27.4876 57.372Z" fill="#16110D"/>
<path d="M28.8152 56.6035C28.9572 56.6828 28.9572 56.8165 28.8152 56.8958C28.6732 56.9752 28.4477 56.9752 28.3057 56.8958C28.1637 56.8165 28.1637 56.6828 28.3057 56.6035C28.4477 56.5241 28.6732 56.5241 28.8152 56.6035Z" fill="#16110D"/>
<path d="M30.1477 55.8349C30.2897 55.9143 30.2897 56.0479 30.1477 56.1273C30.0057 56.2066 29.7802 56.2066 29.6382 56.1273C29.4962 56.0479 29.4962 55.9143 29.6382 55.8349C29.7802 55.7556 30.0057 55.7556 30.1477 55.8349Z" fill="#16110D"/>
<path d="M31.4797 55.0624C31.6217 55.1418 31.6217 55.2754 31.4797 55.3548C31.3378 55.4341 31.1122 55.4341 30.9703 55.3548C30.8283 55.2754 30.8283 55.1418 30.9703 55.0624C31.1122 54.9831 31.3378 54.9831 31.4797 55.0624Z" fill="#16110D"/>
<path d="M32.8118 54.2939C32.9538 54.3732 32.9538 54.5069 32.8118 54.5862C32.6698 54.6656 32.4443 54.6656 32.3023 54.5862C32.1603 54.5069 32.1603 54.3732 32.3023 54.2939C32.4443 54.2145 32.6698 54.2145 32.8118 54.2939Z" fill="#16110D"/>
<path d="M34.1443 53.5253C34.2863 53.6047 34.2863 53.7383 34.1443 53.8177C34.0023 53.897 33.7768 53.897 33.6348 53.8177C33.4928 53.7383 33.4928 53.6047 33.6348 53.5253C33.7768 53.446 34.0023 53.446 34.1443 53.5253Z" fill="#16110D"/>
<path d="M35.4763 52.7578C35.6183 52.8371 35.6183 52.9708 35.4763 53.0501C35.3343 53.1295 35.1088 53.1295 34.9668 53.0501C34.8249 52.9708 34.8249 52.8371 34.9668 52.7578C35.1088 52.6784 35.3343 52.6784 35.4763 52.7578Z" fill="#16110D"/>
<path d="M36.8084 51.9892C36.9503 52.0686 36.9503 52.2022 36.8084 52.2815C36.6664 52.3609 36.4409 52.3609 36.2989 52.2815C36.1569 52.2022 36.1569 52.0686 36.2989 51.9892C36.4409 51.9098 36.6664 51.9098 36.8084 51.9892Z" fill="#16110D"/>
<path d="M20.8264 59.6777C20.9684 59.757 20.9684 59.8907 20.8264 59.97C20.6844 60.0494 20.4589 60.0494 20.3169 59.97C20.175 59.8907 20.175 59.757 20.3169 59.6777C20.4589 59.5983 20.6844 59.5983 20.8264 59.6777Z" fill="#16110D"/>
<path d="M22.1585 58.9091C22.3004 58.9885 22.3004 59.1221 22.1585 59.2015C22.0165 59.2808 21.791 59.2808 21.649 59.2015C21.507 59.1221 21.507 58.9885 21.649 58.9091C21.791 58.8298 22.0165 58.8298 22.1585 58.9091Z" fill="#16110D"/>
<path d="M23.491 58.1406C23.633 58.2199 23.633 58.3536 23.491 58.4329C23.349 58.5123 23.1235 58.5123 22.9815 58.4329C22.8395 58.3536 22.8395 58.2199 22.9815 58.1406C23.1235 58.0612 23.349 58.0612 23.491 58.1406Z" fill="#16110D"/>
<path d="M24.823 57.372C24.965 57.4514 24.965 57.585 24.823 57.6644C24.681 57.7437 24.4555 57.7437 24.3135 57.6644C24.1715 57.585 24.1715 57.4514 24.3135 57.372C24.4555 57.2927 24.681 57.2927 24.823 57.372Z" fill="#16110D"/>
<path d="M26.155 56.6035C26.297 56.6828 26.297 56.8165 26.155 56.8958C26.0131 56.9752 25.7875 56.9752 25.6456 56.8958C25.5036 56.8165 25.5036 56.6828 25.6456 56.6035C25.7875 56.5241 26.0131 56.5241 26.155 56.6035Z" fill="#16110D"/>
<path d="M27.4876 55.8349C27.6296 55.9143 27.6296 56.0479 27.4876 56.1273C27.3456 56.2066 27.1201 56.2066 26.9781 56.1273C26.8361 56.0479 26.8361 55.9143 26.9781 55.8349C27.1201 55.7556 27.3456 55.7556 27.4876 55.8349Z" fill="#16110D"/>
<path d="M28.8152 55.0624C28.9572 55.1418 28.9572 55.2754 28.8152 55.3548C28.6732 55.4341 28.4477 55.4341 28.3057 55.3548C28.1637 55.2754 28.1637 55.1418 28.3057 55.0624C28.4477 54.9831 28.6732 54.9831 28.8152 55.0624Z" fill="#16110D"/>
<path d="M30.1477 54.2939C30.2897 54.3732 30.2897 54.5069 30.1477 54.5862C30.0057 54.6656 29.7802 54.6656 29.6382 54.5862C29.4962 54.5069 29.4962 54.3732 29.6382 54.2939C29.7802 54.2145 30.0057 54.2145 30.1477 54.2939Z" fill="#16110D"/>
<path d="M31.4797 53.5253C31.6217 53.6047 31.6217 53.7383 31.4797 53.8177C31.3378 53.897 31.1122 53.897 30.9703 53.8177C30.8283 53.7383 30.8283 53.6047 30.9703 53.5253C31.1122 53.446 31.3378 53.446 31.4797 53.5253Z" fill="#16110D"/>
<path d="M32.8118 52.7578C32.9538 52.8371 32.9538 52.9708 32.8118 53.0501C32.6698 53.1295 32.4443 53.1295 32.3023 53.0501C32.1603 52.9708 32.1603 52.8371 32.3023 52.7578C32.4443 52.6784 32.6698 52.6784 32.8118 52.7578Z" fill="#16110D"/>
<path d="M34.1443 51.9892C34.2863 52.0686 34.2863 52.2022 34.1443 52.2815C34.0023 52.3609 33.7768 52.3609 33.6348 52.2815C33.4928 52.2022 33.4928 52.0686 33.6348 51.9892C33.7768 51.9098 34.0023 51.9098 34.1443 51.9892Z" fill="#16110D"/>
<path d="M35.4763 51.2206C35.6183 51.3 35.6183 51.4336 35.4763 51.513C35.3343 51.5923 35.1088 51.5923 34.9668 51.513C34.8249 51.4336 34.8249 51.3 34.9668 51.2206C35.1088 51.1413 35.3343 51.1413 35.4763 51.2206Z" fill="#16110D"/>
<path d="M20.8264 58.1406C20.9684 58.2199 20.9684 58.3536 20.8264 58.4329C20.6844 58.5123 20.4589 58.5123 20.3169 58.4329C20.175 58.3536 20.175 58.2199 20.3169 58.1406C20.4589 58.0612 20.6844 58.0612 20.8264 58.1406Z" fill="#16110D"/>
<path d="M22.1585 57.372C22.3004 57.4514 22.3004 57.585 22.1585 57.6644C22.0165 57.7437 21.791 57.7437 21.649 57.6644C21.507 57.585 21.507 57.4514 21.649 57.372C21.791 57.2927 22.0165 57.2927 22.1585 57.372Z" fill="#16110D"/>
<path d="M23.491 56.6035C23.633 56.6828 23.633 56.8165 23.491 56.8958C23.349 56.9752 23.1235 56.9752 22.9815 56.8958C22.8395 56.8165 22.8395 56.6828 22.9815 56.6035C23.1235 56.5241 23.349 56.5241 23.491 56.6035Z" fill="#16110D"/>
<path d="M24.823 55.8349C24.965 55.9143 24.965 56.0479 24.823 56.1273C24.681 56.2066 24.4555 56.2066 24.3135 56.1273C24.1715 56.0479 24.1715 55.9143 24.3135 55.8349C24.4555 55.7556 24.681 55.7556 24.823 55.8349Z" fill="#16110D"/>
<path d="M25.6456 55.0624C25.7875 54.9831 26.0131 54.9831 26.155 55.0624C26.297 55.1418 26.297 55.2754 26.155 55.3548C26.0131 55.4341 25.7875 55.4341 25.6456 55.3548C25.5036 55.2754 25.5036 55.1418 25.6456 55.0624C25.5036 55.1418 25.7875 54.9831 25.6456 55.0624Z" fill="#16110D"/>
<path d="M26.9781 54.2939C27.1201 54.2145 27.3456 54.2145 27.4876 54.2939C27.6296 54.3732 27.6296 54.5069 27.4876 54.5862C27.3456 54.6656 27.1201 54.6656 26.9781 54.5862C26.8361 54.5069 26.8361 54.3732 26.9781 54.2939C26.8361 54.3732 27.1201 54.2145 26.9781 54.2939Z" fill="#16110D"/>
<path d="M28.3057 53.5253C28.4477 53.446 28.6732 53.446 28.8152 53.5253C28.9572 53.6047 28.9572 53.7383 28.8152 53.8177C28.6732 53.897 28.4477 53.897 28.3057 53.8177C28.1637 53.7383 28.1637 53.6047 28.3057 53.5253C28.1637 53.6047 28.4477 53.446 28.3057 53.5253Z" fill="#16110D"/>
<path d="M29.6382 52.7578C29.7802 52.6784 30.0057 52.6784 30.1477 52.7578C30.2897 52.8371 30.2897 52.9708 30.1477 53.0501C30.0057 53.1295 29.7802 53.1295 29.6382 53.0501C29.4962 52.9708 29.4962 52.8371 29.6382 52.7578C29.4962 52.8371 29.7802 52.6784 29.6382 52.7578Z" fill="#16110D"/>
<path d="M30.9703 51.9892C31.1122 51.9098 31.3378 51.9098 31.4797 51.9892C31.6217 52.0686 31.6217 52.2022 31.4797 52.2815C31.3378 52.3609 31.1122 52.3609 30.9703 52.2815C30.8283 52.2022 30.8283 52.0686 30.9703 51.9892C30.8283 52.0686 31.1122 51.9098 30.9703 51.9892Z" fill="#16110D"/>
<path d="M32.3023 51.2206C32.4443 51.1413 32.6698 51.1413 32.8118 51.2206C32.9538 51.3 32.9538 51.4336 32.8118 51.513C32.6698 51.5923 32.4443 51.5923 32.3023 51.513C32.1603 51.4336 32.1603 51.3 32.3023 51.2206C32.1603 51.3 32.4443 51.1413 32.3023 51.2206Z" fill="#16110D"/>
<path d="M34.1443 50.4521C34.2863 50.5314 34.2863 50.6651 34.1443 50.7444C34.0023 50.8238 33.7768 50.8238 33.6348 50.7444C33.4928 50.6651 33.4928 50.5314 33.6348 50.4521C33.7768 50.3727 34.0023 50.3727 34.1443 50.4521Z" fill="#16110D"/>
<path d="M38.9761 52.0103C39.1181 51.931 39.3436 51.9268 39.4856 52.0103C39.6276 52.0897 39.6276 52.2233 39.4856 52.3027C39.3436 52.382 39.1181 52.3862 38.9761 52.3027C38.8341 52.2233 38.8341 52.0897 38.9761 52.0103Z" fill="#16110D"/>
<path d="M40.8176 51.2372C40.9596 51.3166 40.9596 51.4502 40.8176 51.5296C40.6757 51.6089 40.4501 51.6089 40.3082 51.5296C40.1662 51.4502 40.1662 51.3166 40.3082 51.2372C40.4501 51.1579 40.6757 51.1579 40.8176 51.2372Z" fill="#16110D"/>
<path d="M42.1497 50.4687C42.2917 50.548 42.2917 50.6817 42.1497 50.761C42.0077 50.8404 41.7822 50.8404 41.6402 50.761C41.4982 50.6817 41.4982 50.548 41.6402 50.4687C41.7822 50.3893 42.0077 50.3893 42.1497 50.4687Z" fill="#16110D"/>
<path d="M43.4822 49.9925C43.3402 50.0718 43.1147 50.0718 42.9727 49.9925C42.8307 49.9131 42.8307 49.7795 42.9727 49.7001C43.1147 49.6208 43.3402 49.6208 43.4822 49.7001C43.6242 49.7795 43.6242 49.9131 43.4822 49.9925C43.6242 49.9131 43.3402 50.0718 43.4822 49.9925Z" fill="#16110D"/>
<path d="M37.6314 51.233C37.7734 51.1536 37.9989 51.1494 38.1409 51.233C38.2829 51.3123 38.2829 51.446 38.1409 51.5253C37.9989 51.6047 37.7734 51.6088 37.6314 51.5253C37.4894 51.446 37.4894 51.3123 37.6314 51.233Z" fill="#16110D"/>
<path d="M39.4729 50.4609C39.6149 50.5402 39.6149 50.6739 39.4729 50.7532C39.3309 50.8326 39.1054 50.8326 38.9634 50.7532C38.8214 50.6739 38.8214 50.5402 38.9634 50.4609C39.1054 50.3815 39.3309 50.3815 39.4729 50.4609Z" fill="#16110D"/>
<path d="M40.8049 49.6923C40.9469 49.7717 40.9469 49.9053 40.8049 49.9847C40.663 50.064 40.4374 50.064 40.2955 49.9847C40.1535 49.9053 40.1535 49.7717 40.2955 49.6923C40.4374 49.613 40.663 49.613 40.8049 49.6923Z" fill="#16110D"/>
<path d="M42.1375 48.9238C42.2795 49.0031 42.2795 49.1368 42.1375 49.2161C41.9955 49.2955 41.77 49.2955 41.628 49.2161C41.486 49.1368 41.486 49.0031 41.628 48.9238C41.77 48.8444 41.9955 48.8444 42.1375 48.9238Z" fill="#16110D"/>
<path d="M43.4695 48.1552C43.6115 48.2346 43.6115 48.3682 43.4695 48.4476C43.3275 48.5269 43.102 48.5269 42.96 48.4476C42.818 48.3682 42.818 48.2346 42.96 48.1552C43.102 48.0759 43.3275 48.0759 43.4695 48.1552Z" fill="#16110D"/>
<path d="M36.2989 50.4605C36.4409 50.3812 36.6664 50.377 36.8084 50.4605C36.9503 50.5399 36.9503 50.6735 36.8084 50.7528C36.6664 50.8322 36.4409 50.8364 36.2989 50.7528C36.1569 50.6735 36.1569 50.5399 36.2989 50.4605Z" fill="#16110D"/>
<path d="M38.1448 49.6923C38.2868 49.7717 38.2868 49.9053 38.1448 49.9847C38.0028 50.064 37.7773 50.064 37.6353 49.9847C37.4933 49.9053 37.4933 49.7717 37.6353 49.6923C37.7773 49.613 38.0028 49.613 38.1448 49.6923Z" fill="#16110D"/>
<path d="M39.4729 48.9238C39.6149 49.0031 39.6149 49.1368 39.4729 49.2161C39.3309 49.2955 39.1054 49.2955 38.9634 49.2161C38.8214 49.1368 38.8214 49.0031 38.9634 48.9238C39.1054 48.8444 39.3309 48.8444 39.4729 48.9238Z" fill="#16110D"/>
<path d="M40.8049 48.1552C40.9469 48.2346 40.9469 48.3682 40.8049 48.4476C40.663 48.5269 40.4374 48.5269 40.2955 48.4476C40.1535 48.3682 40.1535 48.2346 40.2955 48.1552C40.4374 48.0759 40.663 48.0759 40.8049 48.1552Z" fill="#16110D"/>
<path d="M42.1375 47.3867C42.2795 47.466 42.2795 47.5997 42.1375 47.679C41.9955 47.7584 41.77 47.7584 41.628 47.679C41.486 47.5997 41.486 47.466 41.628 47.3867C41.77 47.3073 41.9955 47.3073 42.1375 47.3867Z" fill="#16110D"/>
<path d="M34.9668 49.6919C35.1088 49.6126 35.3343 49.6084 35.4763 49.6919C35.6183 49.7713 35.6183 49.9049 35.4763 49.9843C35.3343 50.0636 35.1088 50.0678 34.9668 49.9843C34.8249 49.9049 34.8249 49.7713 34.9668 49.6919Z" fill="#16110D"/>
<path d="M36.8128 48.9238C36.9547 49.0031 36.9547 49.1368 36.8128 49.2161C36.6708 49.2955 36.4453 49.2955 36.3033 49.2161C36.1613 49.1368 36.1613 49.0031 36.3033 48.9238C36.4453 48.8444 36.6708 48.8444 36.8128 48.9238Z" fill="#16110D"/>
<path d="M38.1448 48.1552C38.2868 48.2346 38.2868 48.3682 38.1448 48.4476C38.0028 48.5269 37.7773 48.5269 37.6353 48.4476C37.4933 48.3682 37.4933 48.2346 37.6353 48.1552C37.7773 48.0759 38.0028 48.0759 38.1448 48.1552Z" fill="#16110D"/>
<path d="M39.4729 47.3867C39.6149 47.466 39.6149 47.5997 39.4729 47.679C39.3309 47.7584 39.1054 47.7584 38.9634 47.679C38.8214 47.5997 38.8214 47.466 38.9634 47.3867C39.1054 47.3073 39.3309 47.3073 39.4729 47.3867Z" fill="#16110D"/>
<path d="M40.2955 46.6181C40.4374 46.5388 40.663 46.5388 40.8049 46.6181C40.9469 46.6975 40.9469 46.8311 40.8049 46.9105C40.663 46.9898 40.4374 46.9898 40.2955 46.9105C40.1535 46.8311 40.1535 46.6975 40.2955 46.6181C40.1535 46.6975 40.4374 46.5388 40.2955 46.6181Z" fill="#16110D"/>
<path d="M35.4805 48.1553C35.6225 48.2347 35.6225 48.3683 35.4805 48.4477C35.3385 48.527 35.113 48.527 34.971 48.4477C34.829 48.3683 35.3385 48.0718 35.4805 48.1553Z" fill="#16110D"/>
<path d="M36.8125 47.3868C36.9545 47.4661 36.9545 47.5997 36.8125 47.6791C36.6706 47.7585 36.445 47.7585 36.3031 47.6791C36.1611 47.5997 36.6706 47.3032 36.8125 47.3868Z" fill="#16110D"/>
<path d="M25.9214 57.6772L25.9339 57.6688C25.9339 57.6688 25.9715 57.6563 25.9923 57.6479L41.5443 48.6896C42.4588 48.0882 43.0059 47.065 43.0017 45.9708L42.9892 5.68148C42.985 5.6063 42.9725 5.53948 42.96 5.46848C42.7553 3.97334 40.9763 3.14225 39.6149 3.9274L39.5898 3.93993C39.5898 3.93993 39.5606 3.95246 39.5439 3.96499L24.0045 12.9275C23.1066 13.5205 22.5679 14.527 22.5763 15.6045L22.6055 55.7519C22.6055 55.827 22.6139 55.9022 22.6264 55.9732C22.7308 57.5561 24.5182 58.4916 25.9214 57.6814V57.6772Z" fill="#1BF3A4"/>
<path d="M25.9589 57.7438L25.9255 57.6895L25.9589 57.7438L25.9798 57.7355C25.9798 57.7355 26.0049 57.7271 26.0258 57.7146L41.5819 48.7521C42.5215 48.134 43.0769 47.0899 43.0727 45.9665L43.0602 5.67293C43.056 5.60194 43.0435 5.53094 43.031 5.45576C42.9308 4.74578 42.4672 4.1235 41.7907 3.78939C41.0766 3.43858 40.2413 3.46364 39.5606 3.85622L39.523 3.8771C39.523 3.8771 39.5022 3.88545 39.4938 3.8938L23.9586 12.8605C23.5284 13.1444 23.1776 13.5245 22.9271 13.9547C22.6431 14.4475 22.4886 15.0155 22.4928 15.6043L22.522 55.7517C22.522 55.8269 22.5303 55.8979 22.5429 55.9772C22.593 56.7415 23.0357 57.4139 23.7205 57.7814C24.4305 58.1615 25.2657 58.1489 25.9589 57.748V57.7438ZM26.268 17.4336C26.268 17.4336 24.3344 16.8531 23.6955 16.0637C23.0607 15.2786 23.399 14.3848 23.4032 14.3681C23.6495 13.8878 24.017 13.4744 24.4764 13.1653L40.0158 4.20703C40.0158 4.20703 40.045 4.19033 40.0618 4.18197L40.0868 4.16944C40.6047 3.87292 41.181 3.81028 41.7072 3.93139C41.7113 3.93139 41.7197 3.93139 41.7239 3.93974C42.3545 4.24879 42.7846 4.82513 42.8765 5.48917C42.8932 5.56435 42.9015 5.62699 42.9057 5.68546L42.9182 45.9748C42.9182 46.2004 42.889 46.4259 42.8431 46.643C42.7345 47.0398 42.3252 48.1382 40.9889 48.7187C40.8636 48.773 40.755 48.8189 40.6506 48.8649C40.6339 48.844 40.6172 48.8148 40.6088 48.7813L26.2722 17.4377L26.268 17.4336Z" fill="#16110D"/>
<path d="M22.9478 20.3828V19.7773C22.9478 19.6018 23.0897 19.5434 23.2651 19.6436C23.4405 19.7438 23.5825 19.9694 23.5825 20.1448V20.7503C23.5825 20.9258 23.4405 20.9842 23.2651 20.884C23.0897 20.7838 22.9478 20.5582 22.9478 20.3828V20.3828Z" fill="#1BF3A4"/>
<path d="M23.5787 20.1413C23.5787 19.9659 23.4367 19.7445 23.2613 19.6401C23.2195 19.6151 23.1778 19.6067 23.1402 19.6025C23.1318 19.6234 23.1318 19.6443 23.1318 19.6735V20.2791C23.1318 20.4545 23.2738 20.6759 23.4492 20.7803C23.491 20.8053 23.5286 20.8179 23.5662 20.8262C23.5745 20.8053 23.5787 20.7803 23.5787 20.751V20.1455V20.1413Z" fill="#C5FFE9"/>
<path d="M23.1151 19.5566H23.1485C23.1861 19.5692 23.2321 19.5775 23.2822 19.6068C23.4701 19.7153 23.6204 19.9492 23.6204 20.1413V20.7469C23.6204 20.7761 23.6163 20.8054 23.6079 20.8346L23.5954 20.868H23.562C23.5202 20.8555 23.4743 20.8388 23.4325 20.8137C23.2446 20.7051 23.0942 20.4713 23.0942 20.2792V19.6736C23.0942 19.6443 23.0984 19.6193 23.1068 19.5942L23.1193 19.5608L23.1151 19.5566ZM23.5369 20.1413C23.5369 19.9785 23.4033 19.7696 23.2404 19.6778C23.2195 19.6652 23.1945 19.6569 23.1736 19.6527C23.1736 19.661 23.1736 19.6652 23.1736 19.6736V20.2792C23.1736 20.442 23.3072 20.6508 23.4701 20.7427C23.491 20.7553 23.516 20.7678 23.5369 20.772C23.5369 20.7636 23.5369 20.7553 23.5369 20.7469V20.1413V20.1413Z" fill="#16110D"/>
<path d="M22.6641 20.4911C22.6641 20.3157 22.8061 20.2572 22.9814 20.3575C23.1568 20.4577 23.2988 20.6832 23.2988 20.8586C23.2988 21.034 23.1568 21.0925 22.9814 20.9923C22.8061 20.8921 22.6641 20.6665 22.6641 20.4911Z" fill="#C5FFE9"/>
<path d="M22.6472 20.3575C22.6639 20.3283 22.6889 20.3033 22.714 20.2865C22.7892 20.2448 22.8936 20.2531 23.0021 20.3158C23.1943 20.4244 23.3446 20.6624 23.3446 20.8587C23.3446 20.9506 23.3112 21.0258 23.2444 21.0634C23.1692 21.1051 23.0648 21.0968 22.9562 21.0341C22.7641 20.9255 22.6138 20.6875 22.6138 20.4912C22.6138 20.4369 22.6263 20.391 22.6472 20.3575ZM23.2277 20.9464C23.2444 20.9214 23.2485 20.8879 23.2485 20.8587C23.2485 20.7 23.1149 20.4912 22.9562 20.3993C22.881 20.3534 22.81 20.345 22.7641 20.3701C22.7223 20.3951 22.7098 20.4494 22.7098 20.4912C22.7098 20.6457 22.8435 20.8587 23.0021 20.9506C23.0773 20.9924 23.1483 21.0049 23.1943 20.9798C23.211 20.9715 23.2193 20.9589 23.2277 20.9464Z" fill="#16110D"/>
<path d="M22.9771 20.362C23.1525 20.4623 23.2945 20.6878 23.2945 20.8632C23.2945 20.9384 23.2695 20.9885 23.2235 21.0177L23.4407 20.9217C23.449 20.9217 23.4574 20.9133 23.4658 20.9091L23.4825 20.9008L23.495 20.8924C23.5409 20.8632 23.5618 20.8172 23.5618 20.7379C23.5618 20.5625 23.4198 20.3411 23.2444 20.2367C23.1609 20.1866 23.0815 20.1783 23.0273 20.1991H23.0398H23.0273C23.0273 20.1991 23.0106 20.2075 23.0064 20.2075L22.7642 20.3161C22.8184 20.2952 22.8936 20.3077 22.9771 20.3537V20.362Z" fill="#1BF3A4"/>
<path d="M22.7432 20.2786L22.9854 20.17L23.0063 20.1617H23.0146C23.0856 20.1325 23.1775 20.1492 23.2694 20.2035C23.4615 20.312 23.6118 20.5501 23.6118 20.7464C23.6118 20.8132 23.6034 20.8926 23.5241 20.9427L23.4907 20.9594C23.4907 20.9594 23.4698 20.9719 23.4615 20.9719L23.2151 21.0805L23.1608 21.0095L23.2025 20.9803C23.2443 20.951 23.2527 20.9009 23.2527 20.8633C23.2527 20.7046 23.119 20.4958 22.9603 20.4039C22.8935 20.3663 22.8309 20.3538 22.7849 20.3705L22.7473 20.2786H22.7432ZM23.0397 20.2494L23.023 20.2578L22.9436 20.2912C22.9436 20.2912 22.9812 20.3079 22.9979 20.3162C23.19 20.4248 23.3404 20.6629 23.3404 20.8591C23.3404 20.88 23.3404 20.8967 23.3362 20.9134L23.4197 20.8759C23.4197 20.8759 23.4364 20.8675 23.4406 20.8675L23.474 20.8508C23.474 20.8508 23.5116 20.8216 23.5116 20.7422C23.5116 20.5877 23.3779 20.3747 23.2192 20.2828C23.1566 20.2452 23.094 20.2327 23.0522 20.2452H23.0397V20.2494Z" fill="#16110D"/>
<path d="M22.9352 21.5667C23.1106 21.6669 23.2526 21.8924 23.2526 22.0678V23.8804C23.2526 23.9639 23.2234 24.0224 23.1691 24.0474L23.453 23.9138L23.4823 23.9013C23.5449 23.8762 23.5867 23.8219 23.5867 23.7259V21.9133C23.5867 21.7379 23.4405 21.5166 23.2651 21.4122C23.1816 21.362 23.119 21.3453 23.0647 21.3662H23.048V21.3746C23.048 21.3746 23.0438 21.3746 23.0396 21.3787L22.7139 21.5333C22.7723 21.5082 22.8517 21.5207 22.9394 21.5709L22.9352 21.5667Z" fill="#1BF3A4"/>
<path d="M22.689 21.4833L23.0439 21.3163C23.1275 21.2829 23.211 21.3163 23.2862 21.3622C23.4783 21.4708 23.6286 21.7089 23.6286 21.9051V23.7177C23.6286 23.8513 23.5576 23.914 23.495 23.939L23.1859 24.0852L23.1442 23.9975C23.1943 23.9724 23.2026 23.9181 23.2026 23.8764V22.0638C23.2026 21.9051 23.0648 21.6963 22.9061 21.6044C22.8351 21.5627 22.7683 21.5502 22.7266 21.571L22.689 21.4833V21.4833ZM23.5158 23.8012C23.5158 23.8012 23.5325 23.7553 23.5325 23.7177V21.9051C23.5325 21.7464 23.3947 21.5376 23.236 21.4457C23.1609 21.404 23.1149 21.3915 23.0773 21.404L23.0606 21.4123L22.8936 21.4917C22.8936 21.4917 22.9312 21.5084 22.9521 21.5209C23.1442 21.6295 23.2945 21.8676 23.2945 22.0638V23.8764C23.2945 23.8764 23.2945 23.9098 23.2945 23.9265L23.4532 23.8513C23.4532 23.8513 23.4991 23.8304 23.5117 23.8012H23.5158Z" fill="#16110D"/>
<path d="M22.6182 23.5136V21.7011C22.6182 21.5257 22.756 21.4672 22.9314 21.5674C23.1068 21.6677 23.2488 21.8932 23.2488 22.0686V23.8811C23.2488 24.0565 23.1109 24.115 22.9356 24.0148C22.7602 23.9146 22.6182 23.689 22.6182 23.5136Z" fill="#C5FFE9"/>
<path d="M22.6013 21.5636C22.618 21.5344 22.643 21.5093 22.6681 21.4926C22.7433 21.4508 22.8477 21.4592 22.9563 21.5218C23.1484 21.6304 23.2987 21.8685 23.2987 22.0648V23.8773C23.2987 23.9734 23.2653 24.0444 23.1985 24.0819C23.1233 24.1237 23.0189 24.1154 22.9103 24.0527C22.7182 23.9441 22.5679 23.7061 22.5679 23.5098V21.6972C22.5679 21.643 22.5762 21.597 22.5971 21.5636H22.6013ZM23.1859 23.9608C23.2026 23.9358 23.2068 23.9024 23.2068 23.8731V22.0606C23.2068 21.9019 23.069 21.6931 22.9103 21.6012C22.8351 21.5594 22.7641 21.5469 22.7182 21.572C22.6723 21.597 22.6639 21.6513 22.6639 21.6931V23.5056C22.6639 23.6601 22.8017 23.8731 22.9604 23.9608C23.0356 24.0068 23.1066 24.0151 23.1525 23.9901C23.1692 23.9817 23.1776 23.9692 23.1859 23.9567V23.9608Z" fill="#16110D"/>
<path d="M22.9479 24.5169C23.1233 24.6171 23.2653 24.8426 23.2653 25.018V26.8306C23.2653 26.9141 23.2361 26.9726 23.1818 26.9976L23.4657 26.864L23.495 26.8515C23.5576 26.8264 23.5994 26.7721 23.5994 26.6761V24.8635C23.5994 24.6881 23.4532 24.4668 23.2778 24.3623C23.1943 24.3122 23.1316 24.2955 23.0774 24.3164H23.0607V24.3248C23.0607 24.3248 23.0565 24.3248 23.0523 24.3289L22.7266 24.4835C22.785 24.4584 22.8644 24.4709 22.9521 24.5211L22.9479 24.5169Z" fill="#1BF3A4"/>
<path d="M22.7056 24.4374L23.0605 24.2704C23.1441 24.237 23.2276 24.2704 23.3028 24.3163C23.4949 24.4249 23.6452 24.663 23.6452 24.8592V26.6718C23.6452 26.8054 23.5742 26.8639 23.5116 26.8931L23.2025 27.0393L23.1608 26.9516C23.2109 26.9265 23.2192 26.8723 23.2192 26.8305V25.0179C23.2192 24.8592 23.0814 24.6504 22.9227 24.5585C22.8517 24.5168 22.7849 24.5043 22.7432 24.5251L22.7056 24.4374V24.4374ZM23.5324 26.7553C23.5324 26.7553 23.5491 26.7094 23.5491 26.6718V24.8592C23.5491 24.7005 23.4113 24.4917 23.2526 24.3998C23.1775 24.3581 23.1315 24.3456 23.0939 24.3581H23.0772L22.9102 24.4416C22.9311 24.45 22.9478 24.4583 22.9687 24.4708C23.1608 24.5794 23.3111 24.8175 23.3111 25.0138V26.8263C23.3111 26.8263 23.3111 26.8597 23.3111 26.8764L23.4698 26.8013C23.4698 26.8013 23.5157 26.7804 23.5283 26.7511L23.5324 26.7553Z" fill="#16110D"/>
<path d="M22.6343 26.4628V24.6503C22.6343 24.4749 22.7721 24.4164 22.9475 24.5167C23.1229 24.6169 23.2649 24.8424 23.2649 25.0178V26.8304C23.2649 27.0058 23.1271 27.0642 22.9517 26.964C22.7763 26.8638 22.6343 26.6382 22.6343 26.4628Z" fill="#C5FFE9"/>
<path d="M22.6179 24.5167C22.6346 24.4875 22.6596 24.4624 22.6847 24.4457C22.7599 24.404 22.8643 24.4123 22.9729 24.475C23.165 24.5835 23.3153 24.8216 23.3153 25.0179V26.8304C23.3153 26.9265 23.2819 26.9975 23.2151 27.0351C23.1399 27.0768 23.0355 27.0685 22.9269 27.0058C22.7348 26.8973 22.5845 26.6592 22.5845 26.4629V24.6504C22.5845 24.5961 22.5928 24.5501 22.6137 24.5167H22.6179ZM23.2025 26.914C23.2192 26.8889 23.2234 26.8555 23.2234 26.8263V25.0137C23.2234 24.855 23.0856 24.6462 22.9269 24.5543C22.8517 24.5126 22.7808 24.5 22.7348 24.5251C22.6889 24.5501 22.6805 24.6044 22.6805 24.6462V26.4587C22.6805 26.6133 22.8183 26.8263 22.977 26.914C23.0522 26.9599 23.1232 26.9683 23.1691 26.9432C23.1858 26.9348 23.1942 26.9223 23.2025 26.9098V26.914Z" fill="#16110D"/>
<path d="M42.7511 5.51418L42.7636 45.8035C42.7678 46.8977 42.2207 47.921 41.3062 48.5223L25.7542 57.4806C24.848 57.8857 23.758 57.4347 23.7539 56.4073L23.7246 16.26C23.7205 15.1825 24.255 14.1801 25.1529 13.5829L40.6881 4.62461C41.8198 3.98981 42.6843 4.56614 42.7511 5.51418Z" fill="#C5FFE9"/>
<path d="M24.3427 14.7986C24.5891 14.3685 24.9358 13.9968 25.3617 13.7128L40.9011 4.74614C41.4565 4.43292 41.9911 4.38698 42.4087 4.6125C42.7762 4.80879 43.0017 5.19719 43.0351 5.67747L43.0476 45.971C43.0518 47.0861 42.5006 48.1177 41.5693 48.7316L26.0174 57.6899C25.5037 57.9196 24.9232 57.8903 24.4973 57.6147C24.1423 57.385 23.946 57.0175 23.9418 56.579L23.9126 16.4316C23.9126 15.8469 24.0629 15.2873 24.3427 14.7986V14.7986ZM42.9391 5.68165C42.9098 5.23895 42.701 4.87979 42.3628 4.7002C41.9744 4.49138 41.4732 4.53732 40.947 4.83385L25.4118 13.7963C24.5265 14.381 24.0003 15.3666 24.0086 16.4316L24.0379 56.579C24.0379 56.9841 24.2216 57.3224 24.5474 57.5354C24.9441 57.7943 25.4912 57.8193 25.9714 57.6064L41.5192 48.6481C42.4212 48.055 42.9558 47.0527 42.9516 45.971L42.9391 5.68165V5.68165Z" fill="#16110D"/>
<path d="M26.239 56.4238L41.2355 47.7119C41.8745 47.2901 42.2587 46.5718 42.2545 45.8075L42.2462 8.18684C42.2002 7.51862 41.5947 7.11769 40.8012 7.56038L25.8172 16.2806C25.1867 16.6983 24.8108 17.3999 24.815 18.1558L24.8359 55.6762C24.8359 56.3946 25.6377 56.8247 26.239 56.428V56.4238Z" fill="white"/>
<path d="M35.5892 9.02246L35.6101 9.00993C35.7103 8.95146 35.7897 9.00993 35.7897 9.14357C35.7897 9.27722 35.7103 9.43174 35.6101 9.49021L35.5892 9.50274C35.489 9.56121 35.4097 9.50274 35.4097 9.3691C35.4097 9.23545 35.489 9.08093 35.5892 9.02246Z" fill="#1BF3A4"/>
<path d="M31.5927 11.3525L35.0296 9.34782C35.1298 9.28935 35.2092 9.34782 35.2092 9.48147C35.2092 9.61511 35.1298 9.76963 35.0296 9.8281L31.5927 11.8328C31.4924 11.8912 31.4131 11.8328 31.4131 11.6991C31.4131 11.5655 31.4924 11.4109 31.5927 11.3525V11.3525Z" fill="#1BF3A4"/>
<path d="M35.5771 9.20684C35.6105 9.1442 35.6606 9.09408 35.7107 9.06485L35.7316 9.05232C35.7901 9.01891 35.8485 9.01473 35.8986 9.04396C35.9529 9.07738 35.9863 9.1442 35.9863 9.2319C35.9863 9.38225 35.8986 9.55348 35.7859 9.6203L35.765 9.63283C35.7065 9.66624 35.6481 9.67042 35.598 9.64118C35.5437 9.60777 35.5103 9.54095 35.5103 9.45325C35.5103 9.36972 35.5353 9.28202 35.5771 9.21102V9.20684ZM35.8318 9.42401C35.8652 9.36554 35.8861 9.29455 35.8861 9.22772C35.8861 9.17761 35.8736 9.13584 35.8485 9.12331C35.8235 9.11079 35.7942 9.12332 35.7775 9.13167L35.7608 9.1442C35.6773 9.19431 35.6063 9.33213 35.6063 9.4449C35.6063 9.49501 35.6188 9.53678 35.6439 9.5493C35.6689 9.56183 35.6982 9.5493 35.7149 9.54095L35.7358 9.52842C35.7733 9.50754 35.8068 9.46578 35.836 9.41984L35.8318 9.42401Z" fill="#16110D"/>
<path d="M31.5803 11.5408C31.6179 11.4781 31.6638 11.428 31.7139 11.3988L35.1509 9.39411C35.2093 9.3607 35.2678 9.35653 35.3179 9.38576C35.3722 9.41917 35.4056 9.48599 35.4056 9.5737C35.4056 9.72405 35.3179 9.89528 35.201 9.9621L31.764 11.9668C31.7056 12.0002 31.6471 12.0043 31.597 11.9751C31.5427 11.9417 31.5093 11.8749 31.5093 11.7872C31.5093 11.7036 31.5343 11.6159 31.5761 11.5449L31.5803 11.5408ZM35.2511 9.76581C35.2845 9.70734 35.3054 9.63634 35.3054 9.56952C35.3054 9.5194 35.2929 9.48182 35.2678 9.46511C35.2427 9.45258 35.2135 9.46511 35.1968 9.47346L31.7598 11.4781C31.6763 11.5282 31.6053 11.6661 31.6053 11.783C31.6053 11.8331 31.622 11.8707 31.6429 11.8874C31.668 11.8999 31.6972 11.8874 31.7139 11.879L35.1509 9.8744C35.1884 9.85351 35.2219 9.81175 35.2511 9.76581V9.76581Z" fill="#16110D"/>
<g clip-path="url(#clip0_2456_71273)">
<path d="M37.4649 31.0064L32.5263 34.5998L34.8129 33.9744L39.1602 30.4449L37.4802 30.993C37.4755 30.9978 37.4704 31.0023 37.4649 31.0064Z" fill="#C5FFE9"/>
<path d="M36.041 30.1347L37.3782 30.7568L39.42 30.0906L38.2407 29.6028L36.041 30.1347Z" fill="#C5FFE9"/>
<path d="M36.0303 29.8724L38.1771 29.3532L39.1835 27.9695L37.403 28.2313L36.0303 29.8724Z" fill="#C5FFE9"/>
<path d="M38.9722 27.7417L36.1672 26.6389L34.3497 26.9054L37.2854 27.9897L38.9722 27.7417Z" fill="#C5FFE9"/>
<path d="M37.1374 30.9271L32.7042 34.1526L32.1515 34.5549L33.7771 30.7922C33.805 30.728 33.7755 30.6529 33.7113 30.6242L32.2619 29.9783L33.8931 27.01L34.3354 27.1732L37.0993 28.194L35.5713 30.0209C35.5457 30.0513 35.5359 30.0919 35.5448 30.1309C35.5533 30.1699 35.5797 30.2024 35.616 30.2192L37.1375 30.9272L37.1374 30.9271Z" fill="#1BF3A4"/>
<path d="M31.7505 34.8342C31.7294 34.8584 31.7178 34.8901 31.7191 34.9232C31.7151 34.9654 31.7323 35.0079 31.7669 35.0355C31.7781 35.0444 31.7903 35.0511 31.8031 35.0558C31.8426 35.0702 31.8877 35.0647 31.923 35.039L31.9404 35.0264L34.9079 34.2147C34.9251 34.2099 34.9411 34.2017 34.9549 34.1905L39.8168 30.2432C39.8239 30.2374 39.8302 30.2309 39.8357 30.2241C39.8838 30.206 39.9168 30.161 39.9187 30.1093C39.9206 30.0558 39.8889 30.0065 39.8392 29.9859L38.4527 29.4123L39.5712 27.8745C39.5825 27.8594 39.5904 27.8416 39.5939 27.8223C39.5939 27.8223 39.594 27.8221 39.594 27.822L39.5941 27.8218C39.5948 27.8178 39.5954 27.8137 39.5958 27.8096C39.5974 27.7903 39.5946 27.7715 39.5882 27.7542C39.5882 27.7542 39.5882 27.7542 39.5882 27.754C39.5882 27.754 39.5882 27.754 39.5881 27.7538C39.5853 27.7464 39.5818 27.7391 39.5776 27.7322C39.5734 27.7254 39.5687 27.7189 39.5634 27.7132C39.5634 27.7132 39.5633 27.7132 39.5633 27.713C39.5633 27.713 39.5631 27.7129 39.5631 27.7129C39.5631 27.7129 39.5629 27.7127 39.5628 27.7127C39.5506 27.6992 39.5354 27.6882 39.5179 27.6807C39.5166 27.6803 39.5154 27.6797 39.5142 27.6792L36.2293 26.3874C36.2084 26.3794 36.1856 26.3766 36.1634 26.3798L33.8146 26.7241C33.8139 26.7243 33.8132 26.7246 33.8125 26.7247C33.8062 26.7257 33.8002 26.7274 33.7942 26.7293C33.7923 26.7299 33.7904 26.7302 33.7886 26.7308C33.7813 26.7336 33.7741 26.737 33.7673 26.741C33.7651 26.7423 33.7632 26.744 33.7611 26.7455C33.7567 26.7486 33.7523 26.7516 33.7482 26.7552C33.7459 26.7573 33.7439 26.7596 33.7417 26.7618C33.7384 26.7652 33.735 26.7687 33.732 26.7725C33.7299 26.7753 33.7281 26.7782 33.7262 26.7812C33.7244 26.7839 33.7224 26.7863 33.7207 26.7893L31.9692 29.9764C31.952 30.0078 31.9486 30.045 31.9601 30.0791C31.9716 30.1131 31.9969 30.1407 32.0297 30.1554L33.4905 30.8065L31.7505 34.8342ZM34.8131 33.9743L32.5265 34.5998L37.4651 31.0064C37.4706 31.0023 37.4757 30.9978 37.4804 30.9931L39.1604 30.4449L34.8131 33.9743ZM39.4201 30.09L37.3783 30.7563L36.0411 30.1342L38.2409 29.6023L39.4202 30.0901L39.4201 30.09ZM38.1773 29.3535L36.0305 29.8726L37.4032 28.2315L39.1838 27.9698L38.1773 29.3534L38.1773 29.3535ZM36.1674 26.6386L38.9724 27.7414L37.2856 27.9894L34.3499 26.9051L36.1674 26.6386ZM32.2619 29.9781L33.8932 27.0098L37.0993 28.1939L35.5712 30.0206C35.5457 30.0511 35.5358 30.0918 35.5446 30.1307C35.5533 30.1696 35.5797 30.2023 35.6159 30.2191L37.1372 30.9269L32.1516 34.5547L33.7771 30.7921C33.8049 30.7277 33.7756 30.6527 33.7112 30.6241L32.2619 29.978L32.2619 29.9781Z" fill="black"/>
</g>
<defs>
<clipPath id="clip0_2456_71273">
<rect width="7.52329" height="9.65953" fill="white" transform="translate(33.6196 25.4375) rotate(20)"/>
</clipPath>
</defs>
</svg>
