<svg width="61" height="32" viewBox="0 0 61 32" fill="none" xmlns="http://www.w3.org/2000/svg">
<g clip-path="url(#clip0_2479_110516)">
<g clip-path="url(#clip1_2479_110516)">
<path d="M5.27051 10.6667V20.1784L7.42422 20.8608V12.8853C7.42422 12.5095 7.59178 12.2599 7.86053 12.3457C8.21192 12.4432 8.28021 12.7894 8.28021 13.161V16.3463C9.62078 16.9952 10.6762 16.346 10.6762 14.634C10.6762 12.8846 10.0574 12.1053 8.23668 11.4787C7.51851 11.2396 6.18755 10.836 5.27051 10.6667Z" fill="black"/>
<path d="M7.83386 19.4702L11.2929 18.2391C11.6842 18.094 11.744 17.897 11.4273 17.7934C11.1056 17.6879 10.5315 17.7181 10.136 17.8601L7.83386 18.6722V17.3764L7.96569 17.3329C7.96569 17.3329 8.63208 17.0968 9.56936 16.9952C10.5048 16.8926 11.6521 17.0085 12.5537 17.3484C13.5695 17.6711 13.6833 18.1417 13.4263 18.4693C13.1656 18.7934 12.5335 19.0279 12.5335 19.0279L7.83386 20.7161" fill="black"/>
<path d="M1.32443 19.3392C0.283022 19.0491 0.109359 18.436 0.584445 18.0819C1.02267 17.7586 1.76899 17.5152 1.76899 17.5152L4.85411 16.4152V17.6671L2.63606 18.4622C2.24317 18.6027 2.18427 18.8004 2.50073 18.9039C2.82284 19.0115 3.39448 18.9826 3.7876 18.8375L4.85411 18.453V19.5706C4.78537 19.5822 4.70894 19.5938 4.63918 19.6057C3.57583 19.7822 2.44295 19.7097 1.32443 19.3392Z" fill="black"/>
<path d="M12.8769 20.2121C12.8769 20.2438 12.8693 20.2645 12.8531 20.2749C12.8345 20.2875 12.8101 20.2939 12.7793 20.2939H12.6246V20.136H12.7883C12.8115 20.136 12.8288 20.14 12.8427 20.1454C12.8653 20.1565 12.8769 20.1788 12.8769 20.2121ZM12.9887 20.574C12.9809 20.5718 12.9755 20.5641 12.9709 20.5511C12.9689 20.541 12.9674 20.5268 12.967 20.5085L12.9645 20.4369C12.9634 20.4038 12.957 20.378 12.9431 20.3626C12.9362 20.3505 12.9239 20.3428 12.9121 20.3345C12.9275 20.3204 12.9417 20.3061 12.9536 20.2904C12.9674 20.2681 12.9755 20.2379 12.9755 20.2057C12.9755 20.14 12.9472 20.0933 12.8921 20.0674C12.8647 20.0558 12.8288 20.0482 12.7862 20.0482H12.525V20.61H12.6246V20.3813H12.7765C12.8047 20.3813 12.8237 20.3849 12.8376 20.3895C12.8564 20.4015 12.8666 20.4196 12.8678 20.4507L12.8727 20.5383C12.8742 20.5607 12.8756 20.574 12.8769 20.5842L12.8843 20.6035L12.8864 20.61H12.9957V20.578M12.3204 20.3418C12.3204 20.227 12.3633 20.1218 12.4418 20.0438C12.5222 19.9641 12.6295 19.9211 12.741 19.9211C12.8526 19.9211 12.9571 19.9641 13.0356 20.0438C13.1148 20.1218 13.1575 20.227 13.1575 20.3418C13.1575 20.5718 12.9705 20.7584 12.741 20.7584C12.6295 20.7584 12.5222 20.7159 12.4418 20.6372C12.3633 20.5579 12.3204 20.4537 12.3204 20.3418ZM12.741 20.8446C12.8756 20.8446 13.0007 20.7915 13.096 20.6974C13.1902 20.6016 13.2433 20.4766 13.2433 20.3418C13.2433 20.2058 13.1902 20.0786 13.096 19.9846C13.0007 19.8885 12.8756 19.8371 12.741 19.8371C12.4615 19.8371 12.2355 20.0627 12.2355 20.3418C12.2355 20.4766 12.2876 20.6016 12.3818 20.6974C12.4772 20.7915 12.6063 20.8446 12.741 20.8446" fill="black"/>
<path d="M20.5571 13.1628L17.9562 13.1617C17.9455 13.1617 17.9369 13.1702 17.9369 13.18V19.263C17.9369 19.2727 17.9455 19.2819 17.9562 19.2819H19.0103L19.0288 19.263L19.0301 13.8403L19.0363 13.8313L20.2432 13.829C20.6827 13.829 20.9241 14.2719 20.9241 15.0744C20.9241 15.8773 20.6827 16.3212 20.2432 16.3212L19.5168 16.3204C19.506 16.3204 19.4986 16.3287 19.4986 16.3391V16.9702C19.4986 16.9825 19.506 16.99 19.5168 16.99H20.5571C20.9241 16.99 21.2835 16.8199 21.5429 16.5277C21.8502 16.1808 22.012 15.68 22.012 15.0799C22.012 13.917 21.444 13.1628 20.5571 13.1628Z" fill="black"/>
<path d="M23.736 13.1617H22.6812C22.6692 13.1617 22.6606 13.1702 22.6606 13.18V19.263C22.6606 19.2728 22.6692 19.2818 22.6812 19.2818H23.736L23.7553 19.263V13.18L23.736 13.1617Z" fill="black"/>
<path d="M28.3361 14.6424C28.3361 14.6316 28.3266 14.6235 28.3162 14.6235H26.4379C24.7536 14.6235 24.5383 15.8598 24.5383 16.9463L24.5396 17.886C24.5396 18.6946 25.0425 19.2817 25.7338 19.2817H26.7586L26.7772 19.263V18.6325C26.7772 18.6222 26.7685 18.6131 26.7586 18.6131L26.0267 18.6143C25.858 18.6108 25.631 18.5395 25.631 17.9597V16.9452C25.6302 16.271 25.6929 15.84 25.8329 15.5948C25.9845 15.3241 26.2232 15.2878 26.4379 15.2878H27.2385L27.2453 15.2973L27.2442 19.263C27.2442 19.2726 27.2524 19.2817 27.2636 19.2817H28.3164C28.3268 19.2817 28.3361 19.2726 28.3361 19.263" fill="black"/>
<path d="M35.9233 15.7073L35.4039 15.6677C35.0144 15.6341 34.7247 15.4184 34.7247 14.7802C34.7247 14.035 35.0589 13.8311 35.505 13.8311H36.9426L36.9617 13.8126V13.18L36.9426 13.1618H36.9126L35.3551 13.1622C34.374 13.1622 33.6763 13.7384 33.6763 14.8869V14.9369C33.6763 15.8431 34.2339 16.4971 35.0649 16.5607L35.5818 16.599C35.9762 16.6289 36.2217 16.9815 36.2217 17.5166V17.6671C36.2217 18.0017 36.1381 18.6138 35.4206 18.6138H33.9269C33.9169 18.6138 33.9082 18.6225 33.9082 18.6332V19.2629L33.9269 19.2817H35.7814C36.3528 19.2817 37.3096 19.0505 37.3096 17.4953C37.3096 16.9318 37.1816 16.4876 36.9222 16.1667C36.701 15.891 36.3734 15.7419 35.9233 15.7073Z" fill="black"/>
<path d="M44.5613 14.6424C44.5613 14.6316 44.5523 14.6235 44.5424 14.6235H42.6599C40.9792 14.6235 40.7617 15.8598 40.7617 16.9463L40.7631 17.886C40.7631 18.6946 41.2655 19.2817 41.9605 19.2817H42.9825L43.0015 19.263V18.6325C43.0015 18.6222 42.9925 18.6131 42.9825 18.6131L42.2501 18.6143C42.0821 18.6108 41.8571 18.5395 41.8564 17.9597V16.9452C41.8564 16.271 41.9198 15.84 42.0565 15.5948C42.2082 15.3241 42.4485 15.2878 42.6596 15.2878H43.4638L43.4717 15.2973L43.4698 19.263C43.4698 19.2726 43.4785 19.2817 43.489 19.2817H44.5433C44.5537 19.2817 44.5613 19.2726 44.5613 19.263" fill="black"/>
<path d="M40.3238 14.6236H39.1796L39.1736 14.6166V13.85C39.1736 13.8398 39.1658 13.8313 39.1552 13.8313H38.1014C38.0907 13.8313 38.0813 13.8398 38.0813 13.85V17.8866C38.0813 18.6951 38.5853 19.2818 39.2793 19.2818H40.034C40.0448 19.2818 40.0532 19.2727 40.0532 19.263V18.6332C40.0532 18.6229 40.0448 18.6132 40.034 18.6132H39.5707C39.4519 18.6114 39.1736 18.6054 39.1725 18.0097V15.2922L39.1789 15.2861C39.5294 15.2879 40.3238 15.2861 40.3238 15.2861L40.3423 15.2688V14.6425C40.3423 14.6318 40.3336 14.6236 40.3238 14.6236Z" fill="black"/>
<path d="M47.6826 14.6236H46.5449L46.5372 14.6166V13.85L46.5198 13.8313H45.4639C45.4535 13.8313 45.4445 13.8398 45.4445 13.85V17.8866C45.4445 18.6951 45.9476 19.2818 46.6411 19.2818H47.3956C47.4069 19.2818 47.4142 19.2727 47.4142 19.263V18.6332C47.4142 18.6229 47.4069 18.6132 47.3956 18.6132H46.9324C46.8133 18.6114 46.5372 18.6054 46.5372 18.0097V15.2922L46.5435 15.2861C46.8913 15.2879 47.6826 15.2861 47.6826 15.2861L47.7014 15.2688V14.6425C47.7014 14.6318 47.6919 14.6236 47.6826 14.6236Z" fill="black"/>
<path d="M49.425 14.6236H48.3714C48.3616 14.6236 48.3522 14.6318 48.3522 14.6425V19.263L48.3714 19.2818H49.425C49.4365 19.2818 49.4445 19.2727 49.4445 19.263V14.6425C49.4445 14.6318 49.4365 14.6236 49.425 14.6236Z" fill="black"/>
<path d="M49.425 13.1617H48.3714L48.3522 13.18V14.0634C48.3522 14.0741 48.3616 14.082 48.3714 14.082H49.425C49.4365 14.082 49.4445 14.0741 49.4445 14.0634V13.18C49.4445 13.1702 49.4365 13.1617 49.425 13.1617Z" fill="black"/>
<path d="M56.7153 14.6236H54.8348C54.8249 14.6236 54.8162 14.6318 54.8162 14.6425L54.8157 19.263L54.8333 19.2818H55.8889L55.9067 19.263L55.9052 15.2962L55.9126 15.2885L56.7144 15.2879C56.9313 15.2879 57.1692 15.3229 57.3213 15.5736C57.4605 15.8002 57.5236 16.1985 57.5236 16.8237C57.5245 16.8507 57.5228 19.263 57.5228 19.263C57.5228 19.2727 57.5312 19.2818 57.5416 19.2818H58.5926C58.604 19.2818 58.6124 19.2727 58.6124 19.263V16.9458C58.6124 15.8598 58.3954 14.6236 56.7153 14.6236Z" fill="black"/>
<path d="M52.7999 18.3073C52.6341 18.5804 52.3708 18.6169 52.1319 18.6169C51.8953 18.6169 51.6312 18.5804 51.4636 18.3073C51.3124 18.0615 51.2424 17.6308 51.2424 16.9518V16.9463C51.2424 16.145 51.341 15.6897 51.5616 15.4728C51.6935 15.3412 51.8646 15.2878 52.1319 15.2878C52.403 15.2878 52.5724 15.3412 52.7042 15.4728C52.9228 15.6897 53.0217 16.1469 53.0217 16.9518C53.0217 17.6317 52.9515 18.0627 52.7999 18.3073ZM52.1319 14.6236C50.3717 14.6236 50.1467 15.8657 50.1467 16.9518C50.1467 18.0391 50.3717 19.2852 52.1319 19.2852C53.8921 19.2852 54.1166 18.0391 54.1166 16.9518C54.1166 15.8657 53.8921 14.6236 52.1319 14.6236" fill="black"/>
<path d="M28.9307 14.6236L28.9185 14.6419L30.4819 19.2201C30.4845 19.2304 30.4845 19.2462 30.4812 19.2563L29.6009 21.5231C29.5972 21.5338 29.602 21.5417 29.6124 21.5417H30.5291C30.5404 21.5417 30.5523 21.5338 30.556 21.5231L33.3005 14.6419C33.3043 14.6309 33.2995 14.6236 33.2887 14.6236H32.2886C32.2777 14.6236 32.2663 14.6318 32.2629 14.6419L31.101 17.6504H31.088L30.0622 14.6419C30.0598 14.6309 30.0481 14.6236 30.0375 14.6236" fill="black"/>
<path d="M59.9677 18.6505C59.9677 18.681 59.9592 18.7009 59.9431 18.7128C59.9251 18.7257 59.9004 18.7311 59.8703 18.7311H59.7157V18.5739H59.879C59.9023 18.5739 59.9199 18.5775 59.933 18.5836C59.9553 18.5945 59.9677 18.6165 59.9677 18.6505ZM60.0787 19.0122C60.0715 19.0094 60.0657 19.0017 60.0611 18.9889C60.0596 18.9794 60.0582 18.9638 60.0578 18.9463L60.0553 18.8756C60.0539 18.841 60.0478 18.8151 60.0332 18.801C60.0263 18.7886 60.0143 18.7801 60.003 18.7714C60.0176 18.7578 60.0322 18.7439 60.044 18.7278C60.0582 18.7056 60.0657 18.6766 60.0657 18.6444C60.0657 18.5775 60.0376 18.5311 59.9829 18.5055C59.9544 18.4939 59.9199 18.4862 59.8767 18.4862H59.6162V19.0478H59.7157V18.8187H59.8671C59.895 18.8187 59.915 18.8227 59.9277 18.8272C59.9465 18.8392 59.9568 18.8576 59.9584 18.8884L59.9634 18.9765C59.9647 18.9982 59.9659 19.0122 59.9677 19.021L59.9744 19.041L59.9765 19.0478H60.086V19.0152M59.4109 18.7796C59.4109 18.6645 59.4539 18.5601 59.533 18.4809C59.6133 18.4021 59.7202 18.3589 59.8309 18.3589C59.9428 18.3589 60.0472 18.4021 60.1258 18.4809C60.2053 18.5601 60.2485 18.6645 60.2485 18.7796C60.2485 19.0096 60.0608 19.1964 59.8309 19.1964C59.7202 19.1964 59.6133 19.1537 59.533 19.0751C59.4539 18.9963 59.4109 18.8913 59.4109 18.7796M59.8309 19.2818C59.966 19.2818 60.0916 19.2287 60.1872 19.1353C60.2804 19.04 60.3334 18.9138 60.3334 18.7796C60.3334 18.6436 60.2804 18.5162 60.1872 18.4222C60.0916 18.3267 59.966 18.2749 59.8309 18.2749C59.5529 18.2749 59.3267 18.5001 59.3267 18.7796C59.3267 18.9138 59.3783 19.04 59.4728 19.1353C59.5682 19.2287 59.6968 19.2818 59.8309 19.2818Z" fill="black"/>
</g>
</g>
<defs>
<clipPath id="clip0_2479_110516">
<rect width="60" height="32" fill="white" transform="translate(0.333374)"/>
</clipPath>
<clipPath id="clip1_2479_110516">
<rect width="60" height="10.8751" fill="white" transform="translate(0.333374 10.6667)"/>
</clipPath>
</defs>
</svg>
